<svg id="Layer_1" data-name="Layer 1" xmlns="http://www.w3.org/2000/svg" viewBox="0 0 164.06 141"><title>ancrage-local</title><path d="M59.73,87.16c-2.19-3.26-4.32-6.26-6.27-9.37A83.21,83.21,0,0,1,42,50.66C37.4,29,49.51,7.94,70.21,1.74a41.05,41.05,0,0,1,52.49,34c1.1,8.46-.48,16.59-3.37,24.51a103.1,103.1,0,0,1-14,25.36c-.27.37-.54.73-.8,1.11,0,.06,0,.16,0,.41h1.31c9.84,0,19.68,0,29.52,0a3.34,3.34,0,0,1,3.13,1.72q9,13.66,18.17,27.27c2.32,3.48,4.67,7,7,10.46a3.28,3.28,0,0,1,.49,1.65c.05,3.28,0,6.56,0,9.84A2.63,2.63,0,0,1,161.2,141H3.62a10.1,10.1,0,0,1-1.23,0A2.5,2.5,0,0,1,0,138.42Q0,133.17,0,127.9a3,3,0,0,1,.58-1.48L25.83,88.57a3,3,0,0,1,2.73-1.43c9.84,0,19.68,0,29.52,0Zm22.72,16.62a158.78,158.78,0,0,0,22.33-26.52,85.12,85.12,0,0,0,11-22.75c2-6.82,2.86-13.75,1.33-20.77a35.84,35.84,0,0,0-41.63-28c-16.27,2.77-29,17.58-29.34,34.1-.19,8.77,2.23,16.9,5.91,24.72C57.55,76.15,65.15,86.3,73.8,95.68,76.44,98.54,79.49,101,82.45,103.78Zm-53,21.64H134.66l-2.95-6.13c-1-2.14.11-4,2.5-4,4.37,0,8.75,0,13.12,0h2.53c-1.16-1.73-2.14-3.26-3.2-4.71a1.68,1.68,0,0,0-1.2-.41q-7.92,0-15.85,0c-1.81,0-2.42-.36-3.18-2-2.37-5-4.77-10-7.12-15a1.37,1.37,0,0,0-1.45-.91c-5.61,0-11.21,0-16.81,0a1.71,1.71,0,0,0-1.13.3c-2.1,2.36-4.15,4.77-6.35,7.32.48,0,.74,0,1,0,4.56,0,9.11,0,13.67,0,2,0,2.65.51,3.19,2.42,1.14,4,2.27,8,3.43,11.93A2.67,2.67,0,0,1,112,118c-.41,0-.82-.06-1.23-.06L51.88,118a2.66,2.66,0,0,1-2.69-3.57q1.77-6.09,3.5-12.19c.49-1.7,1.21-2.26,2.91-2.26L69,100h1.54c-2.23-2.59-4.26-5-6.33-7.31a1.67,1.67,0,0,0-1.1-.36q-16.33,0-32.66,0a1.55,1.55,0,0,0-1.09.37c-1.05,1.46-2,3-3.1,4.6.45,0,.67.1.89.1,3.69,0,7.38,0,11.06-.06,2.42,0,3.75,1.87,2.74,4Q35.48,112.7,30,124.08C29.85,124.48,29.69,124.89,29.47,125.42ZM5.24,135.75H158.82v-4.88H5.24Zm103.78-23c-.65-2.29-1.29-4.37-1.82-6.48-.23-.93-.65-1.19-1.59-1.19q-7.86.08-15.71,0a3.12,3.12,0,0,0-2.51,1c-1.07,1.11-2.22,2.15-3.38,3.18a2.61,2.61,0,0,1-4,0c-1.29-1.16-2.51-2.39-3.8-3.54a2.25,2.25,0,0,0-1.28-.61c-5.65,0-11.29,0-16.94,0a1.25,1.25,0,0,0-1,.66c-.67,2.13-1.25,4.27-1.84,6.42-.05.17.06.38.09.53ZM7.49,125.5c5.19,0,10.1,0,15,0a1.63,1.63,0,0,0,1.73-1.13q4.88-10.35,9.82-20.68c.17-.35.29-.72.48-1.21-3.63,0-7.08,0-10.54,0a2.05,2.05,0,0,0-2,1.08c-4.54,6.87-9.12,13.71-13.68,20.55C8.1,124.48,7.88,124.87,7.49,125.5ZM124.55,92.3c2,4.22,3.89,8.19,5.84,12.13a1.65,1.65,0,0,0,1.28.64c3.37.06,6.73,0,10.1,0a11.46,11.46,0,0,0,1.17-.13c-2.77-4.16-5.43-8.17-8.13-12.15a1.45,1.45,0,0,0-1-.5C130.81,92.28,127.81,92.3,124.55,92.3Zm32.07,33.2c-1.14-1.72-2.05-3.17-3.06-4.56a1.62,1.62,0,0,0-1.17-.43c-4.55,0-9.09,0-13.64,0a4.84,4.84,0,0,0-.7.1c.73,1.53,1.36,2.93,2.07,4.29a1.28,1.28,0,0,0,.92.59C146.12,125.51,151.21,125.5,156.62,125.5Z" fill="#59bf93"/><path d="M66.67,42.39c-.6.38-.93.62-1.28.81A2.52,2.52,0,0,1,62,42.46,2.45,2.45,0,0,1,62.48,39a33.75,33.75,0,0,1,3.1-2.23A2.12,2.12,0,0,0,66.7,34.7c-.08-2.09,0-4.18,0-6.28a2.52,2.52,0,0,1,2.53-2.77,2.55,2.55,0,0,1,2.56,2.76c0,1.21,0,2.42,0,3.95,2.88-2.06,5.51-3.92,8.1-5.81,1.72-1.26,2.57-1.25,4.27,0q8.31,6,16.65,11.92a7.92,7.92,0,0,1,1,.76,2.47,2.47,0,0,1,.3,3.24,2.53,2.53,0,0,1-3.26.83c-.4-.2-.77-.48-1.27-.8a5.17,5.17,0,0,0-.15.8c0,4,0,8,0,12a1.6,1.6,0,0,0,.72,1.18c1.4.7,2,1.69,1.75,3s-1.22,2-2.83,2H67.15c-1.75,0-2.67-.63-3-2s.29-2.25,1.88-3a1.25,1.25,0,0,0,.6-.87C66.69,51.28,66.67,47,66.67,42.39ZM82,31.35C78.9,33.59,75.84,35.8,72.74,38a2,2,0,0,0-1,1.91c0,5.05,0,10.11,0,15.16,0,.4,0,.8.08,1.23h7.62c0-1.6,0-3.1,0-4.59,0-1.82,1-3,2.49-3s2.57,1.14,2.59,3c0,1.49,0,3,0,4.57h7.56a2.29,2.29,0,0,0,.13-.47c0-5.46,0-10.93,0-16.39a1.76,1.76,0,0,0-.66-1.21C88.47,35.92,85.31,33.69,82,31.35Z" fill="#59bf93"/></svg>