<svg xmlns="http://www.w3.org/2000/svg" viewBox="0 0 148.84 226.24"><title>association</title><g><g id="Layer_1" data-name="Layer 1"><path d="M92.94,121.64c-7.91,1.47-15.46,4.44-23.24,6.49s-16.11,3.15-23.82.85c-6.06-1.8-11.31-5.57-16.87-8.59S17,115,10.87,116.46C38.58,98.21,73.08,92.64,106.22,94.4c4.3.23,8.72.6,12.61,2.46s7.2,5.5,7.46,9.81c.38,6.39-7.62,15.14-13.59,16.86-2.75.79-5.06-1-7.66-1.71A26.87,26.87,0,0,0,92.94,121.64Z" fill="#522e0f"/><polygon points="74.78 113.21 74.78 138.25 70.02 139.53 65.99 138.78 62.05 113.57 74.78 113.21" fill="#f3bda6"/><path d="M19.46,48.94c-2.72,4.87-3.21,10.69-2.87,16.26S18,76.28,18.28,81.85,17.82,93.25,14.84,98,5.49,111.89,0,110.86c1.27,3.28,5.66,5.48,9.17,5.81s7-.7,10.3-1.86c2.48-.87,5.06-1.83,7.67-1.49,3.47.44,6.42,3.15,9.93,3.23,2.72.07,6-7.4,7.69-9.55a19.28,19.28,0,0,0,3.17-7.46C51.3,85.36,48,70,40,57.76c-2.26-3.48-5-6.82-8.61-8.81S21.48,45.31,19.46,48.94Z" fill="#522e0f"/><path d="M26.49,44.25C22.22,62.39,8.71,119,65,115.22s59.91-64,59.91-64L82.37,24.09,33.12,30.24Z" fill="#fedeca"/><path d="M26.49,44.25l6.63-14,42.66-5.32a81.78,81.78,0,0,1,13.57,3.61l7.1,4.52L99.1,82.4A46.69,46.69,0,0,1,87.68,45.9a15.92,15.92,0,0,0-4.31,9.84q0-4.53,0-9.06c-1,1.69-2,3.37-3,5.06a8.45,8.45,0,0,1,1.51-6.29c-9.21,6.2-21.21,5.63-32.3,5.13-8.44-.38-17.52-.36-25.11,2.84C25.18,49.83,25.92,46.69,26.49,44.25Z" fill="#f3bda6"/><path d="M37.67,57.34c5.11,1.47,9.74,5.57,15.29,5.07,4.77-.43,9.31-2,14-2.66,8.89-1.23,21,1.73,22.75,12.12,1.07,6.24-3.56,11.26-9.09,13.54-9.67,4-23,3.84-30.8-3.94a55.07,55.07,0,0,1-12.11,2C31.41,83.82,25.19,82,22,76.68A104,104,0,0,1,23.29,60l.19-.19C27.24,56.38,33,56,37.67,57.34Z" fill="#f9b194"/><path d="M67.65,58.44c8.89-1.23,20.95,1.74,22.75,12.12,1.07,6.24-3.56,11.27-9.09,13.54-9.67,4-23,3.84-30.8-3.93-3.91,1.13-8,2.39-12.11,2.63-7.17.43-14.21-2.66-16.89-9.71C19.72,68.39,20.27,62,24.13,58.5s9.5-3.81,14.2-2.46c5.11,1.46,9.74,5.56,15.29,5.06C58.39,60.68,62.93,59.09,67.65,58.44Z" fill="#d42f28"/><path d="M45.12,92.27c0-.11-.2-.19-.42-.25a2.88,2.88,0,0,0-.36-.07c-.13,0-.27-.11-.42-.15A3.74,3.74,0,0,1,42.09,90,9.85,9.85,0,0,1,41,85.8,7.05,7.05,0,0,1,41,84.66c0-.18.07-.22.07-.35a5.45,5.45,0,0,1,.27-.66h0c.06-.14-.09.18-.07.15h0s0,0-.06.06-.12,0-.07.05a2.21,2.21,0,0,1,.81.21,25.15,25.15,0,0,1,5.35,3.71l2.16,1.81L50,87.07c.93-5.2,1.18-8.84.52-9s-2.07,3.2-3.56,8.27l2.62-.75a27.7,27.7,0,0,0-2.65-2.48,14.83,14.83,0,0,0-3.59-2.25,5.23,5.23,0,0,0-2.38-.45,3.25,3.25,0,0,0-1.58.54,3.32,3.32,0,0,0-.65.58,2.79,2.79,0,0,0-.23.32l-.1.17-.05.08,0,0-.08.18c-.1.27-.18.42-.29.79a6.78,6.78,0,0,0-.21,1.14,8.4,8.4,0,0,0,0,1.82,10.14,10.14,0,0,0,2.34,5.33,4.33,4.33,0,0,0,3.75,1.75,3.85,3.85,0,0,0,.66-.18,2.45,2.45,0,0,0,.4-.29Q45.2,92.44,45.12,92.27Z" fill="#f79d67"/><path d="M48.48,99.35c0,.46,1.14.85,2.93.64a12.66,12.66,0,0,0,10.07-8.7c.49-1.81.23-2.84-.2-3-1-.2-2.49,3.27-5.89,6.12S48.41,98.36,48.48,99.35Z" fill="#f79d67"/><path d="M82.16,69.57s-17.82-16.8-26.4,6.84C55.76,76.41,71.53,87,82.16,69.57Z" fill="#fffef3"/><path d="M63.2,70.93A7,7,0,1,0,67.5,65,7,7,0,0,0,63.2,70.93Z" fill="#28a8e0"/><path d="M65.84,71.27a4.31,4.31,0,1,0,2.81-3.88A4.32,4.32,0,0,0,65.84,71.27Z" fill="#35200f"/><path d="M72.77,69.47a2.7,2.7,0,0,0,3.76,2.71A2.65,2.65,0,0,0,78.13,70a2.69,2.69,0,0,0-5.36-.49Z" fill="#fffef3"/><path d="M64.34,71.6a1.86,1.86,0,0,0,2.72,2,1.81,1.81,0,0,0,.89-1.2,1.86,1.86,0,0,0-2.72-2A1.79,1.79,0,0,0,64.34,71.6Z" fill="#fffef3"/><path d="M44.79,73.09c-.53-4.86-9-17.42-16.84-7.33,0,0,.68,8.61,7,11.62S44.79,73.09,44.79,73.09Z" fill="#fffef3"/><path d="M38.73,65A7.32,7.32,0,0,1,40,64.87c3.12,2.95,5.25,7.63,5.07,10.75a8.13,8.13,0,0,1-8.34,2.44,7,7,0,0,1,2-13.11Z" fill="#28a8e0"/><path d="M35.53,71.66a4.31,4.31,0,1,0,2.8-3.88A4.32,4.32,0,0,0,35.53,71.66Z" fill="#35200f"/><path d="M34,72a1.85,1.85,0,0,0,2.72,2,1.77,1.77,0,0,0,.89-1.2,1.86,1.86,0,0,0-2.72-2A1.77,1.77,0,0,0,34,72Z" fill="#fffef3"/><path d="M44.79,73.09a2.14,2.14,0,0,1-1.49-3.92,16.1,16.1,0,0,1,1.54,3.91Z" fill="#fffef3"/><path d="M55.76,76.41c.49.18,1.46-1.52,3.13-4a22.25,22.25,0,0,1,3.22-3.86,13.39,13.39,0,0,1,2.23-1.7A10.24,10.24,0,0,1,67,65.79a11.48,11.48,0,0,1,2.91-.27,16.27,16.27,0,0,1,2.81.41,26.17,26.17,0,0,1,4.76,1.74c2.7,1.26,4.34,2.26,4.67,1.9s-.78-2.07-3.4-4a18.85,18.85,0,0,0-5.13-2.71,16,16,0,0,0-3.49-.74,13,13,0,0,0-3.94.29A12.26,12.26,0,0,0,62.54,64a13.86,13.86,0,0,0-2.73,2.36,17.1,17.1,0,0,0-3.09,4.94C55.48,74.26,55.35,76.26,55.76,76.41Z" fill="#1a1c1d"/><path d="M28,65.76c.41.35,1.56-.74,3.45-1.56a5.6,5.6,0,0,1,3.18-.45,8.18,8.18,0,0,1,3.63,1.84,21.61,21.61,0,0,1,5.1,6.65c.5,1,.84,1.83,1.1,2.39s.45,1,.7,1,.51-.31.66-1.08a8.17,8.17,0,0,0-.12-3.1,15.72,15.72,0,0,0-5.22-8.56,9.73,9.73,0,0,0-5.55-2.34,7.84,7.84,0,0,0-2.76.41,7.58,7.58,0,0,0-2,1.14,7,7,0,0,0-2,2.42C27.81,65.19,27.76,65.61,28,65.76Z" fill="#1a1c1d"/><path d="M74.34,51.39a19.42,19.42,0,0,0-6.91,2.77,26.65,26.65,0,0,1-6.76,3.15c-1.28.32-2.88.31-3.63-.77-.52,2.23,1.46,4.47,3.71,4.9s4.55-.53,6.45-1.81,3.56-2.9,5.51-4.09a15.33,15.33,0,0,1,3.77-1.62c1.06-.29,3.06-.14,3.75-1C78.87,51.45,76.26,51.13,74.34,51.39Z" fill="#522e0f"/><path d="M47.59,57.18a40,40,0,0,0-6.38-4.36,13.69,13.69,0,0,0-7.45-1.66A8.28,8.28,0,0,0,27.37,55c.62,1.15,1.1,2.29,1.72,3.45a12,12,0,0,1,14.08-.63A11.12,11.12,0,0,0,45,59a2.34,2.34,0,0,0,2.08,0C47.68,58.66,48.16,57.62,47.59,57.18Z" fill="#522e0f"/><path d="M28.38,20.07c8.3-5.48,16.66-11,25.81-14.9S73.43-1,83.28.41,102,7.14,107.06,15.72c6-1.35,12.36-1.79,18.27-.09s11.34,5.81,13.58,11.55c2.65,6.78.55,14.35-.32,21.58a45,45,0,0,0,1,17.79c1.64,5.75,4.43,11.28,9.13,15,.29,7.36-.26,21.14-3.52,27.74s-9.69,12-17,12.36c-3.41.16-6.94-.73-10.17.35-2.87,1-5,3.33-7.58,4.94s-6.64,2.74-8.73.55c5.88-4.34,9-17.59,11.5-24.47A24,24,0,0,0,115,95.67a8.87,8.87,0,0,0-2.56-6.86c-2.25-2-5.53-2.29-8.33-3.43-4.85-2-8.14-6.56-10.39-11.29A49.66,49.66,0,0,1,91.3,37.7c-16.22,1-32.69,1.93-48.69-1A34,34,0,0,1,34,34.22a14.64,14.64,0,0,1-6.6-5.84C26,25.73,25.85,21.73,28.38,20.07Z" fill="#522e0f"/><path d="M96.67,29.51c-.42,4.31-3.19,8.15-6.71,10.68A33.67,33.67,0,0,1,78,45.13a83.8,83.8,0,0,1-19.38,2.33c-6,0-12-.62-18.06-.55S28.41,47.79,23,50.52,13.15,58.12,12,64c-2.58-7.5-3.64-16.14-2-23.9A32.37,32.37,0,0,1,22.49,20.5c6.53-4.62,14.73-6.27,22.72-6.64C63.48,13,81.71,19,96.67,29.51Z" fill="#522e0f"/><path d="M84.77,56.3A14.46,14.46,0,0,1,85.9,43.79a10.75,10.75,0,0,0-4.09,4.59,9.36,9.36,0,0,1,3.42-6.17c.9-.78,3.61-3.17,4.88-3,2,.34-.73,3.43-1.28,4.49A40,40,0,0,0,84.77,56.3Z" fill="#522e0f"/><path d="M52.69,168.62c.73-11,5.17-27.72,2.28-38.36,9.38,2.1,24.19-4.94,24.19-4.94s4.35-.14,6,1.16c2.94,2.37,3,6.72,3.58,10.46,1.37,8.66,6.89,16.27,13.8,21.66s15.16,8.81,23.46,11.64c5.66,1.92,11.21,3.6,14.43,8.64-5.58-3-12.48-2.94-18.49-.89s-11.25,5.88-16,10.15-9,9-13.7,13.23c-4.49,4-9.74,7.73-15.75,8.17-7.13.53-13.82-3.69-18.74-8.87C50.18,192.67,52,179.62,52.69,168.62Z" fill="#0678a7"/><path d="M139.18,184.53c-2.7-3.12-6.57-5-10.5-6.22s-8-1.89-12-3.07A47.45,47.45,0,0,1,82.86,130.9a7.83,7.83,0,0,1,.56-3.69c.56-1.13,1.24-1.74,2.48-1.52a84.79,84.79,0,0,0,13.22,25.69c6,7.62,13.75,14,22.8,17.39,3.53,1.34,7.22,2.23,10.79,3.47a26.9,26.9,0,0,1,9.83,5.48" fill="#2e3f4e"/><path d="M52.88,160.44c1.42-9.65,2.66-22.74-.06-32.1,4.31,7.53,5.3,16.38,5,25s-2.06,19.38-2,28.05,2,17.73,7.44,24.5a5.88,5.88,0,0,0-.08,8.78c-8-5.52-12-15.51-12.82-25.22Z" fill="#2e3f4e"/><path d="M59.32,170.31c.06-3.62.08-7.33.44-10.93a27,27,0,0,1,4.55.76c-.24,3.5-.49,7-.73,10.5C62.14,170.51,60.76,170.44,59.32,170.31Z" fill="#d42f28"/><path d="M96.66,131.78l6.07,2.08,4.42-4.12,6,5.27s-3.3,6-8.2,7.22-11.58-2.87-11.58-2.87Z" fill="#f3bda6"/><path d="M104.69,137.22a9.45,9.45,0,0,1-3.64.51c.15-1.11.33-2.21.52-3.31l1.38.47,2.71-2.53c.88.88,1.79,1.73,2.74,2.51A11.36,11.36,0,0,1,104.69,137.22Z" fill="#fedeca"/><path d="M81.33,132c-.77,2.62-3.79,2.2-1,4,4.71,3,16.75,7.33,16.75,7.33l3.1-11.32S83.84,123.52,81.33,132Z" fill="#59bf93"/><path d="M115,136.16c-3.58-1.19-6.54-3.93-9.07-6.74a58.46,58.46,0,0,1,4.94-5.61,2,2,0,0,1-.42-2.44,1.81,1.81,0,0,1,2.26-.49,5.41,5.41,0,0,1,2.63-1.91,1.88,1.88,0,0,1,2.34,1.42,2.74,2.74,0,0,1,3,2.41,2.26,2.26,0,0,1,1.88,1,2.2,2.2,0,0,1,.31,2.21C121.38,128.84,118,132.64,115,136.16Z" fill="#eb5440"/><path d="M119.14,124.29a1.83,1.83,0,0,1-2.65-1c0,.3-1.74.08-2,0a.85.85,0,0,1-.56-.66,2.6,2.6,0,0,1,0-.92,4.82,4.82,0,0,0-1.42,2.06c1.58.24,2.66,1.52,2.77,4.1,0-1.24,4.35.14,4.71.4C118.83,127.46,118.25,125.42,119.14,124.29Z" fill="#d42f28"/><path d="M46.46,135l-5.91,2.52-4.7-3.8-5.62,5.7S34,145.17,38.92,146s11.35-3.71,11.35-3.71Z" fill="#f3bda6"/><path d="M38.85,141a9.25,9.25,0,0,0,3.66.24c-.23-1.09-.49-2.18-.75-3.26l-1.35.57-2.89-2.33a36.27,36.27,0,0,1-2.55,2.7A11.38,11.38,0,0,0,38.85,141Z" fill="#fedeca"/><path d="M65.84,132.36c1,2.56-.13,3.71-2.77,5.68-4.48,3.34-16.18,8.53-16.18,8.53L43,135.5S62.73,124,65.84,132.36Z" fill="#59bf93"/><path d="M28.5,140.68c3.49-1.44,6.24-4.39,8.57-7.37a60.14,60.14,0,0,0-5.34-5.25A2,2,0,0,0,32,125.6a1.8,1.8,0,0,0-2.28-.33,5.5,5.5,0,0,0-2.77-1.71,1.88,1.88,0,0,0-2.23,1.58,2.75,2.75,0,0,0-2.84,2.63A2.27,2.27,0,0,0,20,128.89a2.19,2.19,0,0,0-.15,2.22C21.59,133.84,25.21,137.39,28.5,140.68Z" fill="#eb5440"/><path d="M23.49,129.14A1.84,1.84,0,0,0,26.08,128c0,.3,1.73,0,2-.14a.87.87,0,0,0,.52-.71,2.52,2.52,0,0,0-.1-.9,4.8,4.8,0,0,1,1.56,1.95c-1.56.35-2.54,1.7-2.47,4.29,0-1.24-4.33.44-4.67.74C24,132.28,24.46,130.21,23.49,129.14Z" fill="#d42f28"/><path d="M62.31,127.7c5.68,1.24,12.11-.06,19-2.81L92.4,160.13c-10.05,3.63-20.38,4.65-30.76,5.22Z" fill="#59bf93"/><path d="M89.5,156c-4.71,2.84-10.59,4.07-15.9,4.55a39.69,39.69,0,0,1-10.36-.24l.61-11.06c.3.54.63,1.06,1,1.57a2.53,2.53,0,0,0,1.48,1.24c1,.19,1.83-.78,2.38-1.65a54.75,54.75,0,0,0,5.53-11.71l-2.13,17.19a58.88,58.88,0,0,0,11.4-16.53Z" fill="#29b686"/><path d="M107.75,200l-9-12.46,18.07-16.16L124.7,181c4.57,5.59-3.34,2.11-3.34,2.11Z" fill="#eb5440"/><path d="M92.4,160.13l13.47,37.29s-4.7,5.13-9.31,4.36-12.73-26.72-12.73-26.72L73,176.38,69.37,199.1,59.83,198l1.81-32.68C72,164.78,82.35,163.76,92.4,160.13Z" fill="#59bf93"/><path d="M104.18,196.63l.16.44c-1.17,1.1-4,3.46-6.81,3.46a4.56,4.56,0,0,1-.75-.06c-1.43-.24-4.42-5.95-7.54-13.95C93.19,191.45,98.14,195.65,104.18,196.63Z" fill="#29b686"/><path d="M65.31,191a6,6,0,0,1-3.67-1.68l.15-2.56c.75-.14,1.51-.3,2.25-.49a29.31,29.31,0,0,0,6.44-2.52l-.87,5.44A5.85,5.85,0,0,1,65.31,191Z" fill="#29b686"/><path d="M91.52,159.2,93,163.36c-4.82,2.75-9,3.73-15.73,4.67-3.86.55-11.3,1.39-15.74.14l.25-4.44A51.48,51.48,0,0,0,91.52,159.2Z" fill="#d42f28"/><ellipse cx="57.8" cy="222.38" rx="23.93" ry="3.86" fill="#9f9d99" opacity="0.35"/><path d="M57.58,196.72l14,1L68,223.05l-12.41.33c-7.22.19.38-3.94.38-3.94Z" fill="#eb5440"/><path d="M54.81,139.61a6,6,0,0,1-4,1.44,97.74,97.74,0,0,0,7.68-6.34A20.14,20.14,0,0,1,54.81,139.61Z" fill="#29b686"/><path d="M91.52,157.71,93,161.87c-4.82,2.75-9,3.74-15.73,4.68-3.86.54-11.3,1.38-15.74.13l.25-4.44A51.48,51.48,0,0,0,91.52,157.71Z" fill="#eb5440"/><path d="M93.35,154.88l-5,2.14c1.17,3.22,2.49,6.35,3.67,9.57,1.5-.38,3.22-.57,4.73-.94C95.62,162,94.29,158.55,93.35,154.88Z" fill="#d42f28"/><path d="M103.14,81.21c8.58-7.66,20.31-11.8,22.57.55s-16,35.1-34.31,22.24C83.11,98.18,98.21,85.61,103.14,81.21Z" fill="#fedeca"/><path d="M118.47,82.05c-6-2.88-15.46,7.13-17.18,12.19s-2.27,9.46,4,8.78,10.6-6.53,8.73-11.73-9.15,1.34-9.15,1.34,4.24-7.12,7.74-9S118.47,82.05,118.47,82.05Z" fill="#f6a57f"/><path d="M70.51,93.45c.35,2.2,3.24,3.58,6.44,3.07s5.53-2.72,5.18-4.92S78.89,88,75.68,88.53,70.16,91.24,70.51,93.45Z" fill="#f3bda6"/><path d="M78.05,90.15a.69.69,0,0,0,.91.91.68.68,0,0,0,.34-.35.69.69,0,0,0-.91-.91A.68.68,0,0,0,78.05,90.15Z" fill="#f3bda6"/><path d="M24.93,85.2c-.81,2.08,1,4.72,4,5.91s6.13.45,7-1.62-1-4.73-4-5.91S25.75,83.12,24.93,85.2Z" fill="#f3bda6"/><path d="M33.61,86.05A.69.69,0,0,0,33,87.16a.66.66,0,0,0,.42.25A.69.69,0,0,0,34,86.3.62.62,0,0,0,33.61,86.05Z" fill="#f3bda6"/><path d="M102.38,78.8a36,36,0,0,1-2-9.57,14.15,14.15,0,0,0,3.54,6.55,56.46,56.46,0,0,1-1.17-28.33,44.71,44.71,0,0,0,5.14,25.1q-.81-5.74-1.61-11.48a33.42,33.42,0,0,0,4.39,10.25q-1.77-9.09-3.55-18.2a47.61,47.61,0,0,1,6,17.74,77.72,77.72,0,0,0-3.23-24.5,55.82,55.82,0,0,1,9,24.38l1.2-9,3.44,11.09A29.38,29.38,0,0,0,123,61.26c2.7,5.89,5.43,11.83,6.81,18.18a45.8,45.8,0,0,1-3.62,29.73,47.81,47.81,0,0,0,6.75-40.51,49.21,49.21,0,0,1,3.62,32,50.26,50.26,0,0,0,4-11.7A8.18,8.18,0,0,0,142.18,93c2.27-5.29.71-11.45-1.56-16.74s-5.26-10.42-5.9-16.15c-.72-6.51,1.68-13.06,1-19.57a23.47,23.47,0,0,0-10.6-16.76,30.28,30.28,0,0,0-19.4-4.42C117.3,21,127.28,30.86,129.21,42.59A27.26,27.26,0,0,0,110,26.26C114.5,28,118,31.81,120.3,36.05s3.68,9,5,13.66A42.19,42.19,0,0,0,107,29.65a25.15,25.15,0,0,1,5.92,8l-11.44-9.76L108,37.28a33.81,33.81,0,0,1-6.85-8.07,34.8,34.8,0,0,0,1.72,13.4,28.89,28.89,0,0,1-5.18-15.39c.1,2.65-1.17,5.71-1.6,8.32a97.26,97.26,0,0,0-1.21,23.24,41.84,41.84,0,0,0,2.2,10.68,31.91,31.91,0,0,0,2.28,5C100.13,75.82,101.87,77.35,102.38,78.8Z" fill="#633019"/><path d="M79.62,4A50.39,50.39,0,0,0,54.4,8.32,41.29,41.29,0,0,1,67.87,7.2a95.18,95.18,0,0,0-20.47,4,59.79,59.79,0,0,1,18.5-.4,43.82,43.82,0,0,1-9.73,1.37A74.84,74.84,0,0,1,93.39,24.55a45.3,45.3,0,0,0-15-11.76A50.26,50.26,0,0,1,94.6,21.41,33.36,33.36,0,0,0,75.29,5.87a52.25,52.25,0,0,1,26.64,13.44,54.12,54.12,0,0,0-7.47-9c.75.72,2.44,1.14,3.39,1.67s2,1.39,3.07,1.86c-.08-2.69-7-5.61-9.09-6.56A39.81,39.81,0,0,0,79.62,4Z" fill="#633019"/><path d="M50.2,29.86a40.37,40.37,0,0,1,20.27-7.71c-8.77-.73-17.2,3.12-25.16,6.88A27.5,27.5,0,0,1,59,19c-7.5,0-15.08.3-22.32,2.25s-14.2,5.64-19,11.42-7.12,13.82-5.06,21a26.61,26.61,0,0,1,16.6-24.45,19.26,19.26,0,0,0-7.87,9.2A39.22,39.22,0,0,1,39.27,26.6c-7.56,6-15.42,12.47-19,21.46a81.27,81.27,0,0,1,14.31-14.4,24.31,24.31,0,0,0-5.07,9.78A31,31,0,0,1,45.39,31.26a50.55,50.55,0,0,0-7.45,10.23A45.58,45.58,0,0,1,60.31,30.33,42,42,0,0,0,48.12,43a52.63,52.63,0,0,1,25-14.84,109,109,0,0,0-9.65,6.69A63.23,63.23,0,0,1,77.6,29.75a116.09,116.09,0,0,0-15,10.87c3.65-3.11,9.48-5.3,13.85-7.19a60.34,60.34,0,0,1,7.25-2.63c2.18-.62,4.74-.79,7.45-1.64C89.24,27.52,69,22.31,50.2,29.86Z" fill="#633019"/><path d="M19.7,95.58A19.72,19.72,0,0,1,10,106.9a17.85,17.85,0,0,0,12.43-7.07l-1.27,4.93a4,4,0,0,0-2.69-7.4" fill="#633019"/><path d="M50.44,129.54s8.13,11.58,19.06,0C69.5,129.58,63.88,122.49,50.44,129.54Z" fill="#0678a7"/><path d="M72.18,128.15s3.95-5.09,18.73-1.4C90.91,126.75,87.13,140.64,72.18,128.15Z" fill="#0678a7"/></g></g></svg>