<svg id="Layer_1" data-name="Layer 1" xmlns="http://www.w3.org/2000/svg" viewBox="0 0 132.93 115.31"><title>benefice</title><path d="M122.11,49.89c-3.06-15.47-10.47-27.68-22.84-36.71C65.37-11.55,17.17,7.28,9,48.42c0,.18,0,.41-.12.53-.43.49-.91.94-1.36,1.41-.26-.58-.82-1.22-.72-1.74A60.39,60.39,0,0,1,8.3,42.14c7-23.27,29-40.45,53-42A60.09,60.09,0,0,1,123.92,48a4.61,4.61,0,0,0,.15.53s.1.06.3.18c.28-.41.61-.81.87-1.25,1.92-3.24,3.8-6.51,5.79-9.69.28-.45,1.16-.51,1.75-.75,0,.6.3,1.35,0,1.79-2.57,4.5-5.24,8.95-7.86,13.42a1.4,1.4,0,0,1-2.27.56c-4.4-2.63-8.83-5.2-13.2-7.87-.49-.3-.66-1.11-1-1.68.69-.05,1.54-.39,2-.11C114.31,45.23,118,47.46,122.11,49.89Z" fill="#59bf93"/><path d="M8.63,66.26,2.85,76,2.1,77.28c-.44.75-.93,1.76-1.91,1-.33-.26-.19-1.56.13-2.18,1-2,2.22-3.85,3.35-5.76C5.08,68,6.51,65.6,7.89,63.19c.63-1.08,1.31-1.23,2.42-.56,4.26,2.6,8.6,5.09,12.86,7.71.55.34.76,1.26,1.13,1.9-.76,0-1.65.19-2.25-.14-3.18-1.76-6.29-3.66-9.42-5.51-.51-.3-1-.57-1.79-1A57.53,57.53,0,0,0,123.91,67c.07-.36.06-.82.28-1.06a8,8,0,0,1,1.32-.93c.25.44.74.9.69,1.3a35.43,35.43,0,0,1-.85,4.17c-6.11,24.65-28.71,43.34-54,44.7A59.76,59.76,0,0,1,9,67.44C8.91,67.21,8.84,67,8.63,66.26Z" fill="#59bf93"/><path d="M66.48,94.11a36.94,36.94,0,1,1,36.92-37A37,37,0,0,1,66.48,94.11ZM89.59,50.23c-.09-.93-.5-1.27-1.16-1.37-4.57-.66-9.13-1.34-13.7-2a1.22,1.22,0,0,1-1.06-.8c-2-4-4-8-5.94-12.06-.27-.55-.54-1-1.27-1s-1,.5-1.26,1q-3,6.06-6,12.11a1.33,1.33,0,0,1-.78.68c-4.54.7-9.07,1.35-13.61,2-.62.08-1.19.2-1.4.87s.21,1.1.65,1.52c3.18,3.09,6.34,6.21,9.55,9.27a1.57,1.57,0,0,1,.49,1.62c-.78,4.36-1.51,8.73-2.27,13.09-.11.62-.16,1.18.42,1.6s1.06.13,1.58-.14c4-2.1,8-4.19,12-6.3a1.25,1.25,0,0,1,1.34,0c4,2.14,8.07,4.24,12.1,6.37.51.27,1.08.48,1.48,0a1.91,1.91,0,0,0,.38-1.36c-.72-4.47-1.5-8.94-2.28-13.4a1.4,1.4,0,0,1,.46-1.42q4.85-4.66,9.64-9.39A6.45,6.45,0,0,0,89.59,50.23ZM76,27.5c-.64.07-1.09.33-1.19.95a1.1,1.1,0,0,0,.84,1.34A29.21,29.21,0,0,1,82.22,33c.79.51,1.5.44,1.88-.18s.16-1.25-.65-1.78a31.23,31.23,0,0,0-6.79-3.33Zm6.41,56c0-1.08-.89-1.65-1.65-1.23a32.89,32.89,0,0,1-7.25,2.9,1.14,1.14,0,1,0,.58,2.2,28.13,28.13,0,0,0,7.67-3.07C82.06,84.12,82.25,83.68,82.38,83.51Zm7.47-46.38c-.36.29-.84.48-.92.78a1.74,1.74,0,0,0,.17,1.33A33.57,33.57,0,0,1,93,45.68a1.14,1.14,0,0,0,1.55.71,1.17,1.17,0,0,0,.56-1.62,30,30,0,0,0-4.2-7A5,5,0,0,0,89.85,37.13ZM35.69,52.19a1.16,1.16,0,0,0,1,1.33A1.09,1.09,0,0,0,38,52.6a30.61,30.61,0,0,1,2.24-7.41,1.14,1.14,0,1,0-2.06-1A29.77,29.77,0,0,0,35.69,52.19ZM88.36,78.9a6,6,0,0,0,1-.68A29.93,29.93,0,0,0,94,71.72,1.19,1.19,0,0,0,93.64,70c-.61-.32-1.23-.06-1.66.65-.57,1-1.11,2-1.77,2.87-.79,1.1-1.72,2.1-2.51,3.2A1.87,1.87,0,0,0,87.44,78C87.52,78.35,88,78.58,88.36,78.9ZM43.94,75.76a3.89,3.89,0,0,0-.93.77,1.11,1.11,0,0,0,.23,1.4,30.89,30.89,0,0,0,6.09,5.26,1.16,1.16,0,1,0,1.28-1.91A31.43,31.43,0,0,1,45,76.43,5.57,5.57,0,0,0,43.94,75.76Zm7.8-43.92c-.31-.39-.49-.85-.79-1a1.62,1.62,0,0,0-1.28.08,28.16,28.16,0,0,0-6.16,5.15,1.16,1.16,0,1,0,1.67,1.57,31.61,31.61,0,0,1,5.74-4.84A4.66,4.66,0,0,0,51.74,31.84Zm-16.09,30a29,29,0,0,0,2.36,8,1.11,1.11,0,0,0,1.52.5,1.1,1.1,0,0,0,.57-1.43c-.14-.46-.42-.89-.55-1.35q-.82-3-1.6-6c-.19-.76-.68-1.21-1.31-1.13S35.64,61,35.65,61.84Zm29.4,26.63,0-.14c.39,0,.77,0,1.16,0,.85,0,1.34-.42,1.36-1.12s-.46-1.13-1.31-1.18-1.9,0-2.83-.18c-1.52-.22-3-.53-4.53-.82-1.06-.21-1.89.53-1.5,1.42a1.7,1.7,0,0,0,1.07.83C60.67,87.73,62.87,88.09,65.05,88.47ZM68,27.15A1.13,1.13,0,0,0,66.77,26a15.25,15.25,0,0,0-2.53.08c-1.88.25-3.74.57-5.6.92a1.1,1.1,0,0,0-.94,1.35,1.13,1.13,0,0,0,1.32.9,32.8,32.8,0,0,1,7.83-1A1.13,1.13,0,0,0,68,27.15ZM95.34,56.94h.09c-.17,1.7-.35,3.41-.51,5.11a1.15,1.15,0,0,0,.94,1.37,1.11,1.11,0,0,0,1.3-.92,30.67,30.67,0,0,0,.32-8.34,1.14,1.14,0,1,0-2.27.23C95.24,55.25,95.3,56.09,95.34,56.94Z" fill="#59bf93"/></svg>