<svg version="1.1" id="Layer_1" xmlns="http://www.w3.org/2000/svg" xmlns:xlink="http://www.w3.org/1999/xlink" x="0px" y="0px"
	 viewBox="0 0 242 381.4" enable-background="new 0 0 242 381.4" xml:space="preserve">
<g>
	<path fill="#F79D67" d="M53.5,94.7c-7.2-3.9-15.9-4.8-14.5,12.7s10.8,34.3,17.7,30.6S53.5,94.7,53.5,94.7z"/>
	<path fill="#F79D67" d="M141.1,198.8c-2-6.5-3.7-13-5.7-19.4c4.9-0.6,9.6-0.2,14.5-0.8c-0.6,5.9-1.1,11.9-1.7,17.8
		C146,197.2,143.4,198.7,141.1,198.8z"/>
	<path fill="#FDD4B6" d="M57.5,51.9C52.9,90.1,34,188.1,125,186.4c111.8-2.2,106.2-117.7,106.2-117.7L161.4,14l-99,26.6L57.5,51.9z"
		/>
	<path fill="#F79D67" d="M55.9,64.7c3-1.8,6.2-3.3,9.4-4.6c37.5-16,81.6-15.8,119.1,0.5c4.9,2.1,9.8,4.6,13,8.8
		c8.1,10.5,2.4,25.5-3.6,37.3l-9.6,15c-16.1,14.2-39.8,19-60.1,12.1c-9-3-17.4-8.1-26.8-9c-6.4-0.6-12.8,0.8-19.2,1
		c-8.6,0.3-17.5-1.8-24.8-6.3C51.7,100.2,53.9,80.2,55.9,64.7z"/>
	<path fill="#F79D67" d="M101,141.9c-0.3-0.4-1.4-0.1-3,0.3c-1.6,0.3-3.9,0.7-5.6-0.9c-1.8-1.3-3.2-4.6-3.7-8.2
		c-0.1-0.9-0.2-1.8-0.1-2.7c0-0.5,0.1-0.7,0.1-1c0-0.2,0.1-0.5,0.2-0.8l0.1-0.4l0-0.1l0,0c0,0.1,0.1-0.3-0.1,0.2l0,0l0,0l0,0
		c0.1-0.4,0.2-0.2,0.6-0.5c0.4-0.2,1.3-0.2,2.3-0.1c2.3,0.2,5,1,7.1,1.9l3.6,1.4l0.8-3.5c3.6-15.3,5.3-26.9,3.8-27.3
		c-1.5-0.4-5.6,10.6-9.9,25.7c1.4-0.7,2.9-1.4,4.4-2.1c-2.8-1.3-5.6-2.3-9.2-2.7c-1.5-0.1-3.1-0.1-5,0.5c-0.9,0.3-1.9,0.9-2.6,1.6
		c-0.4,0.4-0.7,0.8-1.1,1.2c-0.2,0.4-0.5,0.9-0.7,1.4l-0.1,0.4l0,0.1l0,0l-0.1,0.3l0,0l0,0.1l-0.1,0.4c-0.1,0.3-0.1,0.5-0.2,0.9
		c-0.1,0.8-0.2,1.7-0.1,2.3c0,1.3,0.2,2.6,0.4,3.8c0.5,2.4,1.4,4.6,2.6,6.5c1.2,1.9,2.7,3.6,4.6,4.6c0.9,0.6,2,0.7,2.9,1
		c1,0,1.9,0.1,2.6-0.1c1.6-0.3,2.7-1,3.5-1.6C100.7,143.2,101.3,142.2,101,141.9z"/>
	<path fill="#F9A943" d="M169.5,141.9c1.6,2.1,4.6,2.7,7.2,2.1c2.6-0.6,4.8-2.2,7-3.7c3.3-2.4,6.7-4.8,10-7.2
		c3.3-2.4,6.6-4.8,8.9-8.1c7.8-11.6-7.3-22.7-17-14.5C182.9,112.7,169.5,141.9,169.5,141.9z"/>
	<path fill="#59BF93" d="M208.3,117.7c-8.6,3.3-17.9,4.9-27.1,4.8c0,0-50,25.6-76.9-4.3c0,0-33.5,11.4-53.9-7.8
		c0,0-12.2-68.1,25.2-93.7C113-8.9,182.7-3.5,214.5,22.3c31.8,25.8,14.3,91,12.9,95.2C226.1,121.7,208.3,117.7,208.3,117.7z"/>
	<path fill="#29B686" d="M165,13.5c-12-5.2-26.3-8.1-40.6-10.4c4.7-0.5,9.5-0.7,14.4-0.7c29.2,0,57.6,8.3,74.2,21.8
		c30.6,24.8,13.5,87.8,12.2,92.3c-0.3,0.1-1.2,0.5-3.5,0.5c-5.3,0-12.7-1.7-12.8-1.7l-0.7-0.2l-0.7,0.3c-8.1,3.1-16.6,4.6-25.2,4.6
		c-0.3,0-1.6,0-1.6,0l-0.5,0.3c-0.2,0.1-16.2,8.2-34.6,9.7c19.4-7.6,37.5-18.6,53.2-32.4c-6.6-5-9.3-14.5-6.4-22.3
		c2.9-7.7,11.3-13.1,19.5-12.5C201.5,41.1,187,23.1,165,13.5z"/>
	<g>
		<path fill="#FFFEF3" d="M59.5,103c2.6,4.8,8.1,8.4,13.4,9.5c1.4,0.3,3.4,0.5,5.6,0.6l0,0c0.1,0,0.7-1.3,0.8-1.3
			c5.1,0.2,13.1-2.1,13.1-2c0,0,0,0,0,0c0.1-0.5,2.1-8.3-2.3-15.7c-0.1-0.2-0.3-0.4-0.4-0.7c-0.3-0.5-0.7-1-1-1.4
			c-0.3-0.5-0.7-0.9-1.1-1.4c-2.8-3.3-6.4-5.9-10.6-6.9c-5.3-1.3-11.3,0.2-15.1,4.1C58,91.8,56.9,98.2,59.5,103z"/>
		<path fill="#97241F" d="M69.5,101.4c0.2,5.6,4,10.1,8.9,11.7l0,0c0.1,0,0.3,0,0.4,0c5.1,0.2,11.1-0.5,13.4-3.3c0,0,0,0,0,0
			c0.4-2.4,1.3-9.6-2.3-15.7c-0.1-0.2-0.3-0.4-0.4-0.7c-0.3-0.5-0.7-1-1-1.4c-0.3-0.5-0.7-0.9-1.1-1.4c-0.8-0.9-1.6-1.7-2.4-2.5
			c-1-0.2-2.1-0.3-3.2-0.3C74.7,88.2,69.2,94.3,69.5,101.4z"/>
		<path fill="#FFFEF3" d="M111.1,113.8c-0.1-11.8,8.6-23.2,20-26.4c11.4-3.1,24.6,2.2,30.6,12.4c-1,10.9-9.1,19.7-19.3,23.5
			C132.2,127.1,115.3,123.3,111.1,113.8z"/>
		<path fill="#97241F" d="M128.3,101.9c-1.7,9.5,6.9,17.4,16.3,14.9c4.7-1.3,8.4-5.3,9.2-10.1c1.7-9.5-6.9-17.4-16.3-14.9
			C132.8,93.1,129.1,97.1,128.3,101.9z"/>
		<path fill="#3E1211" d="M133.1,103c-0.8,5.7,4.2,10.3,9.8,9c3.1-0.7,5.6-3.4,6-6.6c0.8-5.7-4.2-10.3-9.8-9
			C136,97.2,133.5,99.9,133.1,103z"/>
		<path fill="#173861" d="M111.1,113.8c0.7-5.9,3.2-11.3,6.8-15.6c1.8-2.1,3.9-4.1,6.2-5.6c2.3-1.5,4.8-2.7,7.4-3.4
			c2.6-0.8,5.4-1,8.2-0.9c2.8,0.1,5.5,0.7,8.2,1.6c5.3,1.9,10.2,5.2,13.8,9.9c-2.3-5.5-7.1-10-12.7-12.6c-2.8-1.3-5.9-2.1-9-2.4
			c-3.1-0.3-6.3,0-9.4,0.8c-3.1,0.9-5.9,2.3-8.5,4.1c-2.5,1.9-4.7,4.1-6.5,6.7C112.2,101.5,110.3,107.8,111.1,113.8z"/>
		<path fill="#3E1211" d="M74.5,99.6c-0.8,5.7,4.2,10.3,9.8,9c3.1-0.7,5.6-3.4,6-6.6c0.8-5.7-4.2-10.3-9.8-9
			C77.4,93.8,75,96.5,74.5,99.6z"/>
		<path fill="#FFFEF3" d="M71.6,100.1c-0.8,2.8,1.9,5.2,4.6,4.2c1-0.4,1.8-1.2,2-2.2c0.8-2.8-1.9-5.2-4.6-4.2
			C72.7,98.2,71.9,99.1,71.6,100.1z"/>
		<path fill="#FFFEF3" d="M82.5,94.6c-0.6,3.3,2.3,6.1,5.5,5.3c1.6-0.4,2.9-1.8,3.3-3.4c0.6-3.3-2.3-6.1-5.5-5.3
			C84.1,91.6,82.8,93,82.5,94.6z"/>
		<path fill="#173861" d="M92.3,109.9c2-5.2,1.7-11.5-1.2-16.7c-1.4-2.6-3.3-4.8-5.5-6.8c-2.2-1.9-4.9-3.5-7.9-4.3
			c-5.9-1.5-12.6,0.1-16.8,4.7c-2.1,2.3-3.3,5.2-3.6,8.1c-0.3,2.9,0.4,5.9,2.1,8.2c-1.9-5.3-0.1-11,3.5-14.3
			c3.7-3.3,9.1-4.3,13.8-3.1c2.4,0.6,4.6,1.8,6.6,3.4c2,1.6,3.8,3.5,5.3,5.7C91.6,98.9,92.8,104.4,92.3,109.9z"/>
		<path fill="#FFFEF3" d="M130.2,103.5c-0.8,2.8,1.9,5.2,4.6,4.2c1-0.4,1.8-1.2,2-2.2c0.8-2.8-1.9-5.2-4.6-4.2
			C131.2,101.6,130.4,102.5,130.2,103.5z"/>
		<path fill="#FFFEF3" d="M148.9,97c-0.6,3.3,2.3,6.1,5.5,5.3c1.6-0.4,2.9-1.8,3.3-3.4c0.6-3.3-2.3-6.1-5.5-5.3
			C150.5,94,149.2,95.4,148.9,97z"/>
	</g>
	<path fill="#3E1211" d="M44.1,188.9c-42.6,5.8-49.1,44.5-41.3,75.9c9,36.4,40.9,43.6,57.3,39.4c16.4-4.3,51.4-23.1,38.9-71.7
		C86.6,183.9,52,187.9,44.1,188.9z"/>
	<path fill="#F79327" d="M45.1,196.9c-36.7,5-42.3,38.4-35.6,65.4c7.8,31.3,35.2,37.6,49.4,33.9c14.2-3.7,44.3-19.9,33.5-61.8
		C81.6,192.6,51.8,196,45.1,196.9z"/>
	<path fill="#3E1211" d="M48,222.6c-17.8,2.4-20.6,18.6-17.3,31.8c3.8,15.2,17.1,18.3,24,16.5c6.9-1.8,21.5-9.7,16.3-30
		C65.8,220.5,51.3,222.1,48,222.6z"/>
	<path fill="#57220E" d="M95.6,267c-2.2-1.1-4.3-3.7-3.1-5.9c0.5-0.9,1.3-1.4,2.2-1.9c4.2-2.5,18.9-10.3,20.1-0.5
		C115.9,267.7,101.4,270,95.6,267z"/>
	<path fill="#F79D67" d="M104.2,224.6l-7.8,15.6L80,240.7l-1.6,21.7c0,0,17.9,5.4,29.7-1.7c11.8-7,16.9-27.7,16.9-27.7L104.2,224.6z
		"/>
	<path fill="#29B686" d="M130.8,200.9c11.3,7.2-8,46.7-8,46.7L98,233.2C98,233.2,112.4,189.3,130.8,200.9z"/>
	<path fill="#59BF93" d="M110.7,216.5c-1.8,4.5-2.8,9.6-3.9,14.3c-0.3,1.4-0.6,2.8-0.9,4.2l-4.9-2.8c3-8.5,10.3-24.4,18.6-29.2
		C116.1,207,112.7,211.3,110.7,216.5z"/>
	<path fill="#EB5440" d="M79.3,265.9c4.2-8.2,4.6-18.1,4.2-27.3c-5.9-0.8-12.3-1.2-18.2-1.3c0.1-2.1-1.4-4.6-3.5-5
		c-2-0.3-4.2,1-4.8,3c-2.5-0.2-5.7-0.1-7.9,1.2c-2.2,1.3-3.3,4.6-1.6,6.5c-2.8,2.2-3.5,6.7-1.1,9.4c-1.3,1.3-1.9,3.1-1.6,4.9
		c0.3,1.9,1.5,3.8,3.3,4.4C55.6,264.1,67.9,265,79.3,265.9z"/>
	<path fill="#D42F28" d="M51.7,252.4c2.8-0.9,4.2-3.6,3-6.2c0.5,0.5,3.2-2.8,3.5-3.5c0.4-0.6,0.2-1.5-0.2-2.1
		c-0.4-0.6-1-1.1-1.6-1.5c2.1-0.2,4.2,0.2,6,1.1c-2.3,3.1-2,7.2,2.2,11.9c-2-2.3-7.3,7.7-7.5,8.8C57.6,257.4,55.2,252.8,51.7,252.4z
		"/>
	<path fill="#FDD0B2" d="M199.6,122.1c15.9-14.3,37.7-22.1,42,0.9c4.3,23-29.5,65.4-63.7,41.6C162.4,153.8,190.5,130.3,199.6,122.1z
		"/>
	<path fill="#F79D67" d="M229,121.6c-11.2-5.3-28.7,13.4-31.9,22.8c-3.2,9.4-4.1,17.6,7.6,16.3c11.7-1.3,19.7-12.2,16.2-21.9
		c-3.5-9.7-17,2.6-17,2.6s7.8-13.3,14.3-16.8C224.6,121,229,121.6,229,121.6z"/>
	<polygon fill="#57220E" points="92.1,280.6 84.8,275.1 66.6,285.9 72.2,293.1 	"/>
	<path fill="#57220E" d="M94.2,302.5L74.6,324l25.2,22.3c0,0-5.5,18,6.1,7.9c11.6-10.1,19.6-21.5,19.6-21.5L94.2,302.5z"/>
	<path fill="#673012" d="M162.7,281.8c-17,26.5-67.9,69-67.9,69l-16-17.2l45.7-45.9l-5.3-2.3l-25,17.1l-14.8,17.8l0,0
		c-3.9-2.4-15.7-16.6-12.3-27.2c1.4-4.4,40.8-26.7,40.8-26.7l21.3-3.9l31.4,12.2C160.6,274.6,163.7,280.3,162.7,281.8z"/>
	<path fill="#59BF93" d="M162.7,281.8c14.7-23.7,23.7-49.1,26.2-76.9c-11.1-10.7-28.4-14.6-43-9.7c-6.1-1.3-21,27.3-26.1,30.9
		c-6.6,22.3-5.4,17.9-11.9,40.2C126.7,267.8,145.9,273,162.7,281.8z"/>
	<path opacity="0.35" fill="#9F9D99" d="M47,376c0,3,22.5,5.3,50.3,5.3c27.8,0,50.3-2.4,50.3-5.3c0-3-22.5-5.3-50.3-5.3
		C69.5,370.7,47,373.1,47,376z"/>
	<path fill="#57220E" d="M105.3,347.1l-21.7-21.8l-23.6,24c0,0-17.7-6.5-8.2,5.7c9.4,12.2,20.4,20.7,20.4,20.7L105.3,347.1z"/>
	<polygon fill="#57220E" points="151.5,303 137.8,293 118,318.3 131.1,326.7 	"/>
	<path fill="#673012" d="M91.8,240.4l4.9-0.7l11.4,21c-1.6,1.3-3.5,2.5-5.9,2.5L91.8,240.4z"/>
	<path fill="#29B686" d="M148.4,275.4c0.1-0.2,0.1-0.4,0.2-0.5c3.9-9.7,8.7-19,14.2-27.8c2-3.2,5-6.7,8.7-5.9
		c3.5,0.7,4.9,4.9,5.2,8.5c0.1,1.6,0.1,3.2,0,4.8c-3.9,9.4-8.6,18.5-14.1,27.4C158.1,279.4,153.3,277.3,148.4,275.4z"/>
	<path fill="#29B686" d="M136.6,241.2c1.3,7.1,12,5.2,11-1.5c-0.4-2.9-3.4-5.2-6.3-4.8C138.4,235.3,136.1,238.4,136.6,241.2z"/>
	<path fill="#29B686" d="M134.1,252.1c1.3,7.1,12,5.2,11-1.5c-0.4-2.9-3.4-5.2-6.3-4.8C135.8,246.2,133.6,249.2,134.1,252.1z"/>
	<path fill="#29B686" d="M125.3,240.3c1.3,7.1,12,5.2,11-1.5c-0.4-2.9-3.4-5.2-6.3-4.8C127.1,234.4,124.8,237.4,125.3,240.3z"/>
	<path fill="#29B686" d="M122.4,250.8c1.3,7.1,12,5.2,11-1.5c-0.4-2.9-3.4-5.2-6.3-4.8C124.2,244.9,121.9,248,122.4,250.8z"/>
	<path fill="#29B686" d="M138.1,219.3c-1.7,2-3.2,4.2-5.6,5.4c-2.4,1.2-5.3,1.7-7.9,1.9c-0.5,0-5,0.3-4.7-0.5
		c2.2-7.5,5.7-19.3,8-26.8c5.1-3.6,12.1-5.4,18.1-4.1c14.6-4.9,31.9-1.1,43,9.7c-0.2,2.3-0.5,4.5-0.8,6.8
		c-8.2,10-21.1,17.5-33.6,17.2C147.8,228.8,140.7,225.5,138.1,219.3z"/>
	<polygon fill="#29B686" points="155.1,198.2 156.5,186.2 145.7,189.5 142.3,194.4 138.5,190.3 134,191 139.5,200.6 	"/>
	<path fill="#D42F28" d="M112.2,36.2c-1.1,2.5-11.3,23.9-11.3,23.9l-9.8-23.2L112.2,36.2z"/>
	<path fill="#F79D67" d="M106.5,153.9c0.1,0.9,1.7,1.5,4.2,1.2c2.5-0.3,5.8-1.9,8.4-4.8c2.6-2.9,3.7-6.4,3.8-8.9
		c0.1-2.7-0.8-3.9-1.7-4c-1.8,0.1-3.2,4.6-6.9,8.6c-1.8,2-3.7,3.6-5.2,4.8C107.5,152.1,106.3,153,106.5,153.9z"/>
	<path fill="#F9A943" d="M116,79.7c-0.6-2.5-2-4.5-2.6-7c16.4-10,37-12.7,55.4-7.1c0.1,4.2-0.9,8.8-2.8,12.6
		C149.2,77.2,132.9,78.6,116,79.7z"/>
	<path fill="#F9A943" d="M55.2,75.1c0.2-2.4,0.3-4.8,0.5-7.3c11.6-3.8,25.5-1.4,35.9,4.9c-0.5,3-1.1,5.9-1.6,8.9
		c-6.1-0.7-12.1-3-18-4.8C66.1,75.1,55.2,75.1,55.2,75.1z"/>
	<path fill="#D42F28" d="M225,226.2c2.6,3.1,3.3,7.3,3.3,11.2c0,3.6-0.9,7.8-4.2,9.1c-2.6,1.1-5.7-0.3-7.6-2.4
		c-1.8-2.2-2.6-5-3.4-7.7C211.2,228.5,216.4,216,225,226.2z"/>
	<path fill="#FDD0B2" d="M182.9,230.7l15.2,10.1l-1.6,17.1l22.3,4.4c0,0,7.8-17.8,2.1-30.9c-5.8-13.1-26.5-21.1-26.5-21.1
		L182.9,230.7z"/>
	<path fill="#D42F28" d="M222.4,261.7c-8-5.4-18.1-7.1-27.7-7.9c-1.6,6-2.8,12.5-3.7,18.7c-2.1-0.4-5,0.9-5.6,2.9
		c-0.6,2.1,0.5,4.5,2.5,5.3c-0.6,2.6-0.9,5.9,0.2,8.3c1.1,2.4,4.3,4,6.5,2.5c1.9,3.2,6.5,4.5,9.6,2.4c1.2,1.6,3,2.3,4.9,2.3
		c2-0.1,4.1-1,4.9-2.8C217.5,286,220,273.4,222.4,261.7z"/>
	<path fill="#EB5440" d="M222.7,238.3l-25.1,7.6l0.5-5.1l23.2-8.2C222,234.4,222.4,236.3,222.7,238.3z"/>
	<path fill="#29B686" d="M158.3,199.4c11.1-15.2,47.3,14.2,47.3,14.2l-18.1,23.8C187.5,237.5,145,217.7,158.3,199.4z"/>
	<path fill="#59BF93" d="M172.8,204.2c-3.8-1.6-7.7-3.1-11.6-4.4c1.6-1.5,3.7-2.3,6.6-2.3c11.5,0,28.7,12.3,34.4,16.6l-4.6,6.1
		C190.7,213.1,181.9,208.1,172.8,204.2z"/>
	<path fill="#EB5440" d="M169,277.3c0,0-23.1-14.7-59.2-17.7l-3.4,7.6c0,0,39.1,8.3,58.9,16.9L169,277.3z"/>
	<path fill="#29B686" d="M77,18.7c0.5-0.3,1-0.7,1.6-1c-4.1,5.3-7.5,11.1-10,17.2c1-1.2,3-1.7,4.5-1c2.1,1.1,3,3.7,2.6,6.1
		c-0.4,2.3-1.8,4.3-3.4,6.1c-1.6,1.8-3.5,3.6-5.9,4c-2.4,0.4-5.2-1.4-5-3.9C57.9,52,55,58.1,52.5,64.4C55.1,47.1,61.8,29.1,77,18.7z
		"/>
</g>
</svg>
