<svg id="Layer_1" data-name="Layer 1" xmlns="http://www.w3.org/2000/svg" viewBox="0 0 126.7 187.11"><title>citoyen</title><path d="M98.69,49.61c3.76-2.06,8.31-2.51,7.58,6.67s-5.64,18-9.27,16S98.69,49.61,98.69,49.61Z" fill="#f79d67"/><path d="M52.84,104.09c1-3.4,1.94-6.79,3-10.19-2.57-.29-5-.1-7.6-.39l.87,9.32A13.66,13.66,0,0,0,52.84,104.09Z" fill="#f79d67"/><path d="M96.58,27.19c2.4,20,12.3,71.32-35.31,70.4C2.74,96.46,5.65,35.94,5.65,35.94L42.21,7.33,94.05,21.26Z" fill="#fdd4b6"/><path d="M97.44,33.86a44.1,44.1,0,0,0-4.92-2.44,79.93,79.93,0,0,0-62.35.26c-2.55,1.11-5.13,2.43-6.83,4.63-4.22,5.48-1.24,13.36,1.87,19.54l5,7.87a32.81,32.81,0,0,0,31.49,6.35c4.69-1.58,9.1-4.26,14-4.73,3.34-.31,6.69.42,10,.53a23.47,23.47,0,0,0,13-3.28C99.64,52.46,98.48,42,97.44,33.86Z" fill="#f79d67"/><path d="M73.79,74.29c.15-.2.71-.07,1.55.16A3.17,3.17,0,0,0,78.25,74a6.81,6.81,0,0,0,1.94-4.28,9.64,9.64,0,0,0,.06-1.42c0-.25,0-.36,0-.55s-.07-.28-.1-.41l0-.23,0,0h0s0-.14,0,.12h0l0,0C80,67,80,67,79.72,66.9a2.92,2.92,0,0,0-1.18-.07,14.09,14.09,0,0,0-3.7,1L73,68.59l-.44-1.85c-1.89-8-2.76-14.08-2-14.28s3,5.53,5.19,13.45l-2.3-1.09a15.15,15.15,0,0,1,4.79-1.39,6.1,6.1,0,0,1,2.61.27,3.88,3.88,0,0,1,1.38.82c.2.21.39.43.57.65s.24.48.35.73l.07.18,0,0h0l0,.14h0v.06l0,.22c0,.16.06.27.09.47a10.83,10.83,0,0,1,.07,1.22,10.54,10.54,0,0,1-.23,2,10.18,10.18,0,0,1-1.34,3.41,6.27,6.27,0,0,1-2.43,2.39,4.88,4.88,0,0,1-1.51.5,5.16,5.16,0,0,1-1.39-.07,5.07,5.07,0,0,1-1.85-.84C74,75,73.66,74.47,73.79,74.29Z" fill="#f79d67"/><path d="M37.94,74.29a3.65,3.65,0,0,1-3.77,1.11,11,11,0,0,1-3.65-2l-5.25-3.77a18.24,18.24,0,0,1-4.66-4.26c-4.1-6,3.82-11.9,8.88-7.6C30.9,59,37.93,74.3,37.94,74.29Z" fill="#f9a943"/><path d="M17.63,61.63a38.41,38.41,0,0,0,14.19,2.51S58,77.54,72.07,61.86c0,0,17.52,6,28.23-4.1,0,0,6.4-35.65-13.19-49s-56.06-10.54-72.74,3S6.88,59.35,7.6,61.55,17.63,61.63,17.63,61.63Z" fill="#59bf93"/><path d="M40.31,7.08c6.28-2.74,13.75-4.26,21.25-5.43-2.45-.23-5-.36-7.52-.36-15.29,0-30.18,4.37-38.85,11.4-16,13-7.08,46-6.4,48.33a4.72,4.72,0,0,0,1.84.24,37.61,37.61,0,0,0,6.71-.89l.38-.08.37.13a37,37,0,0,0,13.2,2.43h.83l.29.15a54.9,54.9,0,0,0,18.11,5.07,94.25,94.25,0,0,1-27.83-17A10.44,10.44,0,0,0,26,39.41a10.43,10.43,0,0,0-10.23-6.53C21.18,21.54,28.81,12.1,40.31,7.08Z" fill="#29b686"/><path d="M95.57,54a10.75,10.75,0,0,1-7,5,20.69,20.69,0,0,1-2.92.33h0c-.07,0-.34-.67-.42-.67a29.81,29.81,0,0,1-6.84-1.06h0a11.33,11.33,0,0,1,1.2-8.21l.22-.35c.17-.26.35-.5.53-.75s.38-.49.58-.72a10.6,10.6,0,0,1,5.53-3.62A8.45,8.45,0,0,1,94.32,46,7,7,0,0,1,95.57,54Z" fill="#fffef3"/><path d="M90.3,53.11a6.79,6.79,0,0,1-4.68,6.15h-.23c-2.65.09-5.81-.24-7-1.74h0a12.43,12.43,0,0,1,1.2-8.21l.22-.35c.17-.26.35-.5.53-.75s.38-.49.58-.72a12.08,12.08,0,0,1,1.28-1.3A6.66,6.66,0,0,1,83.83,46,6.78,6.78,0,0,1,90.3,53.11Z" fill="#97241f"/><path d="M68.5,59.58A14.67,14.67,0,0,0,58,45.78,14.67,14.67,0,0,0,42,52.3c.55,5.68,4.76,10.32,10.12,12.28S66.32,64.56,68.5,59.58Z" fill="#fffef3"/><path d="M59.54,53.34A6.8,6.8,0,0,1,51,61.13a6.72,6.72,0,0,1-4.83-5.27,6.8,6.8,0,0,1,8.51-7.8A6.73,6.73,0,0,1,59.54,53.34Z" fill="#97241f"/><path d="M57,54a4.2,4.2,0,1,1-3.15-3.44A4.2,4.2,0,0,1,57,54Z" fill="#3e1211"/><path d="M68.5,59.58a15.86,15.86,0,0,0-3.57-8.15,15.26,15.26,0,0,0-3.25-2.92,13,13,0,0,0-3.9-1.79,12.74,12.74,0,0,0-4.27-.45,15.13,15.13,0,0,0-4.28.85A15.87,15.87,0,0,0,42,52.3a13,13,0,0,1,6.68-6.58,14.64,14.64,0,0,1,4.71-1.28,14,14,0,0,1,4.91.41A14.2,14.2,0,0,1,62.73,47a14.86,14.86,0,0,1,3.39,3.51A13,13,0,0,1,68.5,59.58Z" fill="#173861"/><path d="M87.68,52.17a4.2,4.2,0,1,1-3.15-3.44A4.2,4.2,0,0,1,87.68,52.17Z" fill="#3e1211"/><path d="M89.2,52.41a1.81,1.81,0,0,1-2.39,2.19,1.73,1.73,0,0,1-1.06-1.16,1.81,1.81,0,0,1,2.39-2.19A1.78,1.78,0,0,1,89.2,52.41Z" fill="#fffef3"/><path d="M83.5,49.54a2.35,2.35,0,0,1-2.89,2.75,2.32,2.32,0,0,1-1.7-1.79,2.35,2.35,0,0,1,2.89-2.75A2.32,2.32,0,0,1,83.5,49.54Z" fill="#fffef3"/><path d="M78.35,57.53A10.43,10.43,0,0,1,79,48.79a13.67,13.67,0,0,1,2.87-3.57A10.49,10.49,0,0,1,86,43a9,9,0,0,1,8.8,2.44,7.39,7.39,0,0,1,1.87,4.25A6.18,6.18,0,0,1,95.57,54a7,7,0,0,0-1.85-7.46,8,8,0,0,0-7.25-1.64A9,9,0,0,0,83,46.63a13.9,13.9,0,0,0-2.76,3A12,12,0,0,0,78.35,57.53Z" fill="#173861"/><path d="M58.54,54.2a1.8,1.8,0,0,1-2.39,2.18,1.73,1.73,0,0,1-1.06-1.16A1.8,1.8,0,0,1,57.48,53,1.76,1.76,0,0,1,58.54,54.2Z" fill="#fffef3"/><path d="M48.74,50.81A2.35,2.35,0,1,1,47,49,2.36,2.36,0,0,1,48.74,50.81Z" fill="#fffef3"/><path d="M103.59,98.93c22.31,3,25.7,23.3,21.62,39.75-4.73,19-21.42,22.86-30,20.63S68.3,147.23,74.83,121.76,99.49,98.37,103.59,98.93Z" fill="#3e1211"/><path d="M103.1,103.12c19.23,2.63,22.15,20.09,18.63,34.26-4.07,16.41-18.45,19.7-25.87,17.77S72.69,144.74,78.32,122.8,99.57,102.64,103.1,103.12Z" fill="#f79327"/><path d="M101.54,116.56c9.35,1.28,10.77,9.76,9.06,16.65-2,8-9,9.57-12.57,8.63s-11.26-5.06-8.53-15.72S99.83,116.32,101.54,116.56Z" fill="#3e1211"/><path d="M76.65,139.8c1.16-.6,2.26-2,1.63-3.11a2.72,2.72,0,0,0-1.13-1c-2.23-1.29-9.91-5.37-10.53-.28C66,140.18,73.6,141.36,76.65,139.8Z" fill="#57220e"/><path d="M72.13,117.63l4.08,8.19,8.6.23.82,11.38s-9.36,2.8-15.53-.88S61.24,122,61.24,122Z" fill="#f79d67"/><path d="M58.22,105.21c-5.93,3.76,4.16,24.46,4.16,24.46l13-7.54S67.82,99.11,58.22,105.21Z" fill="#29b686"/><path d="M68.73,113.35a53.66,53.66,0,0,1,2.06,7.5c.16.72.32,1.45.47,2.18l2.55-1.48c-1.59-4.43-5.37-12.76-9.76-15.31A24.72,24.72,0,0,1,68.73,113.35Z" fill="#59bf93"/><path d="M85.18,139.23c-2.2-4.31-2.42-9.48-2.21-14.31a78.32,78.32,0,0,1,9.55-.67,2.61,2.61,0,0,1,1.82-2.59,2.28,2.28,0,0,1,2.49,1.57,7,7,0,0,1,4.12.64c1.13.69,1.73,2.39.86,3.39a3.52,3.52,0,0,1,.58,4.93,3,3,0,0,1-.87,4.88C97.59,138.31,91.12,138.76,85.18,139.23Z" fill="#eb5440"/><path d="M99.65,132.15a2.34,2.34,0,0,1-1.56-3.26c-.27.28-1.66-1.49-1.86-1.82a1.06,1.06,0,0,1,.09-1.11,3.09,3.09,0,0,1,.85-.8,6,6,0,0,0-3.15.6c1.23,1.64,1.06,3.77-1.16,6.23,1.07-1.18,3.85,4,3.93,4.6C96.52,134.76,97.82,132.38,99.65,132.15Z" fill="#d42f28"/><path d="M22.18,63.91c-8.33-7.49-19.74-11.57-22,.45S15.65,98.63,33.54,86.17C41.64,80.53,27,68.22,22.18,63.91Z" fill="#fdd0b2"/><path d="M6.81,63.66c5.88-2.78,15,7,16.7,12s2.17,9.22-4,8.54-10.3-6.41-8.46-11.47S20,74,20,74s-4.1-7-7.5-8.79S6.81,63.66,6.81,63.66Z" fill="#f79d67"/><polygon points="78.47 146.91 82.29 144.04 91.84 149.69 88.89 153.48 78.47 146.91" fill="#57220e"/><path d="M77.39,158.4l10.23,11.27L74.41,181.35s2.9,9.42-3.2,4.16a70,70,0,0,1-10.28-11.24Z" fill="#57220e"/><path d="M41.53,147.59c8.9,13.88,35.55,36.13,35.55,36.13l8.39-9L61.52,150.64l2.79-1.19,13.08,9,7.75,9.32h0c2-1.25,8.21-8.68,6.44-14.24-.73-2.3-21.35-14-21.35-14l-11.17-2.06-16.45,6.39S41,146.76,41.53,147.59Z" fill="#673012"/><path d="M41.53,147.59A91,91,0,0,1,27.8,107.32a22.68,22.68,0,0,1,22.52-5.07c3.17-.7,11,14.32,13.66,16.18,3.44,11.69,2.81,9.36,6.25,21A74.18,74.18,0,0,0,41.53,147.59Z" fill="#59bf93"/><polygon points="47.4 158.68 54.57 153.43 64.9 166.68 58.04 171.05 47.4 158.68" fill="#57220e"/><path d="M78.61,125.88l-2.55-.35-6,11a4.87,4.87,0,0,0,3.09,1.29Z" fill="#673012"/><path d="M49,144.22c0-.09-.08-.19-.11-.28a92.48,92.48,0,0,0-7.45-14.56c-1-1.66-2.63-3.5-4.55-3.09s-2.59,2.59-2.73,4.46a18.81,18.81,0,0,0,0,2.49,98.31,98.31,0,0,0,7.37,14.35A67,67,0,0,1,49,144.22Z" fill="#29b686"/><path d="M55.16,126.32c-.66,3.71-6.26,2.73-5.74-.79a3.08,3.08,0,0,1,3.3-2.51A3,3,0,0,1,55.16,126.32Z" fill="#29b686"/><path d="M56.5,132c-.66,3.71-6.27,2.73-5.74-.79a3.07,3.07,0,0,1,3.3-2.51A3,3,0,0,1,56.5,132Z" fill="#29b686"/><path d="M61.07,125.83c-.65,3.72-6.26,2.73-5.73-.79a3.06,3.06,0,0,1,3.29-2.51A3,3,0,0,1,61.07,125.83Z" fill="#29b686"/><path d="M62.61,131.35c-.66,3.71-6.27,2.73-5.74-.8a3.07,3.07,0,0,1,3.29-2.5A3,3,0,0,1,62.61,131.35Z" fill="#29b686"/><path d="M54.41,114.84a10.42,10.42,0,0,0,2.93,2.84,11.4,11.4,0,0,0,4.16,1c.23,0,2.6.16,2.48-.26-1.17-3.94-3-10.11-4.17-14a12.53,12.53,0,0,0-9.49-2.14,22.68,22.68,0,0,0-22.52,5.07c.11,1.2.25,2.38.4,3.56,4.27,5.22,11.05,9.19,17.61,9C49.32,119.79,53,118.06,54.41,114.84Z" fill="#29b686"/><polygon points="45.46 103.77 44.74 97.48 50.43 99.22 52.17 101.78 54.16 99.66 56.54 100 53.63 105.02 45.46 103.77" fill="#29b686"/><path d="M67.93,19c.58,1.32,5.89,12.5,5.89,12.5L79,19.33Z" fill="#d42f28"/><path d="M71,80.6c-.06.45-.88.81-2.2.63a7.89,7.89,0,0,1-6.38-7.18c0-1.41.44-2,.88-2.11,1,0,1.7,2.42,3.64,4.52A23.07,23.07,0,0,0,69.65,79C70.43,79.63,71,80.12,71,80.6Z" fill="#f79d67"/><path d="M65.94,41.71c.33-1.32,1-2.35,1.37-3.67a36.19,36.19,0,0,0-29-3.75,14.25,14.25,0,0,0,1.45,6.58C48.6,40.43,57.1,41.15,65.94,41.71Z" fill="#f9a943"/><path d="M97.79,39.31c-.09-1.27-.16-2.54-.26-3.8-6.06-2-13.35-.75-18.8,2.57l.84,4.64c3.22-.37,6.33-1.58,9.44-2.49A42.23,42.23,0,0,1,97.79,39.31Z" fill="#f9a943"/><path d="M8.87,118.47a9.14,9.14,0,0,0-1.74,5.88c0,1.87.45,4.08,2.17,4.79a3.61,3.61,0,0,0,4-1.27A10.14,10.14,0,0,0,15,123.81C16.12,119.67,13.36,113.11,8.87,118.47Z" fill="#d42f28"/><path d="M30.93,120.79l-8,5.26.86,8.93-11.66,2.31S8.07,128,11.09,121.1s13.87-11,13.87-11Z" fill="#fdd0b2"/><path d="M10.25,137.05c4.18-2.82,9.49-3.72,14.52-4.11a81,81,0,0,1,1.92,9.79,2.71,2.71,0,0,1,2.91,1.55,2.38,2.38,0,0,1-1.31,2.78,7.32,7.32,0,0,1-.12,4.35c-.58,1.26-2.26,2.09-3.41,1.32a3.66,3.66,0,0,1-5,1.23,3,3,0,0,1-2.57,1.19,2.94,2.94,0,0,1-2.59-1.47C12.79,149.78,11.5,143.14,10.25,137.05Z" fill="#d42f28"/><path d="M10.11,124.78l13.12,4L23,126.05l-12.14-4.29A13.83,13.83,0,0,0,10.11,124.78Z" fill="#eb5440"/><path d="M43.81,104.41C38,96.45,19,111.85,19,111.85l9.46,12.49S50.79,114,43.81,104.41Z" fill="#29b686"/><path d="M36.21,106.94c2-.85,4-1.61,6.08-2.31a4.7,4.7,0,0,0-3.44-1.21c-6,0-15,6.42-18,8.67l2.4,3.17A39.13,39.13,0,0,1,36.21,106.94Z" fill="#59bf93"/><path d="M38.2,145.19s12.08-7.72,31-9.27l1.78,4s-20.49,4.37-30.82,8.86Z" fill="#eb5440"/><path d="M86.38,9.79c-.26-.19-.54-.36-.82-.53a37.94,37.94,0,0,1,5.22,9,2.07,2.07,0,0,0-2.36-.5A3,3,0,0,0,87.08,21a6.91,6.91,0,0,0,1.76,3.19,5.42,5.42,0,0,0,3.08,2.1c1.25.19,2.73-.75,2.61-2A58.74,58.74,0,0,1,99.2,33.7C97.83,24.66,94.35,15.23,86.38,9.79Z" fill="#29b686"/></svg>