<svg xmlns="http://www.w3.org/2000/svg" viewBox="0 0 134.38 225.05"><title>collectivite</title><g><g id="Layer_1" data-name="Layer 1"><path d="M134.38,135c-5.14,10.54-17.71,21.36-33.47,16.7S62.77,140,46.38,146.53s-26.95,12-37.1,6L27.34,127V80.43L44.83,69l56.58,28.28c1.26.63,4.13,15.26,4.13,15.26s8.23,18.66,16.38,21.63S134.38,135,134.38,135Z" fill="#0a0b0a"/><path d="M112.81,104c-1.92,8.27-1.7,17.26,2,24.91s11.14,5.38,19.6,6.08c-3.65,3.29-9.67,2.85-14.24,1-11-4.38-19.07-6.93-20.08-18.72-.33-3.87.15-8.06,2.61-11.06S109.86,101.52,112.81,104Z" fill="#0a0b0a"/><polygon points="82.38 117.88 85.72 118.34 83.66 122.73 82.56 122.81 82.38 117.88" fill="#29b686"/><path d="M76.3,111.38l1,11.16a4.72,4.72,0,0,0,5.21.27L84,112.49Z" fill="#d07e5e"/><path d="M118.81,45.77C123.67,63.06,139,117,84.59,115.72S24.24,56.48,24.24,56.48L64.15,28.64l47.7,3.9Z" fill="#d07e5e"/><path d="M52.42,72.44l.47,5a27,27,0,0,0,45.34,4.81,22.76,22.76,0,0,0,22.46,2.48,21.65,21.65,0,0,0,3.76-2.18,77.41,77.41,0,0,0-.61-13.89C100.17,74.21,75.75,78.46,52.42,72.44Z" fill="#d88a6f"/><path d="M118.81,45.77l-7-13.23L67.06,28.88c-2,.62-4,1.27-6,1.91L40.85,44.9c-2.17,5.27-2.48,11.51-2.61,17.35l10.82,23.3c6.11-2,10.9-6.9,14-12.51S67.82,61.16,69.43,55a451.59,451.59,0,0,0,51.43-1.58C120.12,50.42,119.39,47.83,118.81,45.77Z" fill="#9a5b45"/><path d="M31.91,93.14c5.38-1.3,12.13-1.26,16.23-5a42.63,42.63,0,0,0,12.41-20c2.16-7.65,3-16.37,0-23.73-2.72-6.66-8.14-12-14.24-15.77s-12.92-6.34-19.68-8.83c-7.46,1.28-13.06,7.31-16.61,14-5.57,10.51-7,22.93-5.26,34.7a80.44,80.44,0,0,0,4,15.67c1.76,4.89,4.3,9.39,6.16,14.23a64,64,0,0,1,4.22,24.61c-.18,6.45-3.3,12.57-7.52,17.33-2.26,2.54-7.5,10-11.62,8.39,5.68,2.17,10.79,5,16.87,5.26s12.55-1.68,16.41-6.38c3.42-4.16,4.33-8.62,4.66-14,.81-13.16-1.18-19.34-5.79-31.7C31.08,99.12,30.62,95.91,31.91,93.14Z" fill="#0a0b0a"/><path d="M96.05,103.82c0,.44-1.06.85-2.79.73a12.18,12.18,0,0,1-10.07-8c-.55-1.72-.33-2.72.07-2.89.94-.23,2.53,3.06,5.93,5.66S96.07,102.86,96.05,103.82Z" fill="#9a5b45"/><path d="M26.63,19.86s-1.2-2.57,6.29-9.68C46.31-2.56,96.83-8.57,113.8,24.32l-2.83,14L60.36,43Z" fill="#0a0b0a"/><path d="M118.66,52.86a1.5,1.5,0,0,1-.13,1.55,5.1,5.1,0,0,1-2.07,1.8c-2,1.09-5,1.35-7.64,1.17L103,57a15.57,15.57,0,0,1-1.87-.15,2,2,0,0,1-1.44-.47,1.61,1.61,0,0,1-.28-1.52,5,5,0,0,1,1.78-2.27A9.43,9.43,0,0,1,104.83,51a15.86,15.86,0,0,1,4.37-.33,47.47,47.47,0,0,1,6.28.9C116.94,51.87,118.15,52.06,118.66,52.86Z" fill="#1a1c1d"/><path d="M72.61,122.73c.08-.36-3.2-.22-3.39-.18-3.33.69-5.08,4-7.62,5.94s-4.81,4-7.15,6-4.55,3.92-6.71,6c-.54.52-3.18,2.59-2.89,3.55.79,2.67,10.33,11.63,10.33,11.63l5.9-6.48-2.92-4.46s3.19-1.38-.38-1.89l12.16-9.28S72.59,122.79,72.61,122.73Z" fill="#59bf93"/><path d="M61.34,138.35A12.88,12.88,0,0,1,54.6,136c-2.13,1.84-4.08,3.55-6,5.38l-.48.43a11.36,11.36,0,0,0-2,2c.77,1.7,5.35,6.5,9,10l4.35-4.78-3.21-4.92.42-.18-2.1-.3,6.88-5.24Z" fill="#29b686"/><path d="M83.66,122.73c-.09-.36,3.2-.22,3.38-.18,3.33.69,5.08,4,7.63,5.94s4.8,4,7.15,6,4.55,3.92,6.7,6c.54.52,3.18,2.59,2.9,3.55-.8,2.67-10.34,11.63-10.34,11.63l-5.9-6.48,2.93-4.46s-3.19-1.38.38-1.89l-12.16-9.28S83.67,122.79,83.66,122.73Z" fill="#59bf93"/><path d="M108.11,141.85l-.48-.43c-1.53-1.5-3.11-2.91-4.8-4.37a12.14,12.14,0,0,1-3.24,1.56,11.85,11.85,0,0,1-3.9.5l6,4.57-2.1.3.42.18-3.22,4.92,4.36,4.78c3.62-3.47,8.2-8.27,9-10A11.18,11.18,0,0,0,108.11,141.85Z" fill="#29b686"/><path d="M103.65,158.13,94.76,147,91,153.08l2.19,17.76s8.77-1.33,4.07-7.33Z" fill="#ee3524"/><path d="M95.53,163.33,99.44,160a22.62,22.62,0,0,1-3.71-4.19,41.85,41.85,0,0,1-2.44-4l-.94,1.54,2,15.9c1.16-.36,2.59-1,3-2s-.35-2.12-1-3Z" fill="#df1f26"/><path d="M54.32,157.51,62,145.81l3.23,6.41-1.9,18.62s-7.58-1.39-3.52-7.68Z" fill="#ee3524"/><path d="M57.91,159.36,61.44,163l-.55.85c-.93,1.44-1.21,2.62-.82,3.51a3.91,3.91,0,0,0,2.16,1.8l1.63-16A67.25,67.25,0,0,1,57.91,159.36Z" fill="#df1f26"/><path d="M68,129.62,60,197.4l8.9.63,7.79-25.13,5.74-.15,7.49,22.5,9.65,1.54L86.64,126a4.55,4.55,0,0,0-3.12-3.51l-2.24-.7-8.67.91Z" fill="#59bf93"/><path d="M70.05,179.14a16.14,16.14,0,0,1-6.27-3.08l-2.4,20.16,6.55.47,5.36-17.29A11.21,11.21,0,0,1,70.05,179.14Z" fill="#29b686"/><path d="M90.15,181.64a9,9,0,0,1-3.53-.21l4.21,12.68,7.11,1.13-2.82-15.51A12,12,0,0,1,90.15,181.64Z" fill="#29b686"/><path d="M93,160.68l-.59-3.23c-9,2.31-18.45,2.14-27.79,1.22l-.31,2.66A77.29,77.29,0,0,0,93,160.68Z" fill="#29b686"/><polygon points="78.63 124.72 80.01 160.35 81.48 160.35 80.06 124.72 78.63 124.72" fill="#29b686"/><polygon points="80.88 155.2 79.07 159.09 74.83 159.81 77.98 162.74 77.35 167 81.11 164.91 84.96 166.82 84.13 162.6 87.14 159.52 82.87 159.01 80.88 155.2" fill="#df1f26"/><path d="M58,195.25l13.41,1.33-4,24.31h-12c-7,0,.47-3.78.47-3.78Z" fill="#ee3524"/><path d="M62.81,211.83a65.21,65.21,0,0,1-4.49-6.66L57.1,217.93l-.62.31a15.13,15.13,0,0,0-2.13,1.33,10.47,10.47,0,0,0,1.08,0H66.32l.52-3.19A42.7,42.7,0,0,1,62.81,211.83Z" fill="#df1f26"/><path d="M100.67,197.19l-12.74-4.41-6.55,23.75,10.87,5c6.32,2.92,1.17-3.63,1.17-3.63Z" fill="#ee3524"/><path d="M104.47,221.33c0,2-13,3.72-29,3.72s-29-1.67-29-3.72,13-3.73,29-3.73S104.47,219.27,104.47,221.33Z" fill="#9f9d99" opacity="0.35"/><path d="M92,218.15l4.48-12.82a3.9,3.9,0,0,1-.35.19c-3,1.6-5.83,3.36-8.74,5.1a27.27,27.27,0,0,1-3.53,1.8l-.94,3.41,9.89,4.55c.41.19.74.32,1,.42a15,15,0,0,0-1.38-2.1Z" fill="#df1f26"/><polygon points="78.44 117.36 73.55 117.42 74.97 122.55 77.35 122.55 78.44 117.36" fill="#29b686"/><path d="M84,122.72a3.59,3.59,0,0,0-.51-.2l-2.24-.7-7.67.81A9,9,0,0,0,78,126a5,5,0,0,0,6-3.3Z" fill="#29b686"/><path d="M46.49,84.52c-8.58-7-20-10.53-21.72,1.45s16.85,33.17,34,20C66.49,100.05,51.42,88.56,46.49,84.52Z" fill="#d07e5e"/><path d="M31.76,86c5.67-3,15.18,6.24,17.05,11s2.57,9-3.52,8.62S34.81,99.77,36.4,94.68s8.86.91,8.86.91-4.37-6.68-7.82-8.34S31.76,86,31.76,86Z" fill="#9a5b45"/><path d="M101.32,95.57c-.08-.23.29-.57.9-1.11a12.12,12.12,0,0,0,2.17-2.38,3.55,3.55,0,0,0,.46-3.52s0,0,0,0,0,0,0,0,0,0,0,0,0,0,0,0a3.25,3.25,0,0,0-.81.16,12.41,12.41,0,0,0-2.57,1.33c-.54.35-1.1.74-1.54,1.08L97.45,93l-.26-3c-.69-8.23-.6-14.65.26-14.73s2.17,6.2,3.07,14.41l-2.71-1.14a20,20,0,0,1,1.82-1.31,13.36,13.36,0,0,1,3.44-1.65,5.15,5.15,0,0,1,2.34-.17,3.13,3.13,0,0,1,2.26,1.85l.08.15v.06h0l0,.11v0l0,.18.09.35a6.49,6.49,0,0,1,.12,1.07,5.56,5.56,0,0,1-.27,1.8,6.62,6.62,0,0,1-1.58,2.56,7.79,7.79,0,0,1-3.4,2C101.93,95.85,101.4,95.78,101.32,95.57Z" fill="#9a5b45"/><path d="M48.94,56.9a25.93,25.93,0,0,0,19.65,5.75c3.51-.44,6.88-1.61,10.32-2.41S86,59,89.4,60s6.45,3.76,6.93,7.27c2.39-5.21,7.78-9.45,13.49-10a37.63,37.63,0,0,1,8.52.65,23.87,23.87,0,0,0,8.51.08,9.19,9.19,0,0,0,6.6-4.94c-.69,6.4-1.21,12.75-4.1,18.5s-7.62,10.8-13.68,13-13.47,1-17.87-3.68c-3.28,7.58-11.94,11.86-20.18,11.28S61.85,86.58,57,79.86,49.77,65.12,48.94,56.9Z" fill="#df1f26"/><path d="M66.22,72.44S82.7,55.53,91.93,78C91.93,78,77.18,88.79,66.22,72.44Z" fill="#fffef3"/><path d="M84.53,74.52a6.71,6.71,0,1,1-5.88-7.44A6.7,6.7,0,0,1,84.53,74.52Z" fill="#97241f"/><path d="M82,74.22a4.15,4.15,0,1,1-3.65-4.6A4.17,4.17,0,0,1,82,74.22Z" fill="#3e1211"/><path d="M83.52,74.34a1.78,1.78,0,1,1-1.56-2A1.78,1.78,0,0,1,83.52,74.34Z" fill="#fffef3"/><path d="M102.37,74.3c.31-4.7,8-17.15,15.92-7.75,0,0-.3,8.32-6.28,11.49S102.37,74.3,102.37,74.3Z" fill="#fffef3"/><path d="M107.87,66.22a6,6,0,0,0-1.27,0c-2.88,3-4.73,7.57-4.44,10.56a7.85,7.85,0,0,0,8.14,2,6.7,6.7,0,0,0-2.43-12.54Z" fill="#97241f"/><path d="M111.21,73.36a4.15,4.15,0,1,1-3.64-4.61A4.15,4.15,0,0,1,111.21,73.36Z" fill="#3e1211"/><path d="M112.73,73.48a1.77,1.77,0,1,1-1.55-2A1.78,1.78,0,0,1,112.73,73.48Z" fill="#fffef3"/><path d="M102.37,74.3a2.06,2.06,0,0,0,1.27-3.84,15.71,15.71,0,0,0-1.32,3.83Z" fill="#fffef3"/><path d="M91.94,78c-.47.2-1.47-1.4-3.18-3.7a21.71,21.71,0,0,0-3.27-3.59,12.13,12.13,0,0,0-2.21-1.55,10.46,10.46,0,0,0-2.62-.93A11.08,11.08,0,0,0,77.85,68a15.79,15.79,0,0,0-2.69.51,25.66,25.66,0,0,0-4.52,1.87c-2.54,1.32-4.08,2.36-4.42,2s.67-2,3.11-4a18.26,18.26,0,0,1,4.83-2.82,15.69,15.69,0,0,1,3.34-.86,12.91,12.91,0,0,1,3.81.12,12.09,12.09,0,0,1,3.59,1.36,13.62,13.62,0,0,1,2.72,2.16A16.64,16.64,0,0,1,90.8,73C92.12,75.87,92.33,77.79,91.94,78Z" fill="#3e1211"/><path d="M118.29,66.55c-.38.36-1.53-.65-3.38-1.36a5.41,5.41,0,0,0-3.09-.3,7.73,7.73,0,0,0-3.42,1.92,20.78,20.78,0,0,0-4.64,6.61c-.44,1-.73,1.8-1,2.35s-.39,1-.64,1-.5-.28-.67-1a7.92,7.92,0,0,1,0-3,15.16,15.16,0,0,1,4.68-8.46,9.32,9.32,0,0,1,5.25-2.48,7.23,7.23,0,0,1,2.67.28,6.94,6.94,0,0,1,2,1,6.78,6.78,0,0,1,2,2.25C118.4,66,118.47,66.4,118.29,66.55Z" fill="#3e1211"/><path d="M91.75,59.32c.23.89-.94,2.11-3.26,3a18.71,18.71,0,0,1-9.52.8c-.45-.07-.94-.17-1.41-.28s-.75-.19-1.27-.33c-.82-.25-1.55-.52-2.21-.77l-3.19-1.27c-.83-.33-1.55-.56-2.1-.81-.25-.15-.58-.23-.82-.36a1.21,1.21,0,0,1-.51-.52,1.19,1.19,0,0,1,0-.73,1.55,1.55,0,0,1,.51-.87,6,6,0,0,1,3.12-1.48,14.34,14.34,0,0,1,4.53,0c.78.1,1.54.24,2.28.37l2.19.38c3,.49,5.74.78,7.86,1.13S91.52,58.41,91.75,59.32Z" fill="#1a1c1d"/><path d="M24.25,24.69c-10.56,5.52-16,18-16.39,29.89s3.51,23.49,7.49,34.72,8.18,22.65,8.49,34.56-4,16.31-13.83,23c7.69-2.53,12.62-3,15.25-9.08.81,6.11-.59,4.43-2.48,8.75,7.45-4,7.79-4.81,7.86-13.25s-2.86-16.58-5.8-24.49-5.94-16-6-24.45S22.16,66.9,29.45,62.65a37.44,37.44,0,0,0-6.71,18.17,11.65,11.65,0,0,1,7.88-10.45,11.67,11.67,0,0,1,12.5,3.89,15.92,15.92,0,0,0-10.53-.2,20.87,20.87,0,0,1,15.09,7.63c2.39-7.13-2.87-15.77-10.3-16.91a7.83,7.83,0,0,1,8.46,1.73,32.15,32.15,0,0,1,1.79-28.83A27.56,27.56,0,0,0,39,55.46c-1-5.47-1.81-11.63-.13-16.93a43.29,43.29,0,0,0-5.73,14.25A52.2,52.2,0,0,1,36,34.32,65.26,65.26,0,0,0,17.11,69.58a65.18,65.18,0,0,1,8.24-34A27.87,27.87,0,0,0,14.51,49.3,30.94,30.94,0,0,1,35.57,26.62,25.35,25.35,0,0,0,15.26,37.55,20.61,20.61,0,0,1,24.25,24.69Z" fill="#1a1c1d"/><path d="M72.17,2.19a56.75,56.75,0,0,0-29.3,11.07A69.06,69.06,0,0,1,87.13,5.71a72.33,72.33,0,0,0-27.25,7.67,52.32,52.32,0,0,1,39.69,1.13A97.38,97.38,0,0,0,39.24,25.85,66.87,66.87,0,0,1,59,11.12a112.36,112.36,0,0,0-25.8,12,45.73,45.73,0,0,1,11.49-14c-4.31,2.6-8.59,5.64-13.12,7.82,6.64-8.47,13.86-10.7,17.54-12A50.28,50.28,0,0,1,72.17,2.19Z" fill="#1a1c1d"/><path d="M128.72,33.64A26.24,26.24,0,0,0,118.5,21.58S56.72,23.1,46.31,28.69c6.69,5,14.12,15.72,14.52,24.07,5.68-.77,11.35-1.36,17-1.81l.54-6a26.41,26.41,0,0,1,1.73,5.85l2.13-.16a27.22,27.22,0,0,0,.54-7.85q.72,3.3,1.43,6.6A14.7,14.7,0,0,0,85,42.14a25,25,0,0,1,2,8.2c5.08-.28,10.16-.46,15.25-.58a34.2,34.2,0,0,0,.14-10.25,58.11,58.11,0,0,1,2,10.2q7.23-.14,14.49-.14l2.86,0c.25-1.62.49-3.23.73-4.85a41.76,41.76,0,0,1,1.08,4.81c2.12-.06,4.23-.14,6.41-.24A25.77,25.77,0,0,0,128.72,33.64Z" fill="#0a0b0a"/><path d="M61.64,32.63c4,2.56,3,8.58,3.4,12.5,3.16,0,5,.28,6.8-2,1.39-1.74,2.21-4.59,2.79-6.49a16.21,16.21,0,0,1,1,5.82c1.38-2.07,2.21-4.76,4.06-6.62,1.29.9,1.68,2.62,2.14,4,2.77-1.89,2.82-3.07,6.75-2.69,1.35.13,3,.91,4.43.64,1.65-.32,3.1-2,4.6-2.76a9.19,9.19,0,0,1,8.81.17c3.31,1.63,3.34,4.24,3.49,7.3a36.62,36.62,0,0,0,4.48-6.4c1.55.9,1.76,3.62,2.08,5.25,3.39,0,4.46.22,5.23-2.9.6-2.4.84-5.32-.19-7.62a12.09,12.09,0,0,0-4.8-5c-2.84-1.65-4.27-1.13-7.51-.54,0,1.92.59,4.34-.12,6.11a15.21,15.21,0,0,0-3-3.87c-1,1.42-1.09,3.34-3,3.89-2.45.71-6.29-1.07-9.26,0-2.09.75-3.5,3.14-5.88,3.11-2.18,0-3.31-2.23-4.69-3.35-.87.77-.83,2.13-.88,3.3-1-2.45-2.51-5-5.48-5.93a6.84,6.84,0,0,1-.62,3.22,9.37,9.37,0,0,0-2.22-2.11c-1.61,1.6-2.45,3.55-3.88,5.25a6.34,6.34,0,0,0-1.46-3.32A17.25,17.25,0,0,1,61.64,32.63Z" fill="#1a1c1d"/><path d="M107.35,115.24a19.86,19.86,0,0,0,.06,7.49l-.13.22a17.54,17.54,0,0,0,6.14,7.79A67.47,67.47,0,0,1,107.35,115.24Z" fill="#1a1c1d"/></g></g></svg>