<svg xmlns="http://www.w3.org/2000/svg" viewBox="0 0 142.76 226.24"><title>crowdfunding</title><g><g id="Layer_1" data-name="Layer 1"><path d="M8.17,65.5C3.73,63.58-1.42,63.56.36,73.79s8.22,19.58,12.1,17S8.17,65.5,8.17,65.5Z" fill="#f4884d"/><path d="M72.66,136.13l10.75-.2,4.92,8.84,12.31-5.32s-2.16-11.28-9.36-15.72-19.94-1.36-19.94-1.36Z" fill="#f4884d"/><path d="M84.06,123a15.68,15.68,0,0,1,6.46,2c3.59,2.22,5.85,6.4,7.16,9.75C92.71,136.19,86.66,129.15,84.06,123Z" fill="#f6b38d"/><path d="M60.77,117.22a41.64,41.64,0,0,0-7.46,1q1,2.64,2.09,5.28c1.47.53,3.38-.54,4.34-1.77S60.4,118.74,60.77,117.22Z" fill="#2b8060"/><path d="M54.19,129c.29-11.1,27.78-8.94,27.78-8.94l-.8,17.65S53.85,142.38,54.19,129Z" fill="#2b8060"/><path d="M102.28,138c-5.69.05-11.2,2.61-16.13,5.46a93.7,93.7,0,0,0,4.49,10.33,3.07,3.07,0,0,0-1.72,3.3,2.7,2.7,0,0,0,3,1.75,8.28,8.28,0,0,0,2.9,4c1.34.8,3.44.5,4-1a4.13,4.13,0,0,0,5.45-2.06,3.42,3.42,0,0,0,3.16-.55,3.31,3.31,0,0,0,1.46-3C108.06,151.45,105,144.46,102.28,138Z" fill="#eb5440"/><path d="M102.75,157a2.77,2.77,0,0,0-4.25.13c.16-.43-2.45-.92-2.91-.94a1.26,1.26,0,0,0-1.11.69,3.77,3.77,0,0,0-.37,1.32,7.18,7.18,0,0,1-1.08-3.6c2.38.39,4.51-1,5.87-4.6-.65,1.76,6.29,1.82,6.93,1.6C103.78,152.26,102,154.91,102.75,157Z" fill="#d42f28"/><path d="M64.55,121.49s-13.2.86-14.75,2.51-1.67,49.5-1.67,49.5,22.25,4.17,40.66-6.47L73.45,124.37Z" fill="#59bf93"/><path d="M62.54,172.22c8.95-5.41,13.93-18.73,12.4-28.66a43.83,43.83,0,0,1-10.56,10.27,99.52,99.52,0,0,0,10-16.06A60.63,60.63,0,0,1,49.73,156c.19-14.25.59-28.56,1.25-31.08,1.43-.75,7.85-1.6,13.39-2l7.95,2.58L87,166.36c-8.77,4.76-18.33,6.18-25.61,6.44A9.54,9.54,0,0,0,62.54,172.22Z" fill="#29b686"/><path d="M50.06,170.48a22.51,22.51,0,0,0,4.25,2.23c-2.07-.12-3.71-.31-4.72-.45,0-.71,0-1.43,0-2.17A3.38,3.38,0,0,0,50.06,170.48Z" fill="#29b686"/><path d="M60.87,123.07c-1.52-3.71-2.91-7.42-4.42-11.13,2.86-.59,5.65-.64,8.5-1.24q0,5.28,0,10.56C63.7,121.86,62.24,122.9,60.87,123.07Z" fill="#f79d67"/><path d="M8.18,40.11c-.59,22.7-6.31,81.39,47.06,75.35,65.62-7.42,56-75.08,56-75.08L67.16,12.09,10.41,33.18Z" fill="#f6b38d"/><path d="M7.76,54.06C11.08,51,15.47,48.83,19.69,47c9.55-4.24,19.43-8.2,29.85-9.16s21.55,1.45,29.21,8.58,10.74,19.51,5.4,28.5L79,90.93q-1-3.14-2-6.26a4.07,4.07,0,0,1-4.44-2c-10.64,6-25,3.66-34.1-4.51C31,83.1,21.09,85.67,13,81.84a17.7,17.7,0,0,1-3.69-2.37A137.34,137.34,0,0,1,7.76,54.06Z" fill="#f4884d"/><path d="M38.73,90.61C38.93,90.1,37,89,34.3,87a21.71,21.71,0,0,1-2.06-1.66,4.67,4.67,0,0,1-1.38-1.84c-.05-.11,0-.2,0-.06l0-.19,0-.11V83.1c0-.14,0,.19,0,.16h0l0,0a.24.24,0,0,0,.06-.11.54.54,0,0,1,.37-.24,6.26,6.26,0,0,1,2.82,0,19.5,19.5,0,0,1,2.73.64l2.19.68L39.37,82c1.31-9.08,1.64-16.1.7-16.25s-2.84,6.62-4.45,15.65l2.5-1.49a18.92,18.92,0,0,0-3.41-.86,12.34,12.34,0,0,0-2.3-.16,6.92,6.92,0,0,0-2.56.52,4.21,4.21,0,0,0-2.26,2.21c-.09.24-.17.49-.25.73l0,.1,0,.19v.14l0,.24a4,4,0,0,0,.26,1.66,7.25,7.25,0,0,0,2.74,3.16,16,16,0,0,0,2.69,1.52C36.3,90.85,38.54,91.08,38.73,90.61Z" fill="#f4884d"/><path d="M5.81,68.24c-.65,0-3.11-9.94-3.28-11.08C.82,45,5.18,33.81,13.5,24.89c6.31-6.78,14.11-12.31,21.68-17.62C36.61,6.27,49.4-3.07,51.1,1,53.18,6,41.83,17.65,34,23.7c1.5,0,6.55-1.37,9.94-2,6.29-1.15-8.37,15.47-14.73,18.17,2.58,1.68,3.1,5.56,1.47,8.14s-4.45,4.15-7.16,5.61a7.18,7.18,0,0,1,2.06,9c-1.61,3.16-4.89,5.22-8.32,6.21S9.38,68.21,5.81,68.24Z" fill="#2e3f4e"/><path d="M80.2,72.66c-2.26,3.56-4.6,7.86-3,11.77.39,1,1,1.82,1.32,2.8.74,2.26-.14,4.69-1,6.9a5.65,5.65,0,0,0,5.29.3,13.92,13.92,0,0,0,4.4-3.28,56.8,56.8,0,0,0,8-10,19.72,19.72,0,0,0,3.34-8.44c.28-3-.82-6.37-3.38-8s-6.58-1-7.91,1.74" fill="#522e0f"/><path d="M100.48,70.49A43.39,43.39,0,0,1,84.8,74.8s-28,17.8-45.44,1.67c0,0-19,8.56-32.14-1.64,0,0-10.93-39.37,9.66-56.46s61.86-17.73,82-4.31,13.43,52.74,12.85,55.29S100.48,70.49,100.48,70.49Z" fill="#59bf93"/><path d="M98.08,15.28c19.36,12.9,12.77,50.86,12.26,53.59-.24.14-1.18.55-4.06.55a51.19,51.19,0,0,1-5.61-.37l-.44-.06-.4.19a42.3,42.3,0,0,1-15.14,4.17l-.36,0-.31.19c-.12.08-12.15,7.61-25,8.17,7.44-2.66,15.38-4.21,21.94-8.58,7.14-4.76,12.07-14.66,7.63-22C86.73,48,83.54,46,81.1,43.27S77,36.44,78.89,33.34c2.59-4.22,9.16-3,13.23-.17-12.45-16.82-38-26.58-58.41-21.76,2.49-2,7.95-2.27,10.85-3.58A88.82,88.82,0,0,1,61.8,6.15C76.15,6.15,89.38,9.48,98.08,15.28Z" fill="#29b686"/><path d="M12.13,70.05a12.13,12.13,0,0,0,8.42,4.85,22.58,22.58,0,0,0,3.31.07h0c.08,0,.32-.79.4-.79a33.64,33.64,0,0,0,7.58-1.92h0a12.78,12.78,0,0,0-2.2-9.09c-.09-.13-.19-.25-.29-.38s-.44-.52-.67-.78-.48-.51-.72-.74a11.92,11.92,0,0,0-6.59-3.49A9.54,9.54,0,0,0,12.7,61,7.89,7.89,0,0,0,12.13,70.05Z" fill="#fffef3"/><path d="M18,68.56A7.66,7.66,0,0,0,23.86,75h0l.26,0c3-.17,6.5-.87,7.72-2.69h0c.13-1.41.27-5.7-2.2-9.09-.09-.13-.19-.25-.29-.38s-.44-.52-.67-.78-.48-.51-.72-.74a14.35,14.35,0,0,0-1.58-1.34,7.56,7.56,0,0,0-1.9,0A7.65,7.65,0,0,0,18,68.56Z" fill="#97241f"/><path d="M43.12,73.53A16.54,16.54,0,0,1,53.43,56.94a16.52,16.52,0,0,1,18.7,5.63c0,6.44-4.26,12.09-10.07,14.86S46.09,78.9,43.12,73.53Z" fill="#fffef3"/><path d="M52.53,65.58a7.67,7.67,0,0,0,10.38,7.86,7.66,7.66,0,1,0-10.38-7.86Z" fill="#97241f"/><path d="M55.43,66a4.73,4.73,0,1,0,3.17-4.19A4.74,4.74,0,0,0,55.43,66Z" fill="#3e1211"/><path d="M43.12,73.53A18,18,0,0,1,46.28,64a17.71,17.71,0,0,1,3.34-3.62A14.67,14.67,0,0,1,53.81,58a14.45,14.45,0,0,1,4.75-1,17.24,17.24,0,0,1,4.89.5,17.88,17.88,0,0,1,8.68,5.06,14.71,14.71,0,0,0-8.19-6.69,16.56,16.56,0,0,0-5.42-.94,15.88,15.88,0,0,0-5.48,1,15.69,15.69,0,0,0-4.75,2.89,16.53,16.53,0,0,0-3.45,4.29A14.82,14.82,0,0,0,43.12,73.53Z" fill="#67240f"/><path d="M20.81,67.23A4.73,4.73,0,1,0,24,63,4.74,4.74,0,0,0,20.81,67.23Z" fill="#3e1211"/><path d="M19.13,67.66A2,2,0,0,0,22,69.86a2,2,0,0,0,1.07-1.41,2,2,0,0,0-2.91-2.21A2,2,0,0,0,19.13,67.66Z" fill="#fffef3"/><path d="M25.22,63.83a2.65,2.65,0,1,0,1.72-2.19A2.65,2.65,0,0,0,25.22,63.83Z" fill="#fffef3"/><path d="M31.85,72.26a11.73,11.73,0,0,0-1.63-9.74,15.27,15.27,0,0,0-3.6-3.71,11.92,11.92,0,0,0-4.88-2.09,10.18,10.18,0,0,0-9.63,3.67,8.35,8.35,0,0,0-1.65,5,7,7,0,0,0,1.67,4.7,7.93,7.93,0,0,1,1.3-8.58,9.07,9.07,0,0,1,8-2.6,10.25,10.25,0,0,1,4.06,1.63,16.3,16.3,0,0,1,3.41,3A13.62,13.62,0,0,1,31.85,72.26Z" fill="#67240f"/><path d="M53.75,66.44a2,2,0,0,0,2.91,2.2,1.94,1.94,0,0,0,1.07-1.41A2,2,0,0,0,54.82,65,1.94,1.94,0,0,0,53.75,66.44Z" fill="#fffef3"/><path d="M64.4,61.61a2.65,2.65,0,1,0,1.72-2.19A2.65,2.65,0,0,0,64.4,61.61Z" fill="#fffef3"/><path d="M101.25,74.09c-.58,0-2.16-10.45-2.3-11.49-1.54-11.05,2.38-21.21,9.84-29.31,5.67-6.16,12.66-11.18,19.46-16,1.28-.91,12.75-9.4,14.29-5.66,1.86,4.54-8.32,15.08-15.32,20.58,1.35,0,5.88-1.24,8.92-1.81,5.65-1-7.51,14.06-13.21,16.51,2.31,1.52,2.78,5,1.32,7.39s-4,3.77-6.43,5.09a6.58,6.58,0,0,1,1.84,8.21,11.85,11.85,0,0,1-7.46,5.63C109.12,74.13,104.46,74.06,101.25,74.09Z" fill="#0678a7"/><path d="M68.2,49.51a7.56,7.56,0,0,0,3.63.89,2.62,2.62,0,0,0,2.51-2.33,3.52,3.52,0,0,0-1.88-2.61,18.22,18.22,0,0,0-25.61,5.41C53.53,47.88,61.48,46.63,68.2,49.51Z" fill="#522e0f"/><path d="M11.58,47.29a6.62,6.62,0,0,1,1-.75,9.66,9.66,0,0,1,5.8-1.14,15.37,15.37,0,0,1,6.24,2c1.22.71,2.94,3.13,4,3.48a20.9,20.9,0,0,0-12.83,0c-1.36.49-2.86,1.12-4.16.51C9.38,50.39,10.26,48.51,11.58,47.29Z" fill="#522e0f"/><path d="M39.89,31.27C34,29.32,37,30.11,34,29.32l2.89,9.29c-2.33-1-7.25-3.17-7.25-3.17a114.28,114.28,0,0,0,8.53,15.73c-1-3.16-1.66-7.24-2.68-10.4,1.87.92,4.08,2.22,6,3.14-1.23-3.34-2.09-6.51-3.31-9.85.79.55,2,.89,2.78,1.44C40.93,35.5,39.18,30.3,39.89,31.27Z" fill="#d42f28"/><path d="M50.76,131.24l-8.55,6.54L33,133.56l-6.77,11.58s8.43,7.81,16.86,7.13S60,141.55,60,141.55Z" fill="#f4884d"/><path d="M33.08,143.18c1.16-2.13,2.3-4.27,3.39-6.43l5.93,2.71,3.36-2.57c1.15,2.16,2.13,4.4,3.17,6.61A16.86,16.86,0,0,1,33.08,143.18Z" fill="#f6b38d"/><path d="M25.79,147.27c4.55-3.41,7.47-8.74,9.75-14a91.77,91.77,0,0,0-9.74-5.66,3.07,3.07,0,0,0-.57-3.68,2.69,2.69,0,0,0-3.45.37,8.24,8.24,0,0,0-4.67-1.47c-1.56.15-3.07,1.63-2.67,3.14a4.13,4.13,0,0,0-3.17,4.89,3.4,3.4,0,0,0-2.22,2.31,3.32,3.32,0,0,0,.61,3.3C13.16,139.87,19.76,143.7,25.79,147.27Z" fill="#eb5440"/><path d="M20.46,135.41a15.33,15.33,0,0,0,7.79-4.8c1.94,1.06,3.79,2.16,5.46,3.24-1.8,4-4.3,8.53-8,11.66l-.17-.1c-5.72-3.39-11.64-6.89-14.82-9.93A20.48,20.48,0,0,0,20.46,135.41Z" fill="#d42f28"/><path d="M93.39,193.4l9.84,16L118.07,192s9.6,5.3,4.12-3.62l-7.51-12.22Z" fill="#eb5440"/><path d="M103.29,192.66c-1-1-1.94-2-2.91-3l13.93-11.25,3.57,5.8a92.63,92.63,0,0,1-13.54,8Z" fill="#d42f28"/><path d="M88.79,167l13.48,41.14s-11.93,11-17.61,1.35S74.35,184.9,74.35,184.9H62.78l-13.52,9.22-14.1.15s-3.22-5.44,3.66-12.08c6.07-5.85,9.31-8.69,9.31-8.69Z" fill="#59bf93"/><path d="M47.35,176.16l1.42-1.28,39-6.22,1.32,4a40.2,40.2,0,0,1-27,4.27,22.68,22.68,0,0,0,6.44,6.47H64.92l-.46-.33c-2.36-1.7-4.5-3.78-7.17-4.92C54.17,176.86,50.65,176.93,47.35,176.16Z" fill="#29b686"/><path d="M88.89,197.71a17.59,17.59,0,0,0,8.09-1l3.6,11C99,209,94.85,212,91.08,212a5.76,5.76,0,0,1-5.17-3.24,109,109,0,0,1-7.37-16.24C81.55,195.15,84.93,197.19,88.89,197.71Z" fill="#29b686"/><path d="M49,186.18a87.25,87.25,0,0,0,8.85.32l-9,6.17-12.69.13c-.43-1.42-.8-4.74,3-8.81C42.12,185.52,46.12,185.9,49,186.18Z" fill="#29b686"/><ellipse cx="54.34" cy="222" rx="33.09" ry="4.24" fill="#9f9d99" opacity="0.35"/><path d="M51.35,193.42H32.55l6.27,23s-9.54,5.4.93,5.4H54.09Z" fill="#eb5440"/><path d="M57.66,124c-.49-1.89-.43-3.71-.91-5.59,3.59-.54,6.84-1,10.43-1.52l-.54,5.47C63.55,122.89,60.75,123.44,57.66,124Z" fill="#29b686"/><path d="M48.13,173.5s0-1.84,0-4.8c13,1.91,27-.54,39.28-5.44L88.79,167C70.38,177.67,48.13,173.5,48.13,173.5Z" fill="#eb5440"/><path d="M58.79,172.85c7.49,0,18.35-1.14,28.21-6.49l-.43-1.2a83.37,83.37,0,0,1-29.27,5.65,64.75,64.75,0,0,1-7.7-.45c0,.76,0,1.4,0,1.9a69.16,69.16,0,0,0,9.2.59Z" fill="#d42f28"/><path d="M95.6,73.53c8.56-9.29,21-15.06,24.74-1.8s-13.75,40.1-35.16,28C75.49,94.24,90.67,78.88,95.6,73.53Z" fill="#f6b38d"/><path d="M112.83,71.64c-6.88-2.51-16.15,9.45-17.5,15.17S93.87,97.39,100.69,96s10.89-8.27,8.29-13.77-9.86,2.45-9.86,2.45S103,76.42,106.63,74,112.83,71.64,112.83,71.64Z" fill="#f4884d"/><path d="M40.7,96.55c-.06.5.77,1.14,2.35,1.18a8,8,0,0,0,7.68-7.89c-.07-1.7-.75-2.3-1.24-2.32s-.9,1-1.43,1.83a15,15,0,0,1-2.36,3.28,14.45,14.45,0,0,1-3.22,2.44C41.54,95.63,40.75,96,40.7,96.55Z" fill="#f4884d"/><path d="M73,123.56c6.35,9.11-17.08,23.65-17.08,23.65l-9.81-14.69S65.32,112.58,73,123.56Z" fill="#29b686"/><path d="M71.61,124.18l.16.21a4.68,4.68,0,0,1,.71,3.82c-1.25,6-11.19,13.7-16.17,17l-4.08-6.11C60.76,137.58,68.87,132,71.61,124.18Z" fill="#2b8060"/><path d="M17.81,19.49a44.38,44.38,0,0,1,4.78-3.41,71.75,71.75,0,0,0-6.23,14.53q-.48-3.12-.95-6.23-3,8.57-6,17.12c-.52,1.45-1.14,3-2.52,3.72a2.85,2.85,0,0,1-.75.24C7,35.83,10,25.94,17.81,19.49Z" fill="#29b686"/></g></g></svg>