<svg xmlns="http://www.w3.org/2000/svg" viewBox="0 0 121.37 171.21">
  <title>informer</title>
  <g style="isolation:isolate">
    <g id="Layer_1" data-name="Layer 1">
      <path
          d="M52.48,67a8.32,8.32,0,0,1-5.24-3.44,1.42,1.42,0,0,1-.33-1.1,1,1,0,0,1,.94-.69,2.48,2.48,0,0,1,1.21.31A8.43,8.43,0,0,1,52,64.57,5,5,0,0,1,52.92,62c.27-.33.68-.64,1.07-.48s.47.6.5,1A6.12,6.12,0,0,1,52.48,67Z"
          fill="#d42f28"/>
      <polygon points="68.58 88.43 71.17 88.79 69.57 92.2 68.71 92.26 68.58 88.43" fill="#173861"/>
      <path
          d="M45.46,96.31c3.32-.46,6.1-3,9.45-3.28,4.31-.32,7.94,3.28,12.19,4.07,5.25,1,10.24-2.42,15.5-3.33,3.07-.52,6.22-.2,9.33-.12s6.36-.14,9.1-1.63,4.82-4.56,4.3-7.63-3.54-5.32-6.37-6.9A81.38,81.38,0,0,0,49,68c-6.06.8-12.18,2.36-17.17,5.9-4.33,3.07-10.6,10.08-5.2,14.88C29,90.85,32.44,91.6,35.24,93,38.43,94.61,41.7,96.82,45.46,96.31Z"
          fill="#0a0b0a"/>
      <path
          d="M98.92,9.05c7.21,3.07,11.86,11,11.55,18.85-.17,4.14-1.56,8.13-2.24,12.22s-.55,8.62,2,11.92,8,4.44,10.81,1.37c1.61,6-2.29,12.68-8,15.23s-12.57,1.42-17.89-1.84S85.89,58.39,83,52.88a60.9,60.9,0,0,1-7-32.29C76.6,10.09,90.27,5.38,98.92,9.05Z"
          fill="#0a0b0a"/>
      <path d="M63.86,83.38l.81,8.67a3.67,3.67,0,0,0,4,.21l1.12-8Z" fill="#f6a57f"/>
      <path d="M96.85,32.46c3.77,13.42,15.68,55.3-26.56,54.29s-46.84-46-46.84-46l31-21.61,37,3Z" fill="#fdd4b6"/>
      <path
          d="M96.85,32.46,91.44,22.19,56.68,19.35c-1.55.49-3.1,1-4.65,1.49l-15.69,11c-1.69,4.09-1.93,8.93-2,13.46l8.4,18.09c4.75-1.51,8.46-5.36,10.87-9.71s3.69-9.23,4.94-14a351.35,351.35,0,0,0,39.92-1.23C97.87,36.07,97.3,34.06,96.85,32.46Z"
          fill="#f6a57f"/>
      <path
          d="M79.18,77.51c0,.35-.82.67-2.16.57A9.47,9.47,0,0,1,69.2,71.9c-.42-1.34-.26-2.11.06-2.24.72-.18,2,2.37,4.6,4.39S79.2,76.77,79.18,77.51Z"
          fill="#f79d67"/>
      <path
          d="M96.73,38a1.16,1.16,0,0,1-.1,1.2A3.85,3.85,0,0,1,95,40.56a11.61,11.61,0,0,1-5.93.91l-4.49-.29a13.44,13.44,0,0,1-1.45-.12A1.56,1.56,0,0,1,82,40.69a1.19,1.19,0,0,1-.21-1.17,3.89,3.89,0,0,1,1.37-1.77A7.39,7.39,0,0,1,86,36.5a12.31,12.31,0,0,1,3.39-.26,36.8,36.8,0,0,1,4.87.7C95.39,37.2,96.33,37.34,96.73,38Z"
          fill="#1a1c1d"/>
      <path
          d="M52.07,112.87a12.8,12.8,0,0,0-4.68,4.37,35.28,35.28,0,0,0,3.14,2.84,1.13,1.13,0,0,0-.08,1.4,1,1,0,0,0,1.29.14,3.17,3.17,0,0,0,1.61.9c.58.07,1.25-.36,1.22-.94A1.56,1.56,0,0,0,56.12,120a1.26,1.26,0,0,0,1-.68,1.24,1.24,0,0,0,0-1.26A38.48,38.48,0,0,0,52.07,112.87Z"
          fill="#fdd4b6"/>
      <path
          d="M56.43,119.33a1,1,0,0,0-1.29.94c0-.17-1,.23-1.1.32a.47.47,0,0,0-.2.45,1.48,1.48,0,0,0,.16.49,2.83,2.83,0,0,1-1.1-.9c.83-.37,1.21-1.24.86-2.66.17.68,2.34-.76,2.49-1A1.79,1.79,0,0,0,56.43,119.33Z"
          fill="#f6a57f"/>
      <path
          d="M78.58,112.87a12.8,12.8,0,0,1,4.68,4.37,36.61,36.61,0,0,1-3.13,2.84,1.16,1.16,0,0,1,.08,1.4,1,1,0,0,1-1.3.14,3.14,3.14,0,0,1-1.6.9c-.59.07-1.26-.36-1.23-.94A1.56,1.56,0,0,1,74.53,120a1.26,1.26,0,0,1-1-.68,1.24,1.24,0,0,1,0-1.26A39.1,39.1,0,0,1,78.58,112.87Z"
          fill="#fdd4b6"/>
      <path
          d="M74.22,119.33a1,1,0,0,1,1.29.94c0-.17,1,.23,1.11.32a.48.48,0,0,1,.19.45,1.28,1.28,0,0,1-.16.49,2.76,2.76,0,0,0,1.1-.9c-.82-.37-1.21-1.24-.86-2.66-.17.68-2.34-.76-2.49-1A1.79,1.79,0,0,1,74.22,119.33Z"
          fill="#f6a57f"/>
      <path
          d="M61,92.2c.06-.28-2.49-.17-2.63-.14-2.59.53-3.94,3.13-5.92,4.6s-3.73,3.1-5.55,4.66-3.53,3-5.2,4.67c-.42.4-2.47,2-2.25,2.75.62,2.08,8,9,8,9l4.58-5-2.27-3.47s2.48-1.06-.29-1.46l9.44-7.2Z"
          fill="#f9a943"/>
      <path
          d="M52.24,104.32A10,10,0,0,1,47,102.53c-1.65,1.42-3.17,2.75-4.63,4.17L42,107a8.65,8.65,0,0,0-1.56,1.59c.6,1.32,4.16,5,7,7.73l3.38-3.71-2.49-3.81.32-.14L47,108.46l5.34-4.07Z"
          fill="#f79327"/>
      <path
          d="M69.57,92.2c-.07-.28,2.48-.17,2.62-.14,2.59.53,4,3.13,5.92,4.6s3.73,3.1,5.55,4.66,3.53,3,5.2,4.67c.42.4,2.47,2,2.25,2.75-.62,2.08-8,9-8,9l-4.58-5,2.27-3.47s-2.48-1.06.29-1.46l-9.43-7.2Z"
          fill="#f9a943"/>
      <path
          d="M88.54,107l-.37-.33c-1.19-1.16-2.42-2.26-3.73-3.39a9.26,9.26,0,0,1-2.51,1.21,9.53,9.53,0,0,1-3,.39l4.66,3.55-1.63.23.33.14-2.5,3.81,3.38,3.71c2.81-2.69,6.37-6.41,7-7.73A8.65,8.65,0,0,0,88.54,107Z"
          fill="#f79327"/>
      <path
          d="M54.74,122Q52.36,142.14,50,162.32l4.12.41q5-15.82,10.09-31.66l4.45-.12,11,31.94,4-.64-7.2-40.62C74.24,106.11,55.68,106.77,54.74,122Z"
          fill="#2a3b8f"/>
      <path
          d="M57.44,97.54q-1.24,11.25-2.5,22.51c3.06,3.69,18.64,3,21.15-1Q74,106.93,71.88,94.76L69.45,92l-1.73-.54L61,92.2Z"
          fill="#f9a943"/>
      <path d="M59,136a12.57,12.57,0,0,1-4.86-2.39l-3,25.93,2.47.76q3.93-12,7.88-24.1A9.06,9.06,0,0,1,59,136Z"
            fill="#282560"/>
      <path
          d="M74.6,137.92a7.12,7.12,0,0,1-2.74-.16q3.84,11.3,7.66,22.59l3-.62q-2-11.64-4-23.29A9.33,9.33,0,0,1,74.6,137.92Z"
          fill="#282560"/>
      <path d="M76.77,121.65l-.45-2.51c-7,1.8-14.32,1.66-21.57,1l-.24,2.06A59.91,59.91,0,0,0,76.77,121.65Z"
            fill="#f79327"/>
      <polygon points="65.66 93.74 66.73 121.39 67.88 121.39 66.77 93.74 65.66 93.74" fill="#f79327"/>
      <path
          d="M92.43,167.9c0,1.83-11.59,3.31-25.89,3.31s-25.89-1.48-25.89-3.31,11.59-3.32,25.89-3.32S92.43,166.06,92.43,167.9Z"
          fill="#9f9d99" opacity="0.35" style="mix-blend-mode:multiply"/>
      <path d="M49.91,162.39l4.12.41c.41,1.57.81,3.14,1.22,4.71H46c-1.34,0-2.24-.25-2.3-.6-.11-.66,2.86-1.73,5.53-2.56Z"
            fill="#1c1c1d"/>
      <polygon points="65.52 88.02 61.72 88.08 62.82 92.05 64.67 92.05 65.52 88.02" fill="#f79327"/>
      <path
          d="M69.85,92.19a2.78,2.78,0,0,0-.4-.16l-1.73-.54-5.95.62a6.88,6.88,0,0,0,3.41,2.64,3.92,3.92,0,0,0,2.92-.4A3.86,3.86,0,0,0,69.85,92.19Z"
          fill="#f79327"/>
      <path
          d="M83.28,71.12c-.07-.18.22-.45.69-.87a8.71,8.71,0,0,0,1.68-1.85A2.76,2.76,0,0,0,86,65.67s0,0,0,0,0,0,0,0,0,0,0,0,0,0,0,0a2.28,2.28,0,0,0-.62.13,9.31,9.31,0,0,0-2,1c-.41.27-.85.57-1.19.83l-1.91,1.45-.2-2.33c-.54-6.4-.47-11.37.2-11.44S82,60.16,82.66,66.53l-2.11-.88c.46-.37.91-.69,1.41-1a10.64,10.64,0,0,1,2.67-1.28,4.07,4.07,0,0,1,1.82-.13,2.45,2.45,0,0,1,1.75,1.43l.06.12,0,0v0h0l0,.08v0l0,.14.07.27a6,6,0,0,1,.09.83,4.2,4.2,0,0,1-.21,1.4,5,5,0,0,1-1.23,2,6,6,0,0,1-2.64,1.58C83.75,71.33,83.33,71.28,83.28,71.12Z"
          fill="#f79d67"/>
      <path d="M56,53.16S68.82,40,76,57.44C76,57.44,64.54,65.85,56,53.16Z" fill="#fffef3"/>
      <path d="M70.24,54.78A5.21,5.21,0,1,1,65.68,49,5.2,5.2,0,0,1,70.24,54.78Z" fill="#97241f"/>
      <path d="M68.27,54.55A3.22,3.22,0,1,1,65.45,51,3.2,3.2,0,0,1,68.27,54.55Z" fill="#3e1211"/>
      <path d="M69.46,54.64a1.38,1.38,0,1,1-1.21-1.53A1.39,1.39,0,0,1,69.46,54.64Z" fill="#fffef3"/>
      <path d="M84.09,54.61c.24-3.66,6.2-13.32,12.36-6,0,0-.24,6.46-4.88,8.91S84.09,54.61,84.09,54.61Z" fill="#fffef3"/>
      <path
          d="M88.36,48.33a5.48,5.48,0,0,0-1,0c-2.23,2.31-3.67,5.87-3.44,8.2a6.09,6.09,0,0,0,6.32,1.56,5.21,5.21,0,0,0-1.89-9.74Z"
          fill="#97241f"/>
      <path d="M91,53.88a3.22,3.22,0,1,1-2.82-3.58A3.23,3.23,0,0,1,91,53.88Z" fill="#3e1211"/>
      <path d="M92.13,54a1.38,1.38,0,1,1-1.21-1.53A1.38,1.38,0,0,1,92.13,54Z" fill="#fffef3"/>
      <path d="M84.09,54.61a1.6,1.6,0,0,0,1-3,12.22,12.22,0,0,0-1,3Z" fill="#fffef3"/>
      <path
          d="M76,57.44c-.36.15-1.14-1.09-2.47-2.87A16,16,0,0,0,71,51.78a9.12,9.12,0,0,0-1.72-1.2,7.65,7.65,0,0,0-2-.72,8,8,0,0,0-2.18-.11,12.87,12.87,0,0,0-2.09.39,20,20,0,0,0-3.51,1.46c-2,1-3.17,1.83-3.43,1.56s.52-1.57,2.42-3.11a14.14,14.14,0,0,1,3.74-2.19,12,12,0,0,1,2.59-.66,9.55,9.55,0,0,1,3,.09,9.16,9.16,0,0,1,2.79,1.05A10.26,10.26,0,0,1,72.64,50a12.94,12.94,0,0,1,2.47,3.59C76.13,55.82,76.29,57.32,76,57.44Z"
          fill="#3e1211"/>
      <path
          d="M96.45,48.59c-.3.28-1.19-.5-2.63-1.06a4.25,4.25,0,0,0-2.39-.23,6,6,0,0,0-2.66,1.49,16,16,0,0,0-3.6,5.13c-.35.75-.57,1.4-.75,1.83s-.3.77-.49.76-.4-.22-.53-.79a6.1,6.1,0,0,1,0-2.32A11.77,11.77,0,0,1,87,46.84a7.26,7.26,0,0,1,4.08-1.93,5.57,5.57,0,0,1,2.07.22,5.36,5.36,0,0,1,1.55.79,5.16,5.16,0,0,1,1.57,1.74C96.53,48.16,96.59,48.47,96.45,48.59Z"
          fill="#3e1211"/>
      <path
          d="M75.84,43c.18.69-.72,1.64-2.53,2.34a14.38,14.38,0,0,1-7.38.62c-.36,0-.74-.13-1.1-.21l-1-.26c-.64-.2-1.21-.4-1.72-.6l-2.47-1c-.65-.26-1.21-.44-1.63-.63-.2-.12-.46-.18-.64-.28a.85.85,0,0,1-.39-.41A.81.81,0,0,1,57,42a1.23,1.23,0,0,1,.4-.68,4.57,4.57,0,0,1,2.42-1.14,10.93,10.93,0,0,1,3.52,0c.6.08,1.19.19,1.76.29l1.7.29c2.32.38,4.46.61,6.1.88S75.66,42.27,75.84,43Z"
          fill="#1a1c1d"/>
      <path
          d="M54.06,18.11c-4.55,1-7.71,5.45-8.6,10s.09,9.29,1.19,13.82S49,51.08,48.73,55.73s-2.46,9.49-6.61,11.62a38.54,38.54,0,0,0-13.74-6.14c-4.82-6.66-8.47-14.67-7.59-22.84A27.48,27.48,0,0,1,33.2,18C40.2,13.73,47,13.9,54.06,18.11Z"
          fill="#0a0b0a"/>
      <path
          d="M69.66,13.56a146.53,146.53,0,0,0-26.31-9c-14.2,4.24-25.93,16.53-29,31-2.25,10.45-.4,21.3,1.55,31.8-3.11-3.11-9.27-1.94-12.41,1.15s-4,8-3.14,12.26A19.19,19.19,0,0,0,12.56,94.87a19.19,19.19,0,0,0,18.38-3.42,24.4,24.4,0,0,0,7.33-12.31,56.28,56.28,0,0,0,1.55-14.42c0-6.71-.3-13.61,1.93-19.94,2.38-6.76,7.47-12.2,12.82-17S65.21,19.18,69.66,13.56Z"
          fill="#0a0b0a"/>
      <path
          d="M10.6,68.86c-3.53.34-6.45,3.43-7.14,6.92a12.19,12.19,0,0,0,2.87,9.9,12.37,12.37,0,0,0,9.14,4.69A8.84,8.84,0,0,0,23.81,85c1.24-3.44-.21-7.35-2.57-10.15a6.5,6.5,0,0,1-5.73,10.73,6.38,6.38,0,0,0,4.57-7.84,6.57,6.57,0,0,1-7.59,4.38,6.59,6.59,0,0,1-4.7-7.4,7,7,0,0,0,6.31,3.88,7.17,7.17,0,0,1-3.44-2.79c-.68-1.35-.09-3.4,1.41-3.6a2.42,2.42,0,0,1,2.25,1.27,6.79,6.79,0,0,1,.73,2.62,5,5,0,0,0-1.35-4.43c.8.79,2.5.72,3.46,1.92C17.71,70.6,13,68.64,10.6,68.86Z"
          fill="#1c1c1d"/>
      <path
          d="M70.64,3.27C75.33,3.2,80.25,5,83,8.87a27,27,0,0,0-9.88-3.59,7.81,7.81,0,0,1,7.18,5.44A16.59,16.59,0,0,0,61.19,9.37,10.24,10.24,0,0,1,64.63,6.2c-1.85,1-3.85,2-5.75,2.89C58.44,4.65,67.81,3.31,70.64,3.27Z"
          fill="#1a1c1d"/>
      <path
          d="M101.33,12.67A10.91,10.91,0,0,1,106.4,23.8a9.79,9.79,0,0,0-6.72-8.5,8.19,8.19,0,0,1,3.87,6.7A11.33,11.33,0,0,0,92,16.4a12.37,12.37,0,0,1,6.84-2.8c-2.11.17-4-.84-6.34-.36a13.12,13.12,0,0,0-5.94,3.06C88.39,10,96.5,9.72,101.33,12.67Z"
          fill="#1c1c1d"/>
      <path
          d="M65.14.29a25.71,25.71,0,0,1,18,3.94C85.82,6,88.35,8.69,88.59,12a8.66,8.66,0,0,1-3.85,7.38A16.69,16.69,0,0,1,76.57,22c-8,.79-17.55-1.6-23.51-7.19C45.06,7.34,58.94,1.24,65.14.29Z"
          fill="#0a0b0a"/>
      <path
          d="M41.66,33.19c.52,5,3.29,9.4,4.91,14.15s1.79,10.7-2,14a11,11,0,0,0-1-12.48,15.68,15.68,0,0,1-.16,10L36.81,40.58a20.94,20.94,0,0,0,3.93,16.28c-3.44-2.21-6.56-5.23-7.9-9.1-3-8.66,3.45-20.09,9.9-25.71,3.34-2.91,8-4.62,12.29-3.32a24.36,24.36,0,0,0-9.06,4A11.7,11.7,0,0,0,41.66,33.19Z"
          fill="#1c1c1d"/>
      <path
          d="M33.13,25.75A35.23,35.23,0,0,0,28.25,52a30.61,30.61,0,0,1-1.58-14.48,22.21,22.21,0,0,0-2.8,12.23,38.49,38.49,0,0,1,7.49-31.66,36.91,36.91,0,0,0-10.84,38.4,34,34,0,0,1,1.16-32.75A33.93,33.93,0,0,1,50.34,7.89c-5.14,1.59-10.51,3.32-14.27,7.18,3.8-3.91,13-4.34,18-4.16A35.7,35.7,0,0,0,33.13,25.75Z"
          fill="#1c1c1d"/>
      <path
          d="M61.12,20.56c.22-1.24,2.08-1.5,3-.67a4.64,4.64,0,0,1,1.18,3.46A7.94,7.94,0,0,0,65.91,27,4.55,4.55,0,0,0,70.48,29a12.89,12.89,0,0,0,4.82-2,7.53,7.53,0,0,1-2.8,0,1.67,1.67,0,0,1-1.41-1.52c0-.95,1-1.5,1.64-2.22a3.9,3.9,0,0,0-.18-4.76,8.09,8.09,0,0,0-4.38-2.56,8.3,8.3,0,0,0-5.69.1C60.73,16.79,60.46,18.74,61.12,20.56Z"
          fill="#0a0b0a"/>
      <path
          d="M65.87,18.35a5,5,0,0,1,.83,3A10.45,10.45,0,0,0,67,24.54a2.61,2.61,0,0,0,2.28,1.92,5.15,5.15,0,0,1-1-5.75,12,12,0,0,0,.59,3.58l.45-3.92a8.44,8.44,0,0,1,.59,3.22,8.56,8.56,0,0,0,.38-3.4,3,3,0,0,0-2.05-2.5A5.27,5.27,0,0,1,72,22.06a5.1,5.1,0,0,0-5.82-5.47,3.66,3.66,0,0,1,2.42,2.78c-.23-1.3-3.38-2.11-4.38-2A3.16,3.16,0,0,1,65.87,18.35Z"
          fill="#1c1c1d"/>
      <path d="M40.71,62.54c-6.65-5.46-15.55-8.17-16.85,1.13S36.94,89.4,50.23,79.2C56.24,74.59,44.54,65.67,40.71,62.54Z"
            fill="#fdd4b6"/>
      <path
          d="M29.28,63.66c4.41-2.35,11.79,4.84,13.24,8.56s2,7-2.74,6.7-8.13-4.55-6.9-8.5,6.88.71,6.88.71S36.37,66,33.69,64.65A8,8,0,0,0,29.28,63.66Z"
          fill="#f6a57f"/>
      <path d="M48.22,165.38" fill="#eb5440"/>
      <path
          d="M83.56,162.32l-4.12.41c-.4,1.57-.81,3.14-1.21,4.71h9.29c1.33,0,2.23-.25,2.29-.6.11-.66-2.86-1.73-5.53-2.56Z"
          fill="#1c1c1d"/>
    </g>
  </g>
</svg>