<svg id="Layer_1" data-name="Layer 1" xmlns="http://www.w3.org/2000/svg" viewBox="0 0 124.54 124.6"><title>local-impact</title><path d="M60.18,56.06V3c0-.28,0-.55,0-.83A2.08,2.08,0,0,1,62.24,0a2.05,2.05,0,0,1,2.09,2.12c0,2,0,4,0,6.18H92.77c2,0,2.71.68,2.71,2.75v9.71h1.13c6.36,0,12.73,0,19.1,0a2.27,2.27,0,0,1,2.45,1.33,2.21,2.21,0,0,1-.79,2.58c-2.58,2.56-5.14,5.14-7.71,7.71-.26.26-.51.54-.81.86l.82.86q3.89,3.88,7.79,7.78a2.13,2.13,0,0,1-1.56,3.82H81.33c-1.69,0-2.45-.78-2.46-2.49V33.28H64.38V56.06h28a6.22,6.22,0,0,1,6.22,4.12q12.78,30.44,25.54,60.88c.1.26.22.51.3.77a2.07,2.07,0,0,1-1.75,2.74c-.3,0-.62,0-.93,0H2.46c-2,0-3-1.35-2.18-3.23Q2.62,115.71,5,110.07q10.35-24.7,20.72-49.41c1.43-3.41,3.22-4.59,6.94-4.6H60.18Zm0,4.16c-2.61,0-5.1,0-7.59,0a3.21,3.21,0,0,0-1,.22,68.83,68.83,0,0,0-28.88,19,5.2,5.2,0,0,0-.92,1.47Q13.85,99.66,6,118.4c-.13.3-.22.62-.36,1a3.49,3.49,0,0,0,.51,0c10.26-2.74,20.38-5.86,30-10.53a46.83,46.83,0,0,0,9.33-5.79l-1.1-.47a26.27,26.27,0,0,1-9.13-6c-3.09-3.27-4.75-7-3.88-11.63a14.62,14.62,0,0,1,5.43-8.59c4.78-4,10.44-6,16.48-7.06A2.11,2.11,0,0,1,56,71c.2,1.18-.57,2.08-2,2.42-2.08.51-4.18,1-6.21,1.63a22.11,22.11,0,0,0-10,6.11c-3.48,3.94-3.44,8.3,0,12.22a18.83,18.83,0,0,0,6.64,4.71A43.79,43.79,0,0,0,78,98.91,20.56,20.56,0,0,0,86.89,93C90,89.36,90,85.18,87,81.44A19.11,19.11,0,0,0,81,76.83a37.27,37.27,0,0,0-10.49-3.46c-1.49-.28-2.25-1.28-2-2.5a2.1,2.1,0,0,1,2.72-1.55c2.06.43,4.1.93,6.24,1.42A30.49,30.49,0,0,1,86.7,60.27H64.39V79.06a14.8,14.8,0,0,1,7.46,3.24c3.75,3.2,3.78,6.69,0,9.84a14.7,14.7,0,0,1-12.77,3,12.65,12.65,0,0,1-8-4.76c-1.68-2.23-1.65-4.23,0-6.45a11.09,11.09,0,0,1,4.72-3.63c1.39-.56,2.85-1,4.33-1.43ZM18.26,120.27l0,.17h1.09q24.35,0,48.69,0a26,26,0,0,0,4.83-.42c8.58-1.65,16.81-4.31,24.29-8.92,5.15-3.18,9.52-7.13,12.21-12.68a2.13,2.13,0,0,0,.06-1.51Q102.17,79.43,94.84,62c-.15-.37-.36-.72-.53-1.06C89.7,62.3,83.21,68.1,81.43,72.39l1,.51a24.43,24.43,0,0,1,6.87,4.95c3,3.24,4.72,7,3.89,11.52A14.52,14.52,0,0,1,87.82,98c-6,5-13.19,6.94-20.78,7.68a52.23,52.23,0,0,1-16.3-1,1.66,1.66,0,0,0-1.16.31c-2.13,1.54-4.13,3.27-6.35,4.65-6,3.77-12.64,6.37-19.32,8.73C22,119,20.14,119.63,18.26,120.27ZM64.42,12.49V29H91.26V12.49ZM111.16,25H95.48c0,1.94,0,3.8,0,5.66a3,3,0,0,1-1,2.31C92,35.49,89.45,38,86.91,40.58c-.25.26-.49.53-.81.89h25c-.32-.35-.53-.6-.76-.83l-5.43-5.44c-1.53-1.52-1.53-2.43,0-3.93Zm8.17,95.4-7.44-17.74c-5.86,9-14.55,13.93-24,17.74ZM53.94,87.27c2.45,3.52,5.85,4.52,9.85,4A9.12,9.12,0,0,0,70.05,88a1.36,1.36,0,0,0,.22-1.23,8.17,8.17,0,0,0-5.91-3.53c-.1,1.68.43,3.7-2.09,3.94a1.65,1.65,0,0,1-1.36-.54,28.09,28.09,0,0,1-1-3.35A8,8,0,0,0,53.94,87.27ZM26.48,69.62l14-9.4H31.84a2,2,0,0,0-2,1.38c-.58,1.36-1.15,2.73-1.73,4.1S27,68.48,26.48,69.62ZM83.06,38.09l4.79-4.8H83.06Z" fill="#59bf93"/></svg>