<svg id="Layer_1" data-name="Layer 1" xmlns="http://www.w3.org/2000/svg" viewBox="0 0 110.87 121.86"><title>local</title><path d="M12.11,118.89a49.37,49.37,0,0,0,5,.49q38.08,0,76.17,0a18.46,18.46,0,0,0,3.41-.27,13.77,13.77,0,0,0,11.19-13.4q.06-28.68,0-57.37c0-.26,0-.53-.06-.91h-6.19c-1.59,0-2-.43-2-2,0-2,0-4,0-6.18H22.34a1.33,1.33,0,0,1-1.46-1.38c0-.88.57-1.34,1.43-1.43a9.33,9.33,0,0,1,1.06,0q38.62,0,77.24,0a2.74,2.74,0,0,1,2.18.88c2.27,2.35,4.66,4.6,6.89,7a3.79,3.79,0,0,1,1,2.37q.17,29,.2,58c0,8.16-5,14.81-12.67,16.74a18.48,18.48,0,0,1-4.44.54q-38.39,0-76.77,0" fill="#59bf93"/><path d="M0,105.12q0-26.49,0-53C0,50.39.39,50,2.17,50H15.35V48.7c0-3.51,0-7,0-10.53,0-1.35.41-1.9,1.38-1.9s1.45.61,1.45,1.88q0,33.84,0,67.66a15.94,15.94,0,0,1-5.41,12,5.84,5.84,0,0,1-.77.53" fill="#59bf93"/><path d="M9,117a13.87,13.87,0,0,0,6.31-11.51c0-8.31,0-16.63,0-25a9,9,0,0,0-.09-1H14.12c-1.7,0-3.4,0-5.09,0a1.34,1.34,0,0,1-1.47-1.49c0-.9.61-1.31,1.49-1.33.43,0,.86,0,1.3,0h4.94V74.3H14c-1.58,0-3.16,0-4.73,0-.93,0-1.65-.29-1.69-1.38,0-.94.55-1.42,1.74-1.46h6V69H14c-1.66,0-3.31,0-5,0a1.3,1.3,0,0,1-1.45-1.36A1.32,1.32,0,0,1,9,66.2c1.1-.06,2.21,0,3.31,0s2,0,3,0V52.89H2.84v2.58q0,24.82,0,49.66" fill="#59bf93"/><path d="M78.94,88.34H64.51c-1.63,0-2.05-.42-2.05-2q0-10.53,0-21.06c0-1.46.45-1.94,1.89-1.94q14.55,0,29.1,0c1.47,0,1.91.45,1.91,1.9q0,10.59,0,21.17c0,1.51-.43,1.93-2,1.93Z" fill="#59bf93"/><path d="M46,57.55q9,0,18.09,0c.75,0,1.42.08,1.77.87a1.36,1.36,0,0,1-.9,1.87,4.15,4.15,0,0,1-1.17.1H28.21c-.23,0-.47,0-.71,0-.91-.07-1.5-.51-1.49-1.48s.63-1.36,1.56-1.36c3.47,0,6.94,0,10.41,0Z" fill="#59bf93"/><path d="M42.36,71.31H28C26.58,71.3,26,70.92,26,70s.59-1.49,1.95-1.49H57c1.29,0,1.9.46,1.9,1.4S58.25,71.3,57,71.3Z" fill="#59bf93"/><path d="M42.41,66.07H28.22a6.27,6.27,0,0,1-1.06,0c-.75-.15-1.32-.65-1.11-1.39a3.24,3.24,0,0,1,1.18-1.36c.19-.16.61-.05.92-.05H56.77c.31,0,.72-.11.92.05.46.35,1.06.79,1.13,1.27s-.44,1-.85,1.34-.82.17-1.25.18C52,66.08,47.18,66.07,42.41,66.07Z" fill="#59bf93"/><path d="M42.48,78.85H56.67c.31,0,.72-.12.92,0,.49.37,1.15.81,1.23,1.31s-.55,1-1,1.38c-.21.19-.68.11-1,.11H28a4.18,4.18,0,0,1-.71,0,1.41,1.41,0,0,1,.08-2.8c.32,0,.63,0,.95,0Z" fill="#59bf93"/><path d="M42.47,86.92H28.16c-.35,0-.82.11-1-.06-.44-.36-1-.88-1-1.34s.59-1,1-1.37c.14-.15.53-.07.8-.07H57c.28,0,.65-.08.81.06.42.39,1,.88,1,1.34s-.58,1-1,1.36c-.22.18-.69.08-1,.08Z" fill="#59bf93"/><path d="M42.46,73.59H56.53c.39,0,.88-.12,1.16.07.47.31,1.1.8,1.13,1.25s-.53,1-1,1.39c-.24.2-.75.13-1.14.13H28.1c-.35,0-.82.08-1-.1-.43-.36-1-.9-1-1.34s.59-1,1-1.32c.27-.19.77-.08,1.16-.08Z" fill="#59bf93"/><path d="M35.65,89.2h7.79c1,0,1.76.18,1.8,1.36,0,1-.58,1.47-1.84,1.48H27.81c-.95,0-1.76-.21-1.8-1.38,0-1,.56-1.45,1.84-1.45Z" fill="#59bf93"/><path d="M29.29,47.16,31,51.51l1.64-4.36.38,0,1.66,4.37,1.67-4.36h.37l1.64,4.33L40,47.13l.36,0L42,51.48l1.68-4.32.36,0,1.66,4.36,1.66-4.34.4,0,2,5.58-.48.21-1.74-4.33-1.65,4.28-.36,0-1.66-4.37L42.19,52.9l-.35,0-1.67-4.39-1.66,4.35-.35,0-1.68-4.39-1.66,4.33-.33.05c-.55-1.38-1.09-2.77-1.71-4.36l-1.65,4.32-.36,0L29.1,48.54l-1.67,4.35-.55-.21,2-5.52Z" fill="#59bf93"/><path d="M89.5,93.57H85.24a1.4,1.4,0,0,1-1.62-1.34c-.09-.83.59-1.48,1.61-1.49,2.84,0,5.67,0,8.51,0,1,0,1.63.44,1.6,1.48s-.67,1.35-1.58,1.35Z" fill="#59bf93"/><ellipse cx="79.81" cy="67.18" rx="9.94" ry="3.95" fill="#59bf93"/><path d="M80,0a25.11,25.11,0,0,1,24.57,20.74,22.07,22.07,0,0,1-2.11,13.5A78.83,78.83,0,0,1,95.56,46,169.56,169.56,0,0,1,81.15,63.84c-.89,1-1.54,1-2.43,0a157.82,157.82,0,0,1-17.2-22.19,59.52,59.52,0,0,1-5.18-10.19,20,20,0,0,1-.14-14C59.48,7.92,66.19,2.23,76.11.32A10.82,10.82,0,0,1,77.37.17C78.23.1,79.1.05,80,0Zm0,15.25A9.71,9.71,0,1,0,89.67,25,9.75,9.75,0,0,0,80,15.25Z" fill="#59bf93"/></svg>