<svg version="1.1" id="Layer_1" xmlns="http://www.w3.org/2000/svg" xmlns:xlink="http://www.w3.org/1999/xlink" x="0px" y="0px"
	 viewBox="0 0 152.6 152.6" enable-background="new 0 0 152.6 152.6" xml:space="preserve">
<g>
	<circle fill="#2E3F4E" cx="76.3" cy="76.3" r="76.3"/>
	<g>
		<g>
			<g>
				<path display="none" fill="#2E3F4E" d="M103.6,84.4c-5.6,0-10.2-4.6-10.2-10.2c0-5.6,4.6-10.2,10.2-10.2
					c5.6,0,10.2,4.6,10.2,10.2C113.8,79.8,109.2,84.4,103.6,84.4z M103.6,65.4c-4.8,0-8.8,3.9-8.8,8.8c0,4.8,3.9,8.8,8.8,8.8
					c4.8,0,8.8-3.9,8.8-8.8C112.3,69.4,108.4,65.4,103.6,65.4z"/>
				<path fill="#FAA943" d="M89.5,83.1C76.7,83,63.9,83,51.1,83c-5.6-6.8-11.2-13.7-16.7-20.5c-3.7-0.2-7.4-0.4-11.1-0.7
					c-0.1-6.7-0.1-13.5-0.2-20.2c10.6-0.1,21.2-0.1,31.8-0.2c3.3,9.2,6.5,18.4,9.8,27.6c8.1,1.2,16.2,2.4,24.3,3.6
					C89.1,76.1,89.3,79.6,89.5,83.1z"/>
				<path fill="#FAA943" d="M53.2,84.1c-1.6,0-1.9-0.2-2-0.2c-0.5-0.3-1.1-1-1.3-1.3L34.3,63.3l-10-0.3c-0.6,0-1.4-0.1-1.7-0.6
					c-0.2-0.4-0.3-1.2-0.3-1.5l-0.3-17.8c0-0.1,0-1,0.9-1.9c0.8-0.7,1.4-0.8,1.7-0.7l28.9-0.1c0.3,0,1.2-0.1,1.9,0.4
					c0.7,0.5,1,1.4,1,1.5l8.2,25.1c0.1,0.2,0.2,0.5,0.3,0.9l23,2.9c0.1,0,0.9,0.1,1.4,0.7c0.6,0.6,0.6,1.2,0.6,1.3l0.2,8.5
					c0,0.1,0.1,1-0.4,1.5c-0.6,0.7-1.5,0.7-1.6,0.7l-34.8,0.3C53.3,84.1,53.3,84.1,53.2,84.1z M24.4,61.5l10.7,0.3l16,19.9
					c0.3,0.4,0.7,0.8,0.8,0.9c0.1,0,0.9,0.1,1.6,0.1l34.8-0.3c0,0,0.3,0,0.5-0.2c0.1-0.1,0.1-0.3,0.1-0.5l-0.2-8.5
					c0,0,0-0.2-0.1-0.3c-0.1-0.1-0.5-0.2-0.6-0.2l-23.2-2.9c-0.2,0.2-0.3,0.4-0.4,0.4L60.6,74c-0.1,0.1-0.8,0.6-1.5,0.6
					c-0.9,0-1.4-0.6-1.5-0.7L44.5,56.4l1.2-0.9L58.7,73c0,0,0.2,0.2,0.3,0.2c0.2,0,0.5-0.1,0.6-0.3l3.5-3.7c0.1-0.1,0.3-0.4,0.3-0.4
					c0-0.1-0.1-0.5-0.2-0.8l0-0.1l-8.2-25.2c0-0.2-0.2-0.6-0.5-0.8c-0.2-0.2-0.7-0.2-0.8-0.1l-0.1,0L24.6,42l0,0
					c-0.1,0-0.3,0.1-0.6,0.3c-0.4,0.4-0.5,0.8-0.5,0.8l0.3,17.7c0,0.2,0.1,0.5,0.1,0.7C24,61.5,24.2,61.5,24.4,61.5z"/>
				<g>
					<g>
						<path fill="#FAA943" d="M41.6,89c-4.7,0-8.5,3.8-8.5,8.5c0,4.7,3.8,8.5,8.5,8.5c4.7,0,8.5-3.8,8.5-8.5
							C50.1,92.9,46.3,89,41.6,89z M41.6,105c-4.1,0-7.5-3.4-7.5-7.5c0-4.1,3.4-7.5,7.5-7.5c4.1,0,7.5,3.4,7.5,7.5
							C49.1,101.7,45.7,105,41.6,105z"/>
						<path fill="#FAA943" d="M131.7,91.6c-1.6-1.6-3.7-2.5-6-2.5c-4.7,0-8.5,3.8-8.5,8.5c0,4.7,3.8,8.5,8.5,8.5h0
							c4.7,0,8.5-3.8,8.5-8.5C134.1,95.3,133.3,93.2,131.7,91.6z M125.6,90.1v-0.2l0,0V90.1c4.1,0,7.5,3.4,7.5,7.5
							c0,4.1-3.4,7.4-7.5,7.4c-4.1,0-7.5-3.4-7.4-7.5C118.2,93.4,121.5,90.1,125.6,90.1z M125.6,105.9L125.6,105.9L125.6,105.9
							L125.6,105.9z"/>
						<polygon fill="#FAA943" points="24.6,89.1 23.6,89.1 23.6,106 33.5,106 33.5,105 24.6,105 						"/>
						<polygon fill="#FAA943" points="63.4,89.1 62,89.1 52.9,98.2 52.9,89.1 51.8,89.1 51.8,106 52.9,106 52.9,99.7 55.9,96.7
							63,106 64.3,106 56.6,95.9 						"/>
						<path fill="#FAA943" d="M71.7,89.2c-0.2,0.1-0.2,0.3-0.2,0.3l-6.3,16.4l-0.1,0.2h1.1l2.2-5.7h7.5l2.2,5.7h1.1l-6.3-16.5
							c0,0-0.1-0.2-0.2-0.3c-0.1-0.1-0.5-0.1-0.5-0.1S71.9,89.1,71.7,89.2z M75.5,99.3h-6.7L72,91c0,0,0-0.2,0.2-0.2
							c0.1,0,0.2,0.2,0.2,0.2L75.5,99.3z"/>
						<polygon fill="#FAA943" points="81.8,89.1 80.7,89.1 80.7,106 90.6,106 90.6,105 81.8,105 						"/>
						<polygon fill="#FAA943" points="93.4,97.7 100.8,97.7 100.8,96.7 93.4,96.7 93.4,90.1 102.7,90.1 102.7,89.1 92.3,89.1
							92.3,106 103,106 103,105 93.4,105 						"/>
						<path fill="#FAA943" d="M116.1,93.6c0-1.7-0.6-3-1.7-3.7c-0.9-0.5-2.3-0.8-4.1-0.8h-5.7v17h1.1v-7.9h4.9
							c1.1,0,1.9,0.2,2.5,0.4c0.7,0.3,1.8,1,2,1.9c0,0.1,0,0.3,0,0.6c0,0.3,0,0.6,0,1.1v3.9h1l0-3.3c0-2,0-2.1,0-2.2
							c-0.1-1.5-1.4-2.5-2.6-2.9C115.2,96.9,116.1,95.6,116.1,93.6z M105.7,90.1h4.6c0.4,0,0.9,0,1.2,0c0.4,0,0.6,0,0.8,0.1
							c1.8,0.3,2.7,1.5,2.7,3.4c0,2.4-1.4,3.5-4.4,3.5h-5V90.1z"/>
					</g>
				</g>
				<path fill="#FFFFFF" d="M127.5,83.5h-14.3l1.3-1.3c2.1-2,3.2-4.7,3.2-7.5c0-0.9-0.1-1.9-0.4-2.8l-0.3-0.9h10.4
					c3.4,0,6.3,2.8,6.3,6.3C133.7,80.7,130.9,83.5,127.5,83.5z M116.6,82.1h10.9c2.6,0,4.8-2.2,4.8-4.8c0-2.6-2.2-4.8-4.8-4.8H119
					c0.2,0.8,0.2,1.5,0.2,2.3C119.2,77.4,118.3,80,116.6,82.1z"/>
				<path fill="#FFFFFF" d="M46.4,83.9H28.7c-3.4,0-6.3-2.8-6.3-6.3c0-3.4,2.8-6.3,6.3-6.3h7.6L46.4,83.9z M28.7,72.8
					c-2.6,0-4.8,2.2-4.8,4.8c0,2.6,2.2,4.8,4.8,4.8h14.6l-7.7-9.6H28.7z"/>
				<path fill="none" stroke="#2E3F4E" stroke-width="2" stroke-miterlimit="10" d="M45,55.9c0.6,0.8,12.3,16.8,13.2,17.7
					C58.6,74,59,74,59,74c0.1,0,0.4,0,0.8-0.3c0.6-0.5,2.9-2.8,5.8-6"/>
			</g>
			<circle fill="#FAA943" cx="103.6" cy="74.2" r="10.3"/>
		</g>
	</g>
</g>
</svg>
