<svg xmlns="http://www.w3.org/2000/svg" viewBox="0 0 126.05 226.24"><title>professionnel</title><g style="isolation:isolate"><g id="Layer_1" data-name="Layer 1"><path d="M113.91,74.33c3.8-2,8.38-2.36,7.55,6.67S115.6,98.64,112,96.71,113.91,74.33,113.91,74.33Z" fill="#f79d67"/><path d="M70.19,128.14c1-3.34,2-6.67,3-10-2.53-.32-5-.16-7.49-.48l.75,9.21C67.63,127.28,69,128.09,70.19,128.14Z" fill="#f79d67"/><path d="M112,52.2c2.21,19.74,11.62,70.48-36.28,69-58.9-1.86-55.33-61.5-55.33-61.5l37.1-27.75,52,14.39Z" fill="#fdd0b2"/><path d="M113.89,69.63a10.13,10.13,0,0,0-2.71-4.15c-3.54-3.17-8.77-3.35-13-1.9-4.61,1.57-8.7,5.66-13.78,5.36-4.36-.25-8.54-1.63-12.87-2.1-8.14-.89-19,2.35-20.35,12.38-.79,6,3.59,10.7,8.7,12.71,8.93,3.5,21.06,2.93,28-4.79a48.82,48.82,0,0,0,11.11,2.14c6.55.18,12.88-3,15.11-9.87l.21-.75C114.24,75.59,114.1,72.55,113.89,69.63Z" fill="#f79d67"/><path d="M112,52.2l-2.49-5.88-52-14.39L26.72,55c-.11,7.8,3.19,15.52,7,22.45l5,9.89A32,32,0,0,0,44,58.93c-.36-1.2-1.11-1.42-2-2.34A123.69,123.69,0,0,0,65,56.44a5.65,5.65,0,0,0,2.34-.58,2,2,0,0,0,1-2c4.36,2,8.55,4.56,12.92,6.58a7.16,7.16,0,0,0,4.24,1c1.45-.27,2.71-1.91,2-3.22,1.2,1.66.95,4.34,2.73,5.36a2.72,2.72,0,0,0,4-3.05c.58,1.32,2.67,1.88,4,1.48a7.44,7.44,0,0,0,3.38-2.58,27.13,27.13,0,0,0,4.68-8.06c2.25,3,4.24,6.13,6.49,9.13l.19.24C112.67,57.5,112.29,54.62,112,52.2Z" fill="#f79d67"/><path d="M87.17,98.28c.14-.2.7-.07,1.52.18a3.16,3.16,0,0,0,2.87-.41,6.66,6.66,0,0,0,2-4.2,9.54,9.54,0,0,0,.09-1.41c0-.24,0-.35,0-.54s-.06-.27-.09-.41l0-.22,0,0h0c0,.05,0-.14,0,.12h0l0,0c-.06-.19-.08-.13-.31-.24A3,3,0,0,0,91.93,91a14.21,14.21,0,0,0-3.66,1l-1.84.72L86,90.82c-1.77-7.92-2.56-13.92-1.8-14.1s2.85,5.48,5,13.32l-2.25-1.1a14.81,14.81,0,0,1,4.74-1.32,6.07,6.07,0,0,1,2.56.29,3.9,3.9,0,0,1,1.36.83c.19.21.38.43.55.65s.23.48.34.72l.07.18,0,0h0l0,.14h0v.06l0,.22c0,.15.06.26.09.46a10.41,10.41,0,0,1,.06,1.21,11.28,11.28,0,0,1-.25,2,10.34,10.34,0,0,1-1.36,3.34,6.11,6.11,0,0,1-2.43,2.33,5,5,0,0,1-1.5.48,5.33,5.33,0,0,1-1.36-.09,4.93,4.93,0,0,1-1.81-.85C87.31,98.94,87,98.45,87.17,98.28Z" fill="#f79d67"/><path d="M71.51,65.12c-8.14-.89-19,2.35-20.35,12.38-.79,6,3.59,10.71,8.7,12.71,8.93,3.5,21.06,2.93,28-4.79a48.82,48.82,0,0,0,11.11,2.14c6.55.18,12.88-3,15.11-9.87,1.48-4.57.78-10.68-2.85-13.93s-8.77-3.35-13-1.9c-4.61,1.57-8.7,5.66-13.78,5.36C80,67,75.84,65.59,71.51,65.12Z" fill="#d42f28"/><path d="M108.87,78.47a10.59,10.59,0,0,1-7,4.83,20.84,20.84,0,0,1-2.88.29h0c-.07,0-.33-.66-.4-.66a29.2,29.2,0,0,1-6.74-1.13h0a11.22,11.22,0,0,1,1.28-8.08,4,4,0,0,1,.22-.34c.17-.26.35-.49.53-.73a8,8,0,0,1,.58-.7,10.36,10.36,0,0,1,5.49-3.51,8.33,8.33,0,0,1,7.79,2.21A6.87,6.87,0,0,1,108.87,78.47Z" fill="#fffef3"/><path d="M103.68,77.58a6.69,6.69,0,0,1-4.68,6h-.23c-2.61.06-5.73-.3-6.92-1.8h0a12.28,12.28,0,0,1,1.28-8.08,4,4,0,0,1,.22-.34c.17-.26.35-.49.53-.73a8,8,0,0,1,.58-.7,12.79,12.79,0,0,1,1.27-1.28,6.57,6.57,0,0,1,1.66-.12A6.67,6.67,0,0,1,103.68,77.58Z" fill="#38b34a"/><path d="M82.12,83.71a14,14,0,0,0-26.06-7.48c.47,5.61,4.57,10.23,9.84,12.23S79.91,88.6,82.12,83.71Z" fill="#fffef3"/><path d="M73.35,77.46a6.69,6.69,0,1,1-4.7-5.26A6.7,6.7,0,0,1,73.35,77.46Z" fill="#38b34a"/><path d="M70.86,78a4.14,4.14,0,1,1-3.06-3.43A4.14,4.14,0,0,1,70.86,78Z" fill="#022e36"/><path d="M82.12,83.71a15.58,15.58,0,0,0-3.44-8.08,15,15,0,0,0-3.16-2.91,12.69,12.69,0,0,0-3.83-1.81,12.38,12.38,0,0,0-4.2-.49,15,15,0,0,0-4.23.78,15.74,15.74,0,0,0-7.2,5,12.87,12.87,0,0,1,6.66-6.41,14.58,14.58,0,0,1,4.65-1.21,14,14,0,0,1,4.85.46,13.81,13.81,0,0,1,4.35,2.19,14.63,14.63,0,0,1,3.31,3.49A12.92,12.92,0,0,1,82.12,83.71Z" fill="#1a1c1d"/><path d="M101.11,76.63a4.14,4.14,0,1,1-3.06-3.43A4.14,4.14,0,0,1,101.11,76.63Z" fill="#022e36"/><path d="M102.6,76.88A1.78,1.78,0,0,1,100.22,79a1.72,1.72,0,0,1-1-1.15,1.78,1.78,0,0,1,2.38-2.13A1.7,1.7,0,0,1,102.6,76.88Z" fill="#fffef3"/><path d="M97,74a2.32,2.32,0,0,1-2.89,2.68,2.29,2.29,0,0,1-1.66-1.78A2.32,2.32,0,0,1,97,74Z" fill="#fffef3"/><path d="M91.85,81.8a10.24,10.24,0,0,1,.73-8.6,13.11,13.11,0,0,1,2.86-3.49,10.5,10.5,0,0,1,4.11-2.17,8.89,8.89,0,0,1,8.65,2.51,7.37,7.37,0,0,1,1.8,4.21,6.15,6.15,0,0,1-1.13,4.22,7,7,0,0,0-1.74-7.39A7.92,7.92,0,0,0,100,69.4a8.82,8.82,0,0,0-3.42,1.71A13.68,13.68,0,0,0,93.83,74,11.87,11.87,0,0,0,91.85,81.8Z" fill="#1a1c1d"/><path d="M72.35,78.29A1.78,1.78,0,0,1,70,80.42a1.71,1.71,0,0,1-1-1.16,1.77,1.77,0,0,1,2.38-2.12A1.7,1.7,0,0,1,72.35,78.29Z" fill="#fffef3"/><path d="M62.73,74.84a2.32,2.32,0,0,1-2.89,2.68,2.31,2.31,0,1,1,2.89-2.68Z" fill="#fffef3"/><path d="M86.48,103.5a6.89,6.89,0,0,1-6.33,1.31,6.21,6.21,0,0,1-4.09-4.57,6.62,6.62,0,0,1,1.85-6,15.6,15.6,0,0,0,2.65,6.23C82,102.26,84.2,104.11,86.48,103.5Z" fill="#fffef3"/><path d="M36.37,55.92c5.44,3.78,7.91,10.86,7.5,17.48s-3.3,12.83-6.76,18.48-14,3.87-19.8.65c-5.53-3-8.5-10.22-10.76-16.12C5.62,77.8,3,77.5,1.83,76.3A7.58,7.58,0,0,1,.21,71.67,46.71,46.71,0,0,1,5,46.19c.08,1-2,1.4-2.94.94A2.48,2.48,0,0,1,1,44.48a7,7,0,0,1,1.38-2.7c4.86-6.7,10.78-13,18.4-16.23-1.89.81-5,.75-7.08.47-1.28-.17-3.84-.41-4.74-1.43-1.94-2.19,2.86-3,4.13-3.24,3.19-.49,7-.49,9.7,1.47a22.06,22.06,0,0,1-7.92-10.73c2.75,3.4,5.55,6.54,8.54,9.72a54.22,54.22,0,0,1-.8-10.17A18.45,18.45,0,0,1,25.37,1.9C26.14.73,27.53-.43,28.8.16A2.27,2.27,0,0,1,30,2.07a6.51,6.51,0,0,1-.38,2.31q-2.28,7.82-4.87,15.51A44.82,44.82,0,0,1,56.84.37,4.38,4.38,0,0,1,60.26,1c.9.78.72,2.66-.47,2.79A76.52,76.52,0,0,1,92.36,6.7,2.92,2.92,0,0,1,94.3,8a2,2,0,0,1-.87,2.29,5.71,5.71,0,0,1-2.51.76c8.93.47,16.92,4.65,23.1,11.11a35.86,35.86,0,0,1,9.83,24.28c-7.72-.5-10.36-.75-16.38-5.62,2.52,2-6.23,19.13-9.55,19-1.66-.07-2.52-2.94-2.31-4.24a9.2,9.2,0,0,1-1.92,4.63,1.68,1.68,0,0,1-1,.84c-.65.11-1.19-.49-1.58-1q-2-2.72-3.92-5.42a3.73,3.73,0,0,1,.55,1.91,1.6,1.6,0,0,1-1,1.75A2.44,2.44,0,0,1,85.18,58a96.79,96.79,0,0,0-19.39-6.86c1.11-.07,1.08,1.6.27,2.36a4.33,4.33,0,0,1-3.16.69C54.21,53.78,44.78,53.72,36.37,55.92Z" fill="#fbca0c"/><path d="M113.22,61.62c.17.36.39.77.77.86.64.14,1.08-.61,1.27-1.24A31.8,31.8,0,0,0,116,45.86a14.86,14.86,0,0,0-2.44-6.08A7.36,7.36,0,0,0,108,36.64c-1.66,0-4.27,1-4.7,2.88s1.86,4.94,2.64,6.6Z" fill="#fbca0c"/><path d="M103.82,222.54c0,2-15.61,3.7-34.86,3.7s-34.87-1.66-34.87-3.7S49.7,218.83,69,218.83,103.82,220.49,103.82,222.54Z" fill="#9f9d99" opacity="0.35" style="mix-blend-mode:multiply"/><path d="M94.25,125.61l9,1,4.75-7,9.89,5.35s-2.62,9.26-9,12.45S92.14,137,92.14,137Z" fill="#f79d67"/><path d="M106.42,124.1l-2.58,3.81-2.36-.25c.26,1.79.53,3.58.77,5.38a11.27,11.27,0,0,0,4.62-1.51,20.74,20.74,0,0,0,4.81-4C109.87,126.5,108.16,125.27,106.42,124.1Z" fill="#fdd0b2"/><path d="M44.18,124.14c-12,5.65-28.33,17.62-42,7.29a12.07,12.07,0,0,0,6.52,13.22C17.31,149.4,30.52,152.5,32,162s1.89,22.46,15.1,18,25.49-6.63,32.5,1.59S96.9,186,94.73,168.79c-1.23-9.66,20.67-9.89,17.58-18.13s-39.95-27-39.95-27Z" fill="#29b686"/><path d="M76.55,130.6c0,6.92,22.54,9.5,22.54,9.5l.62-14.8S76.56,119.38,76.55,130.6Z" fill="#0678a7"/><polygon points="57.71 127.04 66.43 128 78.29 126.36 89.35 201.08 78.39 201.72 74.5 174.06 64.76 174.33 60.66 202.43 51.38 199.8 57.71 127.04" fill="#0678a7"/><path d="M70.07,123.82l2.1-4.63,2.64.17-.73,4.42s7,1.45,13,9.17C87.09,133,74.37,139.28,70.07,123.82Z" fill="#2e3f4e"/><path d="M54.59,177.64l-1.4,16a26.55,26.55,0,0,0,7.25,1.49l1.69-11.59Q58.23,180.76,54.59,177.64Z" fill="#2e3f4e"/><path d="M82.64,182a9.81,9.81,0,0,1-5.61.86l1.75,12.48a27.69,27.69,0,0,0,6.42-.9,17.9,17.9,0,0,0,1.79-.6L85,180.5A14.45,14.45,0,0,1,82.64,182Z" fill="#2e3f4e"/><path d="M49.23,194.92l14.15,2.83-4,24.61h-14c-5.5,0-.78-3.33,1.56-4.41Z" fill="#eb5440"/><path d="M49.65,203.49,48.12,218.8l-.67.31a12.31,12.31,0,0,0-3,1.94c.22,0,.51,0,.88,0H58.29l.28-1.77A47.25,47.25,0,0,1,49.65,203.49Z" fill="#d42f28"/><path d="M90.4,194.92l-14.15,2.83,4,24.61h14c5.5,0,.79-3.33-1.55-4.41Z" fill="#eb5440"/><path d="M91.51,218.8l-1-9.66a50.64,50.64,0,0,1-9.48,10.32l.27,1.63H94.26c.38,0,.67,0,.89,0a12.39,12.39,0,0,0-3-1.94Z" fill="#d42f28"/><path d="M54.88,159.62l-.33,3.74a85.12,85.12,0,0,0,29.27.37l-.59-4A71.77,71.77,0,0,1,54.88,159.62Z" fill="#2e3f4e"/><path d="M119.12,126.21c-4.74-.46-9.16-3-13.06-5.75a77.31,77.31,0,0,1,4.5-8.3,2.57,2.57,0,0,1-1.2-2.88A2.27,2.27,0,0,1,112,108a6.87,6.87,0,0,1,2.71-3.09c1.18-.57,2.9-.17,3.27,1.09a3.46,3.46,0,0,1,4.41,2.12,2.85,2.85,0,0,1,2.59.68,2.79,2.79,0,0,1,1,2.64C124.94,115.4,121.88,121,119.12,126.21Z" fill="#eb5440"/><path d="M120.9,110.42a2.32,2.32,0,0,1-3.54-.42c.1.37-2.11.59-2.49.58a1.09,1.09,0,0,1-.88-.67,3.29,3.29,0,0,1-.22-1.13,6,6,0,0,0-1.16,2.94c2-.16,3.7,1.12,4.56,4.26-.41-1.51,5.39-1.06,5.91-.83C121.42,114.41,120.13,112.07,120.9,110.42Z" fill="#d42f28"/><path d="M104.26,57.85c1.48-.27,3.34-.16,4,1.17s-.28,3-1.61,3.71a18,18,0,0,1-4.33,1.12c-3.09.74-6.44,6.23-7.66,2.42C93.14,61.41,100.91,58.45,104.26,57.85Z" fill="#fbca0c"/><path d="M60.77,58.06A43.28,43.28,0,0,1,77.6,61.14a7.69,7.69,0,0,1,3.2,2,3,3,0,0,1,.36,3.53c-.82,1.12-2.43,1.22-3.81,1.16a54,54,0,0,1-18.1-4.1C54.46,61.72,54.87,58.17,60.77,58.06Z" fill="#fbca0c"/><path d="M73.25,162.29a3.45,3.45,0,1,1-2.71-2.7A3.45,3.45,0,0,1,73.25,162.29Z" fill="#d42f28"/><path d="M36.4,87.46c-8.13-7.49-19.34-11.64-21.69.18s14.84,34,32.63,21.89C55.39,104.06,41.07,91.76,36.4,87.46Z" fill="#fdd0b2"/><path d="M21.24,87C27.07,84.35,36,94.12,37.57,99s2,9.12-4,8.38S23.48,100.94,25.36,96s8.76,1.43,8.76,1.43-4-6.9-7.3-8.76A10.27,10.27,0,0,0,21.24,87Z" fill="#f79d67"/><path d="M44.93,125.84l-9,1-4.75-7-9.89,5.34s2.62,9.27,9,12.45S47,137.24,47,137.24Z" fill="#f79d67"/><path d="M32.24,130.77a13.16,13.16,0,0,0,4.81,1.84c.15-1.56.25-3.13.34-4.69l-2,.21-2.92-4.31a51,51,0,0,1-4.53,2.57A15.64,15.64,0,0,0,32.24,130.77Z" fill="#fdd0b2"/><path d="M62.63,130.82c.22,3.45,4.05,3.78.14,5.18-6.64,2.38-22.68,4.32-22.68,4.32l-.62-14.8S62,119.63,62.63,130.82Z" fill="#0678a7"/><path d="M66.31,118.72l1.39,5.1s-9.43,13.71-27.22,1.74c0,0,13.33-7.62,20-2.84l-.55-5Z" fill="#2e3f4e"/><path d="M20.06,126.43c4.75-.45,9.16-3,13.07-5.74a76.44,76.44,0,0,0-4.51-8.3,2.58,2.58,0,0,0,1.2-2.88,2.25,2.25,0,0,0-2.63-1.24,7,7,0,0,0-2.71-3.09c-1.18-.58-2.91-.17-3.28,1.08a3.48,3.48,0,0,0-4.41,2.13,2.83,2.83,0,0,0-2.59.68,2.78,2.78,0,0,0-1,2.63C14.25,115.62,17.3,121.24,20.06,126.43Z" fill="#eb5440"/><path d="M18.28,110.65a2.32,2.32,0,0,0,3.54-.43c-.1.38,2.11.59,2.5.58a1.06,1.06,0,0,0,.87-.66,3.11,3.11,0,0,0,.22-1.13,6,6,0,0,1,1.16,2.93c-2-.15-3.7,1.12-4.56,4.27.41-1.52-5.39-1.06-5.91-.83C17.77,114.64,19.05,112.29,18.28,110.65Z" fill="#d42f28"/><path d="M6.07,42.11,12,38.4c-4,4.25-6.23,10-7.11,15.84S4.31,66,4.62,71.84a16,16,0,0,1,3.32-9A26,26,0,0,0,13.34,82l.87-6c.35,1.37.71,2.74,1.06,4.11a15.15,15.15,0,0,1,1.1-6.91,12.8,12.8,0,0,1,2.68,5.42A44.85,44.85,0,0,0,16.59,59.2a44,44,0,0,1,6.73,17.37L24.8,67a17.53,17.53,0,0,1,3.14,7.63c.54-2.52,1.08-5,1.61-7.57a21.09,21.09,0,0,1,3.24,13.48,41.33,41.33,0,0,0,.68-18.21,48.21,48.21,0,0,1,3.3,22.41,25,25,0,0,0,.95-21.27c-2.81-6.62-8.57-12.24-8.88-19.43a16.8,16.8,0,0,0-1,6.66,23.26,23.26,0,0,1-2.63-8.08A55.93,55.93,0,0,0,22.13,60a35.7,35.7,0,0,1-1.8-21.42A34.87,34.87,0,0,0,12.5,64.52a33.17,33.17,0,0,1,8.92-31.45,10.05,10.05,0,0,0-7.14,2.39c1.07-.92,3.4-2.84,4-3.95A25.61,25.61,0,0,0,6.07,42.11Z" fill="#fedd10"/><path d="M56.6,46.54,45.71,44.47a55.17,55.17,0,0,1,40,8.31,37.54,37.54,0,0,0-8.18-7.33,50.5,50.5,0,0,1,17.16,5.74c-3-3.33-21.47-12-25.16-14.55,6.18-.94,27.8,7,32.05,11.61C99.13,39,92.87,34.07,82.12,28.36c9.11,0,24.56,9,27.9,14.41-.34-3.68-8.87-13.49-15.27-19,8.49,1.48,18.12,9.72,21.41,14.18A34.24,34.24,0,0,0,70.33,16.46a38.72,38.72,0,0,1,12.84-5.1,49.31,49.31,0,0,0-25.42,5.49A36.59,36.59,0,0,1,70.43,8.19a40.42,40.42,0,0,0-27.38,9A34.79,34.79,0,0,1,51.32,5.78,41.61,41.61,0,0,0,26,29.34,24.31,24.31,0,0,1,41.86,21a18.13,18.13,0,0,0-9,8.17c4.75-3.95,11-5.73,17.21-5.87s12.29,1.23,18.2,3A73.84,73.84,0,0,0,42,27.84,264.68,264.68,0,0,1,68.31,33.5q-14.75-1.66-29.6-2.1a37.48,37.48,0,0,0,20,5.88,152.79,152.79,0,0,1-30.11-2.73A24.4,24.4,0,0,0,44.41,40.6a59.83,59.83,0,0,1-12.95,1.33c-1.91,0,8.16,3.1,9.57,3.53a33.18,33.18,0,0,0,7.48,1.14C51.06,46.78,54.15,46.08,56.6,46.54Z" fill="#fedd10"/></g></g></svg>