<svg id="Layer_1" data-name="Layer 1" xmlns="http://www.w3.org/2000/svg" viewBox="0 0 123.63 130.63"><title>proud</title><path d="M104.53,124.6c-1.52,1.66-3,3.32-4.47,4.87s-3,1.52-4.51,0l-4.12-4.09a1.78,1.78,0,0,0-.3-.16L86.79,128c-1.5.94-2.66,1-3.69.23-1.24-1-1.25-2.21-.84-3.6.46-1.57.84-3.17,1.33-5l-1.51.5c-33,11.5-69.75-7-79.26-40.47-7-24.45-1-45.86,17.4-63.46A57.34,57.34,0,0,1,54.54.42C75.37-1.81,93.09,4.79,107.4,20a59.13,59.13,0,0,1,15.71,33.85,61.2,61.2,0,0,1-6.64,36.75,4.38,4.38,0,0,0-.45,1.7,18.08,18.08,0,0,1-6,12.79c-.71.64-.55,1.24-.4,1.94q1.78,8.94,3.58,17.88a2.76,2.76,0,0,1-1.16,3.16,2.82,2.82,0,0,1-3.36-.34C107.43,126.83,106.19,125.87,104.53,124.6Zm10.14-39.88c.2-.44.34-.72.46-1a56.16,56.16,0,0,0,3.23-33.42,57.59,57.59,0,1,0-34.65,64.8,2.36,2.36,0,0,0,1.6-1.86c.44-1.92.93-3.84,1.5-5.72a1.48,1.48,0,0,0-.57-1.83c-5.18-4.44-7.4-10.09-6.39-16.83a18.17,18.17,0,0,1,34.21-5.29C114.23,83.9,114.42,84.24,114.67,84.72ZM97.76,127.87c2.36-2.27,4.62-4.46,6.89-6.66l5.95,4.56c-1.27-6.29-2.48-12.24-3.7-18.29a18.51,18.51,0,0,1-17.39.47l-4.76,18,6.88-4.34Zm15.47-36.16a15.43,15.43,0,1,0-15.46,15.43A15.41,15.41,0,0,0,113.23,91.71Z" fill="#59bf93"/><path d="M62.44,68.36C49.5,68.08,37.27,65.24,25.92,59a10.48,10.48,0,0,1-1.54-1,2,2,0,0,1,2.1-3.41c.73.32,1.42.76,2.13,1.14a71.29,71.29,0,0,0,38.86,8.16,71.37,71.37,0,0,0,30.8-9c1.34-.75,2.53-.49,3.13.6s.18,2.26-1.14,3a73.42,73.42,0,0,1-27.23,9C69.51,67.88,66,68.06,62.44,68.36Z" fill="#59bf93"/><path d="M36.28,30.74a52.72,52.72,0,0,1,17.35,3.55,2.07,2.07,0,1,1-1.47,3.84,46.24,46.24,0,0,0-14.67-3.19,28.85,28.85,0,0,0-5.41.38,9.46,9.46,0,0,0-4.92,2.42,2,2,0,0,1-3-.08,2,2,0,0,1,.3-3,14.92,14.92,0,0,1,9-3.74C34.52,30.8,35.61,30.78,36.28,30.74Z" fill="#59bf93"/><path d="M87.75,30.75c3.37.05,6.84.46,9.93,2.38a13,13,0,0,1,2.26,1.79,1.92,1.92,0,0,1,.08,2.73,1.87,1.87,0,0,1-2.71.31c-3.93-3.51-8.64-3.33-13.38-2.82a47.3,47.3,0,0,0-11.91,3,2.08,2.08,0,0,1-2.91-1.07c-.46-1.16.07-2.21,1.41-2.77A53.09,53.09,0,0,1,87.75,30.75Z" fill="#59bf93"/><path d="M109.85,91.69a12,12,0,1,1-12.1-12A12,12,0,0,1,109.85,91.69Zm-12,10.7A10.69,10.69,0,1,0,87.1,91.73,10.73,10.73,0,0,0,97.82,102.39Z" fill="#59bf93"/></svg>