<svg id="Layer_1" data-name="Layer 1" xmlns="http://www.w3.org/2000/svg" viewBox="0 0 187.74 74.84"><title>smile</title><path d="M94,74.84C71.8,74.5,51.29,68,34.2,52.46a73.11,73.11,0,0,1-22-36.87,4.78,4.78,0,0,1,.57-3.48c.91-1.28,2.37-.65,3.65-.11A198.44,198.44,0,0,0,98.27,27.7,198.28,198.28,0,0,0,172.54,12a5,5,0,0,1,3.18-.55c1.78.6,1.81,2.22,1.39,3.88A73.78,73.78,0,0,1,150,56.76C133.66,69.33,114.92,74.61,94,74.84ZM34.34,45.26c29.61,32.87,92,32.25,119.9.37-6.87.94-14.19,2.17-21.57,2.89s-14.95.93-22.43,1.36c7.23-1.61,14.48-2.84,21.64-4.47a129.33,129.33,0,0,0,28.42-9.67c1.24-.6,2.75-1.2,3.47-2.25a49.7,49.7,0,0,0,6.79-15.21c-50.82,19.37-101.44,19.43-152.31.41a11.4,11.4,0,0,0,.47,1.71c1.68,3.7,3.43,7.36,5.07,11.08A8.79,8.79,0,0,0,28.53,36,150.2,150.2,0,0,0,61.15,46.27c5.74,1.2,11.55,2.11,17.33,3.15C63.74,49.17,49,48.86,34.34,45.26Z" fill="#59bf93"/><path d="M17.39.05c1.61.32,3.54.62,5.43,1.12a2.5,2.5,0,0,1,2,3.35c-.46,1.66-1.79,2-3.35,1.74a24.35,24.35,0,0,0-5.58-.62,11.34,11.34,0,0,0-10.51,11,35.16,35.16,0,0,0,.35,6c.16,1.55,0,3-1.72,3.33A2.66,2.66,0,0,1,.72,24C-1.77,14.36,2.15,3.12,13.08.58A42.65,42.65,0,0,1,17.39.05Z" fill="#59bf93"/><path d="M187.74,18.47c-.25,1.73-.41,3.47-.77,5.18a2.57,2.57,0,0,1-3,2.29c-1.78-.31-2.11-1.67-2-3.36.14-2.7.48-5.51-.06-8.1-1.41-6.74-7.45-10.3-14.17-8.76-3.16.72-4.54.28-5-1.61s.92-3,3.95-3.66C178.2-2,187.83,6.2,187.74,18.47Z" fill="#59bf93"/></svg>