<svg id="Layer_1" data-name="Layer 1" xmlns="http://www.w3.org/2000/svg" viewBox="0 0 153.33 126.78"><title>soutiens</title><path d="M19.94,88.1c.54-.31.87-.48,1.19-.68,8.77-5.26,18.11-9.07,28.32-10.31S70,76.28,79.82,80.32a5,5,0,0,0,4.07.14A32.71,32.71,0,0,1,95.22,78.2c6.46-.07,11.45,2.24,14,8.67,3.12-.37,6.24-.74,9.36-1.09,4.69-.54,9.38-1.17,14.08-1.56a24,24,0,0,1,12.23,1.92,14.13,14.13,0,0,1,8.35,10.29,2.28,2.28,0,0,1-1.85,3.07c-16.28,4.29-32.54,8.64-48.84,12.84a238,238,0,0,1-37,6.7,95.75,95.75,0,0,1-21.4-.3,53.45,53.45,0,0,0-24.2,2.1c0,1.18,0,2.36,0,3.55a2.19,2.19,0,0,1-2.4,2.38c-5,0-10,0-15.07,0A2.26,2.26,0,0,1,0,124.57a2.21,2.21,0,0,1,2.43-2.22c3.88,0,7.75,0,11.63,0h1.42V87.17H13.33c-3.62,0-7.24,0-10.86,0-1,0-2-.35-2.21-1.35A3,3,0,0,1,.57,83.6a2.5,2.5,0,0,1,1.85-.81c5-.07,10.05-.05,15.08,0a2.17,2.17,0,0,1,2.44,2.44C20,86.09,19.94,87,19.94,88.1Zm128.45,7.52a10.21,10.21,0,0,0-5.67-5.6,19,19,0,0,0-9.26-1.36c-5.34.47-10.67,1.13-16,1.72-2.4.27-4.8.57-7.16.85-.23,2.15-.51,2.58-2.57,3.07-6.82,1.63-13.62,3.41-20.5,4.72-8.42,1.61-16.94,2.49-25.53,1.44a26.08,26.08,0,0,1-9.15-2.62c-1.41-.74-1.9-2-1.32-3.15s1.87-1.51,3.3-.83c.61.29,1.22.61,1.86.85A34.33,34.33,0,0,0,69,96.44c8.9-.07,17.61-1.61,26.27-3.53,3.43-.77,6.83-1.66,10.23-2.49a8.15,8.15,0,0,0-6.91-7.51,21,21,0,0,0-5.07-.18,33,33,0,0,0-10.44,2.78,3.18,3.18,0,0,1-3-.17,27,27,0,0,0-4.09-1.76c-8.23-2.76-16.71-3.14-25.24-2.16C39.88,82.67,30.13,86.86,21,92.74a2.14,2.14,0,0,0-1.12,2.05c0,5.71,0,11.41,0,17.12v4.14a7.65,7.65,0,0,0,.84-.14,56,56,0,0,1,22.77-1.68,97.22,97.22,0,0,0,23.31.22,257.28,257.28,0,0,0,37.82-7.25c12.33-3.25,24.63-6.62,36.95-9.93C143.84,96.68,146.06,96.19,148.39,95.62Z" fill="#59bf93"/><path d="M77.68,12.21l.77-1.29A21.84,21.84,0,0,1,119,19c1,7.87-1.51,14.62-7.66,19.69-10.54,8.7-21.22,17.22-31.85,25.81-1.37,1.11-2.27,1.1-3.64,0C65.25,55.9,54.63,47.37,44.08,38.77A21.86,21.86,0,0,1,59.39.09C67,.66,72.88,4.38,76.9,10.92ZM40.59,21.88a17.15,17.15,0,0,0,6.65,13.75c2.64,2.16,5.3,4.29,7.94,6.43L76.83,59.57c.49.39.85.69,1.51.15C88.55,51.42,98.86,43.25,109,34.84a17.06,17.06,0,0,0,4.45-19.69,17.42,17.42,0,0,0-32.9,2.26,36,36,0,0,0-.61,4.53,2.24,2.24,0,0,1-4.47,0c-.06-.68,0-1.36-.1-2a17.43,17.43,0,0,0-34.75,2Z" fill="#59bf93"/></svg>