<svg xmlns="http://www.w3.org/2000/svg" viewBox="0 0 191.41 181.57"><title>suivre</title><g style="isolation:isolate"><g id="Layer_1" data-name="Layer 1"><path d="M108.69,87.27c-17.21,9.42-28.32,8.88-35.49,6.26-8.48-3.1-19.73-12.15-20.73-10.78a.5.5,0,0,0,0,.37c.5,3.06,3.82,4.25,6.69,6C67,94,72.73,103.82,73.74,112c1,8.44-3.15,13.28.16,17.44,1.46,1.83,4,3,8.14,3.12,13.42.34,25.3,2.32,29.2,11.72s14.46,9.35,17.7-6.34a6.68,6.68,0,0,1,1.47-3.12c4-4.63,11.47-.65,19.71-5.21,2.56-1.41,5.41-3.79,5-4.88s-3.23-.73-5.2-.47a186,186,0,0,1-13.1-13.68,186.33,186.33,0,0,1-14.54-19.21Z" fill="#3d5060"/><path d="M111.73,87.92a62.61,62.61,0,0,1-21,5,42.34,42.34,0,0,1-21.46-4.5c-2.58-1.35-5-3-7.54-4.43A21.49,21.49,0,0,0,53.59,81a9.68,9.68,0,0,0-7.83,2.36,6.38,6.38,0,0,0-1,7.72c1.28-2.73,3.75-4.89,6.87-4.88a18,18,0,0,1,8.9,2.94c2.72,1.64,5.22,3.64,7.93,5.3a38,38,0,0,0,21.75,5.6,34.6,34.6,0,0,0,20.26-7.89,5.52,5.52,0,0,0,1.74-2.11A1.63,1.63,0,0,0,111.73,87.92Z" fill="#2e3f4e"/><path d="M137.7,110.17c-3.18-5-2.5-6.47-5.43-11.33a37.65,37.65,0,0,0-9-10.08c1.38,3.53,3.31,8.39,5.73,14.14,4.16,9.9,5.22,11.71,7.07,13.73,4.69,5.11,9.93,6.62,14,7.79,4.46,1.29,5.86.69,6.56,0,1.48-1.48.79-4.29.65-4.84a3,3,0,0,1-.69,2.3c-1.56,1.67-5.71-.27-7.21-1A28.36,28.36,0,0,1,137.7,110.17Z" fill="#2e3f4e"/><path d="M119.83,60.74a8.33,8.33,0,0,1-3.22-5.38,1.5,1.5,0,0,1,.18-1.14A1,1,0,0,1,118,54a2.39,2.39,0,0,1,.94.82,8.16,8.16,0,0,1,1.58,3.49,5,5,0,0,1,2-1.92,1,1,0,0,1,1.18,0,1.07,1.07,0,0,1,0,1.11A6.09,6.09,0,0,1,119.83,60.74Z" fill="#d42f28"/><polygon points="124.96 87.02 127.13 88.48 124.2 90.84 123.4 90.53 124.96 87.02" fill="#173861"/><path d="M100.72,84c3.19,1,6.82-.06,9.93,1.18,4,1.6,5.71,6.42,9.2,9,4.29,3.16,10.26,2.3,15.39,3.78,3,.86,5.68,2.53,8.45,4s5.78,2.66,8.89,2.51,6.33-2,7.2-5-.86-6.33-2.72-9A81.38,81.38,0,0,0,116.29,60c-5.81-1.92-12-3.19-18-2.19C93,58.72,84.32,62.29,87.09,69c1.22,3,4,5.12,5.88,7.61C95.14,79.42,97.12,82.83,100.72,84Z" fill="#0a0b0a"/><path d="M186.92,28.87c5.15,5.91,5.87,15.09,2.16,22-2,3.65-5,6.63-7.35,10s-4.26,7.53-3.45,11.59,5.29,7.5,9.13,6c-1.18,6.12-7.59,10.41-13.83,10.21s-11.93-4.21-15.29-9.46-4.63-11.61-4.87-17.84a60.91,60.91,0,0,1,7.79-32.12C166.39,20.06,180.75,21.79,186.92,28.87Z" fill="#0a0b0a"/><path d="M122.91,80.42l-3,8.15a3.67,3.67,0,0,0,3.54,2l4.51-6.72Z" fill="#f6a57f"/><path d="M119,98.55c.28.88,1.41,1.27,2.12,1.55,2.46,1,5-.46,7.48-.61s4.81-.55,7.19-.86c0,0,3.69-.51,6.91-1.06,7.65-1.31,16-3.6,18.79-4.39a9.51,9.51,0,0,1-4.43-3.33,9.15,9.15,0,0,1-.71-1.2l-31.23,3.47C120.92,94.48,118.51,97,119,98.55Z" fill="#f9a943"/><path d="M159.26,95.53c-2.09-2.12-3.17-5.1-3.94-8a47.81,47.81,0,0,1,5.47-2.16,1.59,1.59,0,0,1,.58-1.85,1.4,1.4,0,0,1,1.75.46,4.3,4.3,0,0,1,2.53-.39,1.48,1.48,0,0,1,1.13,1.83A2.15,2.15,0,0,1,168,88.22a1.8,1.8,0,0,1,1,1.37,1.74,1.74,0,0,1-.58,1.65C166.35,92.7,162.65,94.16,159.26,95.53Z" fill="#eb5440"/><path d="M168.09,89.28a1.44,1.44,0,0,1-1.21-1.85c-.14.19-1.13-.77-1.28-1a.66.66,0,0,1,0-.68,2,2,0,0,1,.45-.56,3.85,3.85,0,0,0-1.86.62c.88.9.95,2.21-.2,3.89.56-.81,2.67,2.14,2.77,2.48A2.47,2.47,0,0,1,168.09,89.28Z" fill="#d42f28"/><path d="M155.31,89.54l1.44,4.09-15,3.05a8.76,8.76,0,0,0,2.06-3.53,8.63,8.63,0,0,0,.34-2.2Z" fill="#f79327"/><path d="M174.84,49c-2.47,13.72-10.05,56.59-47.61,37.23s-22-61.81-22-61.81l37.3-5.91,32,18.89Z" fill="#fdd4b6"/><path d="M119.44,45.13l-1.38,3.69a20.91,20.91,0,0,0,30,18.73,17.67,17.67,0,0,0,14.85,9.34,15.76,15.76,0,0,0,3.36-.25,59.56,59.56,0,0,0,4.28-9.9C152.18,62.56,133.69,57.25,119.44,45.13Z" fill="#f6a57f"/><path d="M174.84,49l-.38-11.6-30-17.74c-1.61-.25-3.22-.47-4.83-.69l-18.9,3c-3.3,2.94-5.64,7.2-7.71,11.22l-.34,19.94c4.93.72,9.95-1.12,14-4S134,42.48,137.25,38.7A351.46,351.46,0,0,0,173.69,55C174.17,52.72,174.54,50.66,174.84,49Z" fill="#f6a57f"/><path d="M172.33,53.93a1.16,1.16,0,0,1-.62,1,3.85,3.85,0,0,1-2.05.56,11.61,11.61,0,0,1-5.74-1.78L160,51.52a13.83,13.83,0,0,1-1.25-.74c-.4-.23-.75-.46-.85-.82a1.23,1.23,0,0,1,.32-1.15,4,4,0,0,1,2-1,7.48,7.48,0,0,1,3.07.1,12.18,12.18,0,0,1,3.16,1.25,35.43,35.43,0,0,1,4.08,2.76C171.46,52.65,172.24,53.19,172.33,53.93Z" fill="#1a1c1d"/><path d="M116.48,87.1c.19-.23-2.15-1.24-2.3-1.28-2.56-.65-4.91,1.1-7.33,1.56s-4.71,1.16-7,1.77-4.51,1.19-6.72,1.92c-.55.18-3.1.73-3.22,1.5-.35,2.13,3.27,11.62,3.27,11.62l6.31-2.52-.52-4.11s2.69.12.37-1.45L111,93.76Z" fill="#f9a943"/><path d="M103.32,94.18a10,10,0,0,1-3.92-3.89c-2.11.55-4.05,1.09-6,1.72-.1,0-.27.08-.48.14a8.2,8.2,0,0,0-2.09.75c0,1.45,1.53,6.35,2.88,10L98.38,101l-.58-4.52h.36l-1.37-.92,6.58-1.33A.47.47,0,0,0,103.32,94.18Z" fill="#f79327"/><path d="M91.93,105.18l9.33-5.57.08,5.58L93.7,117.55s-4.82-3.55.15-6.56Z" fill="#eb5440"/><path d="M93.8,107.69,95,111.42l-.68.41c-1.13.69-1.73,1.42-1.76,2.18a3,3,0,0,0,.9,2l6.57-10.63A52.49,52.49,0,0,1,93.8,107.69Z" fill="#d42f28"/><path d="M85.36,178.9c0,1.6-10.12,2.79-22.56,2.66S40.28,180,40.29,178.44s10.12-2.78,22.57-2.65S85.38,177.31,85.36,178.9Z" fill="#9f9d99" opacity="0.35" style="mix-blend-mode:multiply"/><path d="M97.67,140l-2.36,10.79-12.45-2.71s-4.35,5.71-3.8-.1a50.19,50.19,0,0,1,2.33-10.79Z" fill="#eb5440"/><path d="M81.72,146.59,92.16,148l-.2-.24c-1.68-2-3.45-3.92-5.22-5.87a21.85,21.85,0,0,1-1.91-2.4l-2.73-.2-2,8.22c-.08.34-.13.62-.16.83A11.85,11.85,0,0,0,81.37,147Z" fill="#d42f28"/><path d="M97.71,111.06a49.23,49.23,0,0,1-15.14,22.32,46.36,46.36,0,0,1-5.63,3.91l2.32,6.44,1-.21a138.83,138.83,0,0,0,11.89-9.18,136.83,136.83,0,0,0,10.54-10.13,5.57,5.57,0,0,1,3.16,1.07,16.8,16.8,0,0,1-2.06,9.4A16.6,16.6,0,0,1,97.5,141l-1.77,7.74a14.76,14.76,0,0,0,2.37-.2,16.69,16.69,0,0,0,7.93-4c6.59-5.54,9-12.94,10.14-16.42a43.06,43.06,0,0,0,1.82-8.62l-17.47-8.58Z" fill="#f9a943"/><path d="M77.33,135.37l4.86,10.45L71,151.69s.07,7.21-3,2.36a50.36,50.36,0,0,1-4.65-9.87Z" fill="#eb5440"/><path d="M71.94,144.83a49.16,49.16,0,0,0,6.16.9l-8.51,5.14,0,.54a11,11,0,0,1-.21,1.94c-.11-.19-.24-.43-.39-.75L65.31,145l2.06-1.44A33.36,33.36,0,0,0,71.94,144.83Z" fill="#d42f28"/><path d="M111,90.35q-6.83,10.71-13.67,21.4c-3,8.88,5,11.74,5,11.74l4.06,1.84s6.85,2.87,11.47-4.83l7.34-26.34a3.51,3.51,0,0,0-1-3.51l-1.32-1.25-6.37-2.3Z" fill="#f9a943"/><path d="M89.27,133.67a6.19,6.19,0,0,1-1.11-2,11.81,11.81,0,0,1-.66-2.17,64.64,64.64,0,0,1-4.74,4.93c-1.18,1.09-2.33,2.09-3.45,3q1,2.17,2.06,4.33c1.12-.71,2.3-1.51,3.5-2.42a50.22,50.22,0,0,0,5.46-4.79A4.73,4.73,0,0,1,89.27,133.67Z" fill="#f79327"/><path d="M105.43,140.72a5.49,5.49,0,0,1-1.24-1.16,6.68,6.68,0,0,1-.89-1.45,14.43,14.43,0,0,1-5.63,4l-1.06,5.22a9.81,9.81,0,0,0,2.23-.13,13,13,0,0,0,5.22-2.48,21.7,21.7,0,0,0,3.77-3.22A5.08,5.08,0,0,1,105.43,140.72Z" fill="#f79327"/><polygon points="120.02 90.53 108.9 115.87 109.93 116.37 121.01 91.01 120.02 90.53" fill="#f79327"/><path d="M117.82,120.49l.69-2.46c-7.07-1.43-13.61-4.76-19.82-8.56l-1.12,1.74A60,60,0,0,0,117.82,120.49Z" fill="#f79327"/><polygon points="111.25 112.57 108.67 114.67 105.46 113.74 106.67 116.85 104.79 119.61 108.12 119.42 110.16 122.06 111.02 118.84 114.16 117.71 111.35 115.9 111.25 112.57" fill="#d42f28"/><polygon points="122.38 85.32 118.94 83.71 118.2 87.77 119.86 88.57 122.38 85.32" fill="#f79327"/><path d="M124.46,91a2.13,2.13,0,0,0-.29-.31l-1.32-1.25-5.63-2a7,7,0,0,0,1.92,3.86,3.88,3.88,0,0,0,5.32-.26Z" fill="#f79327"/><path d="M145.74,77.87c0-.19.4-.3,1-.47a9.69,9.69,0,0,0,2.32-.93,2.76,2.76,0,0,0,1.52-2.3s0,0,0,0,0,0,0,0,0,0,0,0,0,0,0,0a2.23,2.23,0,0,0-.62-.16,9.52,9.52,0,0,0-2.24,0c-.49.06-1,.15-1.44.23l-2.35.47.84-2.19c2.31-6,4.55-10.43,5.17-10.2s-.58,5.07-2.73,11.11l-1.51-1.72c.57-.13,1.12-.22,1.71-.3a10.14,10.14,0,0,1,3,0,3.94,3.94,0,0,1,1.7.68,2.42,2.42,0,0,1,.95,2v.17h0l0,.09v0l0,.14-.06.28a5.16,5.16,0,0,1-.28.78,4.11,4.11,0,0,1-.8,1.17,5.13,5.13,0,0,1-2,1.25,6,6,0,0,1-3.07.27C146.07,78.27,145.72,78,145.74,77.87Z" fill="#f79d67"/><path d="M122.28,33.11a20.13,20.13,0,0,0,11.77,10.68,77.74,77.74,0,0,0,8,1.81,16,16,0,0,1,7.39,3.4c2,1.86,3.23,4.82,2.38,7.43a13.46,13.46,0,0,1,12.79-2.38,29.15,29.15,0,0,1,5.73,3.34,18.62,18.62,0,0,0,5.91,3,7.14,7.14,0,0,0,6.28-1.22c-2.65,4.23-5.17,8.49-9.13,11.53s-9,4.95-14,4.41-9.75-3.85-11.22-8.62c-4.87,4.18-12.36,4.23-17.92,1s-9.11-9.27-10.2-15.59A36.53,36.53,0,0,1,122.28,33.11Z" fill="#d42f28"/><path d="M129.08,49.82s17.24-6.22,16.08,12.56C145.16,62.38,131.18,65,129.08,49.82Z" fill="#fffef3"/><path d="M141.16,57.48a5.21,5.21,0,1,1-1.59-7.19A5.22,5.22,0,0,1,141.16,57.48Z" fill="#97241f"/><path d="M139.48,56.41a3.22,3.22,0,1,1-1-4.45A3.22,3.22,0,0,1,139.48,56.41Z" fill="#3e1211"/><path d="M140.51,57a1.38,1.38,0,1,1-.42-1.9A1.39,1.39,0,0,1,140.51,57Z" fill="#fffef3"/><path d="M153.68,63.37c1.82-3.18,11.4-9.26,13.75,0,0,0-3,5.71-8.28,5.89S153.68,63.37,153.68,63.37Z" fill="#fffef3"/><path d="M160.27,59.59a5.63,5.63,0,0,0-.88-.45c-3,1.1-5.87,3.68-6.68,5.87a6.08,6.08,0,0,0,5,4.16,5.2,5.2,0,0,0,2.56-9.58Z" fill="#97241f"/><path d="M160.18,65.71a3.22,3.22,0,1,1-1-4.45A3.22,3.22,0,0,1,160.18,65.71Z" fill="#3e1211"/><path d="M161.2,66.31a1.38,1.38,0,1,1-.42-1.9A1.38,1.38,0,0,1,161.2,66.31Z" fill="#fffef3"/><path d="M153.68,63.37a1.6,1.6,0,0,0,2.22-.49,1.63,1.63,0,0,0,0-1.76,12,12,0,0,0-2.22,2.23Z" fill="#fffef3"/><path d="M145.16,62.38c-.39,0-.55-1.47-1-3.66a17,17,0,0,0-1.06-3.61,10,10,0,0,0-1-1.83,7.64,7.64,0,0,0-1.52-1.54,8.1,8.1,0,0,0-1.91-1.05,13,13,0,0,0-2.05-.56,20.47,20.47,0,0,0-3.79-.22c-2.23.06-3.65.26-3.77-.09s1.15-1.19,3.53-1.75a14.38,14.38,0,0,1,4.33-.33,12.43,12.43,0,0,1,2.62.53,10,10,0,0,1,2.62,1.38,9.24,9.24,0,0,1,2,2.16,10.45,10.45,0,0,1,1.17,2.44,12.79,12.79,0,0,1,.65,4.31C146,61,145.49,62.4,145.16,62.38Z" fill="#3e1211"/><path d="M167.43,63.36c-.39.12-.85-1-1.9-2.1A4.21,4.21,0,0,0,163.48,60a6.11,6.11,0,0,0-3,.17,16.25,16.25,0,0,0-5.47,3c-.64.52-1.13,1-1.47,1.32s-.61.55-.78.46-.26-.36-.13-.93a6.07,6.07,0,0,1,1-2.09,11.81,11.81,0,0,1,6.14-4.33,7.38,7.38,0,0,1,4.51.05,6.11,6.11,0,0,1,1.77,1.1,5.78,5.78,0,0,1,1.05,1.39,5.36,5.36,0,0,1,.64,2.26C167.69,63,167.61,63.32,167.43,63.36Z" fill="#3e1211"/><path d="M151.35,49.31c-.15.7-1.37,1.16-3.3,1a14.57,14.57,0,0,1-6.92-2.67c-.29-.21-.6-.44-.89-.68s-.46-.38-.77-.66c-.49-.45-.91-.89-1.28-1.28l-1.8-2c-.47-.52-.89-.92-1.19-1.28-.13-.19-.33-.36-.45-.53a.84.84,0,0,1-.18-.54.93.93,0,0,1,.21-.52,1.26,1.26,0,0,1,.66-.43,4.67,4.67,0,0,1,2.68,0,11.53,11.53,0,0,1,3.16,1.54c.51.34,1,.7,1.46,1l1.4,1c1.92,1.36,3.75,2.49,5.11,3.45S151.49,48.6,151.35,49.31Z" fill="#1a1c1d"/><path d="M142.62,17.42c-4.54-1.07-9.32,1.54-12.12,5.27s-4,8.4-5,13-1.85,9.24-4.15,13.3-6.35,7.46-11,7.57A38.31,38.31,0,0,0,100.69,45c-1.43-8.1-1.22-16.9,3.15-23.86a27.48,27.48,0,0,1,20-12.87C132.06,7.43,138.1,10.55,142.62,17.42Z" fill="#0a0b0a"/><path d="M158.63,20.15A145.67,145.67,0,0,0,138.92.52C124.3-1.87,108.37,4.07,99.24,15.74c-6.58,8.42-9.66,19-12.49,29.29-1.44-4.16-7.5-5.8-11.67-4.39S68,46.05,66.9,50.3a18.81,18.81,0,0,0,22.88,23,24.32,24.32,0,0,0,12-7.87,56,56,0,0,0,7.69-12.29c3-6,5.68-12.38,10.45-17.1,5.1-5,12-7.71,19-9.67S152.17,23.26,158.63,20.15Z" fill="#0a0b0a"/><path d="M81.35,44.1c-3.33-1.24-7.3.27-9.44,3.1a12.18,12.18,0,0,0-1.74,10.16,12.37,12.37,0,0,0,6.16,8.21,8.83,8.83,0,0,0,9.87-1.22c2.62-2.55,3-6.71,2.13-10.25a6.51,6.51,0,0,1-9.85,7.15A6.39,6.39,0,0,0,86,56.19a6.33,6.33,0,0,1-9.73-8.09,6.94,6.94,0,0,0,4,6.25,7.26,7.26,0,0,1-1.89-4c0-1.51,1.42-3.09,2.85-2.62a2.43,2.43,0,0,1,1.47,2.13,6.74,6.74,0,0,1-.49,2.68A5,5,0,0,0,82.93,48c.38,1.06,1.93,1.73,2.28,3.23C87,48.77,83.61,44.94,81.35,44.1Z" fill="#1c1c1d"/><path d="M176.37,23.68c4.25,2,7.87,5.78,8.62,10.41a27,27,0,0,0-7.31-7.55,7.82,7.82,0,0,1,4.08,8A16.6,16.6,0,0,0,165.2,25a10.12,10.12,0,0,1,4.48-1.35c-2.11.12-4.34.13-6.43.09C164.79,19.59,173.8,22.48,176.37,23.68Z" fill="#1a1c1d"/><path d="M187.51,33.18a10.91,10.91,0,0,1-.3,12.23,9.8,9.8,0,0,0-2.33-10.59,8.2,8.2,0,0,1,.55,7.73,11.3,11.3,0,0,0-7.94-10.09,12.3,12.3,0,0,1,7.37.47c-2-.77-3.27-2.52-5.54-3.09a13.15,13.15,0,0,0-6.68.15C177,25.13,184.46,28.41,187.51,33.18Z" fill="#1c1c1d"/><path d="M160.37,6.24a25.69,25.69,0,0,1,14.42,11.38c1.67,2.82,2.78,6.31,1.57,9.35a8.64,8.64,0,0,1-6.68,5,16.76,16.76,0,0,1-8.52-1.15c-7.51-2.77-15.08-9.11-18-16.74C139.22,3.81,154.37,4.39,160.37,6.24Z" fill="#0a0b0a"/><path d="M124.87,25.57c-1.7,4.71-1.15,9.9-1.76,14.87s-3.06,10.42-7.89,11.76a11,11,0,0,0,4.57-11.65,15.71,15.71,0,0,1-4.49,8.9q1-9.68,2-19.35a20.89,20.89,0,0,0-3.58,16.37c-2.13-3.5-3.62-7.58-3.13-11.64,1.09-9.09,11.87-16.56,20.13-18.8,4.27-1.16,9.26-.64,12.5,2.37a24.5,24.5,0,0,0-9.9-.34A11.71,11.71,0,0,0,124.87,25.57Z" fill="#1c1c1d"/><path d="M120.45,15.15a35.24,35.24,0,0,0-15.87,21.53A30.42,30.42,0,0,1,109.48,23a22.09,22.09,0,0,0-7.86,9.78A38.47,38.47,0,0,1,122.19,7.53,36.9,36.9,0,0,0,95.66,37.34,34,34,0,0,1,111,8.39,34,34,0,0,1,143.74,6.6c-5.33-.81-10.91-1.6-16,.23,5.13-1.85,13.58,1.77,18,4.12A35.68,35.68,0,0,0,120.45,15.15Z" fill="#1c1c1d"/><path d="M147.9,22.71c.73-1,2.53-.44,3,.72a4.72,4.72,0,0,1-.45,3.63,7.84,7.84,0,0,0-1.08,3.56,4.54,4.54,0,0,0,3.27,3.74,12.89,12.89,0,0,0,5.22.27,7.72,7.72,0,0,1-2.52-1.21,1.7,1.7,0,0,1-.61-2c.44-.84,1.59-.9,2.45-1.28a3.9,3.9,0,0,0,1.92-4.36,8.16,8.16,0,0,0-2.82-4.22,8.34,8.34,0,0,0-5.16-2.39C149.19,19.15,148.1,20.79,147.9,22.71Z" fill="#0a0b0a"/><path d="M153.13,22.8a5,5,0,0,1-.57,3.09,10.42,10.42,0,0,0-1.11,3,2.62,2.62,0,0,0,1.22,2.72,5.14,5.14,0,0,1,1.6-5.61,12.06,12.06,0,0,0-1,3.48l2.12-3.33a8.47,8.47,0,0,1-.87,3.15,8.65,8.65,0,0,0,1.83-2.89,3,3,0,0,0-.75-3.15A5.27,5.27,0,0,1,157,28.8a5.09,5.09,0,0,0-2.85-7.46,3.64,3.64,0,0,1,1,3.56c.36-1.28-2.11-3.38-3.07-3.68A3.09,3.09,0,0,1,153.13,22.8Z" fill="#1c1c1d"/><path d="M111.2,51.56c-3.6-7.81-10.42-14.15-15.65-6.34s.52,28.86,16.93,25.49C119.9,69.18,113.28,56.05,111.2,51.56Z" fill="#fdd4b6"/><path d="M100.43,47.57c5-.18,8.49,9.51,8.17,13.49s-1.27,7.17-5.39,4.83-5.33-7.64-2.49-10.66,5.87,3.65,5.87,3.65-.79-6.15-2.63-8.48A8,8,0,0,0,100.43,47.57Z" fill="#f6a57f"/><path d="M117.79,87.61s-1.43-2.75-8.73-2.27C109.06,85.34,109.66,92.22,117.79,87.61Z" fill="#29b686"/><path d="M130.6,91.77s-3.07,3.51-6.39-.66C124.21,91.11,126.31,89,130.6,91.77Z" fill="#29b686"/><path d="M131.38,146.15" fill="#f79327"/><path d="M142.72,81.39a8.85,8.85,0,0,1-8.15,1.7,8.06,8.06,0,0,1-5.27-5.89,8.48,8.48,0,0,1,2.39-7.78c.74,2.94,1.51,5.65,3.41,8S139.8,82.18,142.72,81.39Z" fill="#fff"/><path d="M142.72,81.39a3.24,3.24,0,0,1-1.35.27,6.36,6.36,0,0,1-3.58-1.28,15.09,15.09,0,0,1-3.93-4.19,23.67,23.67,0,0,1-2.51-6.69l.57.18a7.32,7.32,0,0,0-1.94,3,8.63,8.63,0,0,0-.39,4.13,7.64,7.64,0,0,0,7.28,6.39,9.33,9.33,0,0,0,4.4-1,8.59,8.59,0,0,0,1.06-.62,3.82,3.82,0,0,0,.39-.23s-.05.07-.28.33a6,6,0,0,1-1,.76,9,9,0,0,1-4.53,1.21,7.88,7.88,0,0,1-6.23-3,8.15,8.15,0,0,1-1.74-3.81,9.28,9.28,0,0,1,.42-4.47,7.72,7.72,0,0,1,2.14-3.28l.43-.38.14.55a23.79,23.79,0,0,0,2.36,6.55A15.21,15.21,0,0,0,138.05,80a6.49,6.49,0,0,0,3.33,1.4,4.81,4.81,0,0,0,1,0Z" fill="#f79d67"/><g opacity="0.35" style="mix-blend-mode:multiply"><path d="M35.38,121.77c-2.55,1.14-5.14,2.19-7.71,3.29s-5.17,2.13-7.77,3.16a69.27,69.27,0,0,1-7.82,3,38.89,38.89,0,0,1-8.35,1.44l-.1-.28a38.84,38.84,0,0,1,7.48-4,65,65,0,0,1,8-2.44c2.68-.79,5.36-1.56,8.06-2.3s5.39-1.48,8.11-2.16Z" fill="#9f9d99"/></g><g opacity="0.35" style="mix-blend-mode:multiply"><path d="M22.31,132.4c-1.79.95-3.6,1.86-5.4,2.79l-5.43,2.69A51.79,51.79,0,0,1,6,140.49a31.5,31.5,0,0,1-5.92,1.6L0,141.9a30.42,30.42,0,0,1,5.2-3.24,50.9,50.9,0,0,1,5.64-2.24l5.67-2.15c1.91-.68,3.8-1.39,5.72-2.05Z" fill="#9f9d99"/></g><g opacity="0.35" style="mix-blend-mode:multiply"><path d="M165,58.51q0,1.44,0,2.88a5.74,5.74,0,0,1-.09,1.43,3.68,3.68,0,0,1-.63,1.35h-.1a3.92,3.92,0,0,1-.26-1.48,5.72,5.72,0,0,1,.29-1.4q.32-1.39.72-2.79Z" fill="#9f9d99"/></g></g></g></svg>