<svg id="Layer_1" data-name="Layer 1" xmlns="http://www.w3.org/2000/svg" viewBox="0 0 77.48 73.58"><title>title</title><g opacity="0.5"><path d="M62.5.05c0-.09,0,0-.06,0C62.4.15,62.53,0,62.5.05Z" fill="currentColor"/><path d="M62.61,1.3h-.08l.21.12Z" fill="currentColor"/><path d="M62.58,2.51c.51-.26-.09-.4.09-.67l.1-.07h-.34C62.44,2,62.73,2.29,62.58,2.51Z" fill="currentColor"/><path d="M61.26,3.55c.25-.12.17.09.11-.19l-.06.05A.47.47,0,0,1,61.26,3.55Z" fill="currentColor"/><path d="M61.31,3.41c0-.13-.22.15,0,0Z" fill="currentColor"/><path d="M61.32,4l-.2-.11c-.15.08-.23.25-.32.23C60.88,4.25,61.05,4.17,61.32,4Z" fill="currentColor"/><path d="M61.79,4,61.7,4C61.63,4,61.61,4,61.79,4Z" fill="currentColor"/><path d="M61.51,3.82,61.7,4c.11-.06.32-.12-.07-.06C61.83,3.84,61.64,3.86,61.51,3.82Z" fill="currentColor"/><path d="M61.63,3.69c.15-.14.25-.29.45-.19C62,3.2,61.6,3.37,61.63,3.69Z" fill="currentColor"/><path d="M63.14,2.41l.13-.16-.19-.06C63.18,2.22,63,2.47,63.14,2.41Z" fill="currentColor"/><path d="M60.74,5.2c.16,0,.45-.19.66-.26l-.17-.08A1.31,1.31,0,0,1,60.74,5.2Z" fill="currentColor"/><path d="M61.4,4.94l.27.1C61.72,4.86,61.58,4.87,61.4,4.94Z" fill="currentColor"/><path d="M62.55,3.81,62,3.66a5.11,5.11,0,0,0,.52.21Z" fill="currentColor"/><polygon points="60.56 5.96 60.16 5.97 60.77 5.98 60.56 5.96" fill="currentColor"/><path d="M60.57,6.42c-.35,0-.65.3-.86.28,0,.12.34.14.61.15C60.18,6.79,60.25,6.66,60.57,6.42Z" fill="currentColor"/><path d="M60.73,6.89a3.13,3.13,0,0,0-.41,0A1,1,0,0,0,60.73,6.89Z" fill="currentColor"/><path d="M61.55,5.39a1.94,1.94,0,0,0-.53.3l.52-.22Z" fill="currentColor"/><path d="M61.55,5.46h0l0,.17A.53.53,0,0,1,61.55,5.46Z" fill="currentColor"/><path d="M61.55,5.37v0C61.6,5.37,61.62,5.36,61.55,5.37Z" fill="currentColor"/><path d="M62.16,4.41a.87.87,0,0,0,.91-.15C62.76,4.27,62.54,4.46,62.16,4.41Z" fill="currentColor"/><path d="M62.17,5.1l.12-.23a1.19,1.19,0,0,1-.44.11Z" fill="currentColor"/><polygon points="62.33 5.15 62.17 5.1 62.13 5.18 62.33 5.15" fill="currentColor"/><path d="M61.29,6.39c.23,0,.25.11.28.2a.65.65,0,0,0,.18-.39C61.58,6.24,61.28,6.28,61.29,6.39Z" fill="currentColor"/><path d="M61.47,5.93h0S61.56,5.9,61.47,5.93Z" fill="currentColor"/><path d="M61.56,7.62l.11,0-.1,0Z" fill="currentColor"/><path d="M61.86,6.15C62,6,61.83,6,61.67,6a.21.21,0,0,1,.08.17C61.83,6.18,61.88,6.17,61.86,6.15Z" fill="currentColor"/><path d="M61,7.11a3.14,3.14,0,0,0,.33-.24C61.13,7,60.83,7.14,61,7.11Z" fill="currentColor"/><path d="M61.35,6h0C61.21,6.06,61.26,6,61.35,6Z" fill="currentColor"/><path d="M61.35,6a1.47,1.47,0,0,0,.32,0,.39.39,0,0,0-.17-.09Z" fill="currentColor"/><path d="M65.62,6.73c-.59.16-1.17.11-.61-.24a12.75,12.75,0,0,0-3.34,1.08,1.54,1.54,0,0,1,.84,0c.31-.17.68-.64,1.22-.63.34.15-.17.26-.46.47.7-.32,1.12,0,2.21-.39L65,6.89A2.13,2.13,0,0,0,65.62,6.73Z" fill="currentColor"/><path d="M61.73,7.19l-.07-.06a3.24,3.24,0,0,1-.76.5,1.47,1.47,0,0,0,.67,0l.08-.41Z" fill="currentColor"/><path d="M61.66,6.77a4.24,4.24,0,0,0,1.47-.3c-.07-.21-.5,0-.76-.07.16.32-.32,0-.64.35a.28.28,0,0,1-.16-.16,2.16,2.16,0,0,1-.26.28l0,0h0c.07,0,.12,0,.08,0h0l.22-.05c-.12.15-.16.07-.22.05l-.09,0h0l.32.28C61.74,7,61.73,6.93,61.66,6.77Z" fill="currentColor"/><path d="M64.1,4.16,64,4.2C64.05,4.2,64.1,4.2,64.1,4.16Z" fill="currentColor"/><path d="M63.85,4.39c-.08,0-.27,0-.24-.07s.23-.07.38-.12a.56.56,0,0,0-.57.15h.07a2.42,2.42,0,0,1-.79.56A9.88,9.88,0,0,0,63.85,4.39Z" fill="currentColor"/><path d="M63,5.52l.31.22.45-.29-.28.09C63.55,5.34,63.21,5.48,63,5.52Z" fill="currentColor"/><polygon points="61.25 7.75 60.59 7.91 61.52 7.81 61.25 7.75" fill="currentColor"/><polygon points="61.33 8.14 60.74 8.3 61.09 8.3 61.33 8.14" fill="currentColor"/><path d="M74.64,27.24l.17.05A.55.55,0,0,0,74.64,27.24Z" fill="currentColor"/><path d="M74.56,26.6l-.28.06C74.44,26.65,74.55,26.63,74.56,26.6Z" fill="currentColor"/><path d="M62.92,17.7c-.68.34-1.75.8-.88.53l.84-.29C62.69,17.9,62.76,17.81,62.92,17.7Z" fill="currentColor"/><path d="M69.88,22.5l.21-.09-.7.11Z" fill="currentColor"/><path d="M72.79,21.74l-.42.3A2.47,2.47,0,0,0,72.79,21.74Z" fill="currentColor"/><path d="M75.81,30.55l.54-.06C76.33,30.33,76.07,30.48,75.81,30.55Z" fill="currentColor"/><path d="M61.87,12.16c-.3.21-.43.34-.46.43C61.86,12.31,62.54,12,61.87,12.16Z" fill="currentColor"/><path d="M68.27,28.87a.88.88,0,0,0,.39,0A.76.76,0,0,0,68.27,28.87Z" fill="currentColor"/><path d="M61.46,12.91l.18-.12c-.15,0-.27-.09-.23-.2C61.08,12.79,60.87,13,61.46,12.91Z" fill="currentColor"/><path d="M77.26,43.36s0,0,0,0S77.27,43.38,77.26,43.36Z" fill="currentColor"/><path d="M76.55,47.43a.76.76,0,0,1-.07-.13A.27.27,0,0,0,76.55,47.43Z" fill="currentColor"/><path d="M61.06,9.86c-.05-.07-.08,0,0,0Z" fill="currentColor"/><path d="M63.82,8.62a1.3,1.3,0,0,0,.35-.07A1.38,1.38,0,0,1,63.82,8.62Z" fill="currentColor"/><path d="M66.79,12.19h0C66.94,12.13,66.91,12.14,66.79,12.19Z" fill="currentColor"/><path d="M61.38,9.64a.74.74,0,0,0-.21.17Z" fill="currentColor"/><path d="M61,9.75l.07-.09C61,9.68,60.91,9.71,61,9.75Z" fill="currentColor"/><path d="M61.1,10c0-.05,0-.1.07-.16l-.11,0Z" fill="currentColor"/><path d="M75.26,36.86l0,0C75.4,36.92,75.37,36.89,75.26,36.86Z" fill="currentColor"/><path d="M72.25,17.19h0l0,0Z" fill="currentColor"/><path d="M72.91,17.3c-1,.17-.92.07-.72-.09L69.86,18Z" fill="currentColor"/><path d="M75.08,28.71l.47-.35c.88,0,.61.27,1.29-.14-1.77.5-.28-.76-2.09-.26l.36-.25c0,.05.1,0,.09.06.82-.52-1.36.2-1.17-.22a.8.8,0,0,1,.61-.31l-.51-.13c0-.08.35-.16.32-.07l-.22-.36,0,0a8.91,8.91,0,0,1-1,0c.25-.18.21,0,.44-.1l-.51-.09c.48-.23,1-.19,1,0,1.86-.77-.52,0,.51-.82l.28.14c1.07-.46.65-.51,1.3-1-.36.17-1.65,1-2.18.9.14-.11.19-.23-.23-.24.69-.21.5-.29.43-.43l.93-.27a4.85,4.85,0,0,0-1.21.08c0-.22.77-.47,1.38-.7.1-.36-1.13.56-1.38.25.31-.37-.1-.43-.75-.57.3-.28.6-.14.86-.29l-.8.07s.25-.1.37-.13c-.33,0-1,.28-1.28.15-1.1.26,1.48-.9.19-.8a7.32,7.32,0,0,1,1-.28,6.38,6.38,0,0,0-1.83-.09l.61-.45a5.4,5.4,0,0,1-2.49.46l-.8.41-.66-.15a4.16,4.16,0,0,1,1-.24h-.26a4.48,4.48,0,0,1,1.56-.43l-.6.31A15.34,15.34,0,0,0,72,22a.71.71,0,0,1-.31,0,2.3,2.3,0,0,0,.43-.1c.11,0-.12,0-.4,0l1.13-.41-.46.12.65-.65c-1.22,0-3,.29-3.69,0a19.81,19.81,0,0,0,2.52-.72c-1.09.47.55.24.36.57.09-.17.59-.29.77-.31L72,20.28c.86-.25.62-.29,1-.52-1.69.6-1.2,0-1.77,0,.58-.19,1.19-.32,1.09,0,1.27-.64-2.11.29-1-.29,0,.05-.06.11.24,0-.55,0-.2-.41.34-.49l0,.05c.15-.43-.17-1.12-1.77-.7.2-.06,1.91-.52,2.23-.59l-5.52.95c1.39-.35,4.64-1.54,5.47-1.47.18-.15.4-.33-.12-.36a12.21,12.21,0,0,1-2.12.7A19.35,19.35,0,0,0,72,16.46a8.51,8.51,0,0,1-2.47.58c.34-.08,2.18-.66,2.42-.68l-2.25.3a13.71,13.71,0,0,0,2.45-.79c-.42.16,0-.32-.25-.34l-.48.29c.25-.49-3.21.54-3.2.13a13.83,13.83,0,0,0,3.09-1,52.32,52.32,0,0,1-6.61,1.17l.64-.26-.83,0c1.78-.35,5.56-1,7-1.15.49-.3.77-.27.65-.47.6-.26,1-.16,1-.11l.27-.62c-1.34.42-1.46,0-2.58.37l1.55.13c-1.33.42-3.9.81-3.77.39.51-.25,2.42-.64,2.86-.78-.47.09-1-.08-.67-.21l.77-.06c.44-.34-1.88.21-.68-.41.06-.1,1.64-.75.85-.53-1.48.59-6.2,2-7.37,2.27a18.67,18.67,0,0,1,2.06-1.18c1.15-.49,2.9-.64,3.88-1.06a6,6,0,0,1-1,.17c.28-.17,1.14-.29.91-.43-1.36.37,0-.4-1.17.25-.44-.07.21-.27.08-.46a12.76,12.76,0,0,1-3.41.6,9.18,9.18,0,0,0,1-.34c0-.41.53-.78.43-1.13a4,4,0,0,1,1.19-.49c-.25,0-.69.1-.76,0,1-.53.26.18,1.52-.36a4,4,0,0,1-1.63,0c-1.11.38-.1.42.42.43a10.69,10.69,0,0,1-4.09.53c-.44-.19,1-.43.73-.41.13-.63-2.72.3-1.71-.49a16.55,16.55,0,0,1,2.52-.8c.42.13-.5.54-.42.69l.4-.33c.33,0,.62.07.37.24.81-.41-.1-1,.51-1.61a2.41,2.41,0,0,0-1,.15l.16.09c-.69.34-1,0-1.35.31-.55,0-1.35,0-1-.38l1-.34c-.29.09-.56.34-.24.32-.45,0,1.24-.78-.05-.53l-.64.39c-.52,0-1.54,0-1.25-.31-.92.38.11,0-1,.51,1.36-.55,0,.64,1.39,0-1.29.56-.53.46-1.65,1,.32-.11.62-.27.47,0l.29,0,0,0,0,0h0a2.14,2.14,0,0,1,.5-.26c.76-.12.78.2,1.2.18-.15.16-.4.07-.75.24l.62,0c-.75.24-1.25.69-1.71.54l0,.26c-.42.28-.59.53-.25.56-.17.17.9,0,.27.12l.53.24-.2.06c-.08.42,1.48.38,0,1.26.23.07.52.12.3.4l-.73.27c.28.08-.68.71.11.55-2,.78-.32.92-.62,1.31l1-.29c0,.22.32.32.78.43l.89-.28c.79,0-.49.72-.3,1-.35.08-.29,0-.1-.14-1.91,1,1.72.37.37,1.15.36,0,.27.08.07.21h-.06s0,0,0,0l-.43.26a3.45,3.45,0,0,0,.44-.24.8.8,0,0,0,.45.16l-.93.32h0c-.31.2.48-.05,1.18-.32a2.74,2.74,0,0,0,.61,0c-1.49.53.61.11-1,.69.82-.16.79.31,2.45-.12-.22.07-.31.13-.34.08-.15.16-.29.32.21.29l-1.15.39,1.65-.23a4.81,4.81,0,0,1-2,.66c1.51-.07.63.12,2.08,0l-.74.2c.08.09,1.11,0,.54.21-1.27.64.26,1.22-.69,2.17,1.94-.71-.76.54.78.11a3.23,3.23,0,0,1-1.12.35c.59.17-.51.67.84.5-.44.17-.7.14-1,.25.11,0,.43,0,.18.09a1.38,1.38,0,0,1-.62.08c.23.28,1.62-.1,2.92-.46-.55.34-.43.39.44.26-.39.18-.79.4-1,.25,0,.13-.34.85.67.56-.24.11,0,.18.11.17,0,.27,0,.32.13.53l.13-.11c1.22-.26.34.12.55.28l-.13,0c-.68.7.47.07-.33.8l.71-.24c1.55-.41-.77.67-.09.75l.37-.21c.56,0-1.92,1-2,1.19s-.23,0-.35,0c-.73.62.94-.23,1.25,0-.47.2-1.27.31-1.28.52-.35.2,1.78.06,1,.59a1.94,1.94,0,0,1,1-.29c.19.16-1.17.94,0,.77a.68.68,0,0,1-.26.12,3,3,0,0,0,1.3.26c-2.16.79,1.4.61-.61,1.2l.28.43-.2.05c0,.33.49.29,1,.26a.79.79,0,0,1-.4.13c-.22.54-.11.56,1,.64l-.59.22c.37,0-.68.89.17,1.1a.8.8,0,0,1-.28,0c.84.28-1,1.57,1,1.16l.6.17c0-.45.87-.19,1.13-.46.16.13-.45.59-.61.42l.08,0c-1,.22-.17.6-.84.79.35.78.15,1.7.44,2.44l.63-.28.06.27c-.12.11-.47.24-.52,0-.33.21.44.22.58.18-.12.44-.81.08-.79.2l.12.13.06-.05c.31,0,.59,0,.65.2s-.36.19-.36.25-.06,0,0,.09l.09.33.43-.27c.29.08.09.32.58,0-.75.47.17,1.31,0,1.52a.62.62,0,0,1,.52.57c.06-.09.51-.27.53,0-1,.2-.26.51-.84.87.36-.28.36.57.85.16,0,.2-.32.11-.46.3.49.33.19,1,.54,1.47.09,0,.2-.15.39-.08l-.35.41c.1.08.56-.06.33.22.07-.05.16-.13.22-.06a3.65,3.65,0,0,0,.55,1.57,3.76,3.76,0,0,1,.45,1.63c0-.17.09-.08.14,0,0-.08.12,0,.18-.07,0,.16,0,.32,0,.48.19,0,.22.46.37.46L77,48c.22.14.28-.36.52-.41-.27-.15.23-.67-.17-.93,0-.09.1,0,.16,0-.13,0-.19-.15-.17-.37h0a4.85,4.85,0,0,1,0-1.53l-.19.11a.45.45,0,0,1,.1-.27c-.33-.07,0,.39-.3.34.37-.3-.2-1,.3-1.24,0-.21-.25.14-.29-.07l.14-.1h-.2c0-.15.19-.27.31-.32s0,.09.07.12c.16-.23-.13-.49-.08-.57l-.07.23c-.24-.53-.11-1.32-.58-1.76l-.14.08c-.35-.34.1-.39-.12-.81h0c-.17-.05-.27-.15-.28-.28.2.06.32-.33.55-.23-.4-.37-.28-.16-1-.28l.26-.15c-.27,0-.41,0-.54-.21.29.12.4-.27.77-.16.55-.68-.79-.53.12-1-.88,0-.38.56-.58.49-.24.18-.66,0-.62-.17s1-.59.94-1c0,0,.07,0,.08.07.2-.22-.36-.2,0-.49-.57.06,0-.25-.72-.07l.23.31c-.21-.15-1.09-.09-.77-.54a1.3,1.3,0,0,1,.49.06c.19-.16-.19-.15,0-.31.73-.19.25.39.82.45.28-.2-.58-.27.21-.38-1,.13.06-.43-.75-.47L76,36c-.07,0-.3,0-.3-.13l.6,0c-.53-.07.38-.55.08-.68.07.43-.54.26-.84.54-.72-.35,1.15-.66.84-1.2.08.06-.24.39-.47.33a1.24,1.24,0,0,1,.48-.5c-.16-.37-.49.21-.81.13.56-.31-.27-.13-.5-.24l.5-.15c.24-.55-1.08.19-.77-.33l.74,0-.22-.16.59-.13c-.47-.1-.37-.2-.24-.48-.36.16-1,.25-1,.06.29-.23.52-.08.39-.34.35,0,.78-.09.31.18.18,0,.35,0,.52-.07.34-.25,0-.4,0-.5a.29.29,0,0,1-.11.15l-.83-.19a.94.94,0,0,1,.54-.12c-.07-.07-.33,0-.4-.16a2.4,2.4,0,0,1,1.15-.13l-.56-.25c.19-.08.51-.36.69-.36.25-.3-1-.27-.66-.67a.46.46,0,0,1-.26,0c.06-.31.62-.73-.1-.85l.86-.45c-.24-.19-1.08.58-1.48.26s.74-.34,1-.51c-.47,0-1.46,0-.76-.49C75.12,28.54,75,28.65,75.08,28.71Zm-1-3c.16,0,.63,0,.23.16C73.5,26.08,73.86,25.92,74.07,25.75Zm-2.8-4.14c.27,0,.15.08-.12.24C71.07,21.81,71.08,21.74,71.27,21.61Zm-9.5-11h0C61.5,10.83,61.63,10.74,61.77,10.6Zm.34-.39a1.11,1.11,0,0,0-.35.08c.21,0,.23,0,.18.11C62.16,10.32,62.3,10.24,62.11,10.21ZM72.68,38.55l.08-.08C72.93,38.55,72.81,38.55,72.68,38.55Z" fill="currentColor"/><path d="M72.45,21.83,72,22A1,1,0,0,0,72.45,21.83Z" fill="currentColor"/><path d="M75.71,30.56s0,0,0,0l.11,0Z" fill="currentColor"/><path d="M70.87,12.15a2,2,0,0,1-.46.25C70.65,12.33,70.84,12.25,70.87,12.15Z" fill="currentColor"/><path d="M60.7,9.07l.19.13c0-.08.13-.16.25-.24C61,9,60.71,9.13,60.7,9.07Z" fill="currentColor"/><path d="M64.94,6.18c-.09,0,0,0-.12,0l-.31.1C64.56,6.34,64.84,6.34,64.94,6.18Z" fill="currentColor"/><path d="M63.19,8.16c.63-.2.4-.25.26-.34a0,0,0,0,1,0,0C62.58,8.06,62.88,8.11,63.19,8.16Z" fill="currentColor"/><path d="M63.43,7.79s-.06-.06,0-.11C63.05,7.77,63.33,7.75,63.43,7.79Z" fill="currentColor"/><path d="M61.62,10c.18-.12-.87.22-.59.1C60.15,10.27,62.1,10.18,61.62,10Z" fill="currentColor"/><polygon points="65.24 7.44 64.48 7.72 65.12 7.6 65.24 7.44" fill="currentColor"/><path d="M64.92,8.58l.17-.26a.64.64,0,0,1-.29,0C64.81,8.47,64.68,8.65,64.92,8.58Z" fill="currentColor"/><path d="M64.8,8.35c0-.07,0-.13-.17-.12A.27.27,0,0,0,64.8,8.35Z" fill="currentColor"/><polygon points="65.56 7.64 65.41 7.74 65.39 7.9 65.56 7.64" fill="currentColor"/><path d="M65.29,10.73l.32.13c.32-.07.5-.19.35-.23A1.56,1.56,0,0,0,65.29,10.73Z" fill="currentColor"/><path d="M67.56,9.36a4,4,0,0,1-.64.29L68,9.33Z" fill="currentColor"/><path d="M68.05,9.88c.32-.07,1,0,.84-.2C68.57,9.75,68.23,9.62,68.05,9.88Z" fill="currentColor"/><polygon points="67.6 13.47 67.57 13.42 65.55 14.03 67.6 13.47" fill="currentColor"/><path d="M73.24,14.85c.43-.4-1.26.31-.71-.1-.49.08-.45.33-.87.39C72.2,15.15,71.93,15.31,73.24,14.85Z" fill="currentColor"/><path d="M71.66,15.14h-.33A1.67,1.67,0,0,0,71.66,15.14Z" fill="currentColor"/><polygon points="76.68 48.03 76.71 48.2 76.74 48.08 76.68 48.03" fill="currentColor"/><path d="M77,48.28l-.11.08.16,0S77,48.32,77,48.28Z" fill="currentColor"/><path d="M75.87,24.73l-.23.05c-.24.1-.25.14-.28.23Z" fill="currentColor"/><polygon points="75.54 27.2 75.55 27.15 74.77 27.46 75.54 27.2" fill="currentColor"/><path d="M76.78,28.82c0-.09-.16-.13-.14-.22C76.8,28.73,75.85,29.12,76.78,28.82Z" fill="currentColor"/></g><g opacity="0.5"><path d="M19.82,22.14c0-.1-.07,0-.09,0S19.83,22.12,19.82,22.14Z" fill="currentColor"/><path d="M20.73,23.26l-.07,0h.27Z" fill="currentColor"/><path d="M21.5,24.4c.27-.51-.35-.33-.37-.68l.05-.11-.3.18C21.06,24,21.48,24.12,21.5,24.4Z" fill="currentColor"/><path d="M21,26.05c.15-.24.21,0,0-.23l0,.07A.58.58,0,0,1,21,26.05Z" fill="currentColor"/><path d="M21,25.89c-.07-.13-.1.26,0,0Z" fill="currentColor"/><path d="M21.36,26.44h-.24c-.08.15,0,.35-.14.37C21.15,26.91,21.24,26.74,21.36,26.44Z" fill="currentColor"/><path d="M21.78,26.21h-.11C21.63,26.27,21.63,26.31,21.78,26.21Z" fill="currentColor"/><path d="M21.42,26.18l.25,0c.06-.11.2-.28-.1,0C21.71,26,21.56,26.15,21.42,26.18Z" fill="currentColor"/><path d="M21.43,26c.05-.21,0-.4.28-.41C21.46,25.33,21.21,25.71,21.43,26Z" fill="currentColor"/><path d="M21.92,24v-.23l-.2.05C21.83,23.82,21.81,24.16,21.92,24Z" fill="currentColor"/><path d="M21.64,27.87c.12-.12.27-.41.41-.59l-.2,0A1.15,1.15,0,0,1,21.64,27.87Z" fill="currentColor"/><path d="M22.05,27.28l.3,0C22.28,27.05,22.17,27.13,22.05,27.28Z" fill="currentColor"/><path d="M22.32,25.64l-.54.12c.18,0,.38,0,.58-.08Z" fill="currentColor"/><polygon points="22 28.66 21.66 28.88 22.19 28.57 22 28.66" fill="currentColor"/><path d="M22.3,29.09c-.28.21-.36.61-.56.7.11.09.38,0,.63-.17C22.21,29.64,22.18,29.48,22.3,29.09Z" fill="currentColor"/><path d="M22.76,29.44a2.49,2.49,0,0,0-.39.18A1,1,0,0,0,22.76,29.44Z" fill="currentColor"/><path d="M22.48,27.62a1.76,1.76,0,0,0-.26.55l.3-.47Z" fill="currentColor"/><path d="M22.53,27.68v0l.08.18Z" fill="currentColor"/><path d="M22.47,27.6v0S22.52,27.56,22.47,27.6Z" fill="currentColor"/><path d="M22.37,26.4c.24-.09.59-.12.69-.62C22.8,26,22.73,26.25,22.37,26.4Z" fill="currentColor"/><path d="M22.83,27l0-.28c-.08.11-.18.29-.31.34Z" fill="currentColor"/><polygon points="23 26.99 22.84 27.03 22.85 27.13 23 26.99" fill="currentColor"/><path d="M22.91,28.69a.28.28,0,0,1,.38,0,.75.75,0,0,0-.1-.46C23.07,28.39,22.83,28.59,22.91,28.69Z" fill="currentColor"/><path d="M22.76,28.16h0C22.82,28.11,22.82,28.09,22.76,28.16Z" fill="currentColor"/><path d="M24,29.7l.06-.11-.07.08Z" fill="currentColor"/><path d="M23.25,28.17c0-.16-.11-.1-.25,0a.35.35,0,0,1,.19.12C23.25,28.22,23.28,28.18,23.25,28.17Z" fill="currentColor"/><path d="M23.11,29.51a2,2,0,0,0,.13-.39C23.14,29.31,23,29.62,23.11,29.51Z" fill="currentColor"/><path d="M22.71,28.3h0C22.63,28.42,22.66,28.38,22.71,28.3Z" fill="currentColor"/><path d="M22.71,28.3a1.34,1.34,0,0,0,.29-.15.51.51,0,0,0-.21,0A.7.7,0,0,1,22.71,28.3Z" fill="currentColor"/><path d="M26.91,26.77c-.41.46-.95.71-.69.09A10.86,10.86,0,0,0,24,29.59a1.33,1.33,0,0,1,.7-.47c.17-.32.18-.95.65-1.22.4,0,0,.33-.09.68.41-.66,1-.59,1.67-1.5l-.45.14C26.61,27.09,26.86,26.93,26.91,26.77Z" fill="currentColor"/><path d="M23.82,29.2l-.1,0a2.81,2.81,0,0,1-.34.87,1.3,1.3,0,0,0,.57-.38l-.2-.43Z" fill="currentColor"/><path d="M23.49,28.85c.43-.4.74-.43,1.08-1-.2-.16-.45.25-.71.32.35.23-.29.16-.33.67a.33.33,0,0,1-.24-.07,1.89,1.89,0,0,1-.05.39l0,0h0c0-.08.07-.12,0-.07h0l.16-.15c0,.19-.09.13-.16.15l-.06.07h0l.46.1C23.72,29,23.65,29,23.49,28.85Z" fill="currentColor"/><path d="M23.89,25.15a.33.33,0,0,1-.06.1C23.89,25.22,23.92,25.2,23.89,25.15Z" fill="currentColor"/><path d="M23.83,25.5c-.07,0-.22.16-.25.05s.15-.18.25-.3c-.13.06-.37.12-.4.43l.07,0a2.31,2.31,0,0,1-.33.93A10.07,10.07,0,0,0,23.83,25.5Z" fill="currentColor"/><path d="M23.83,27l.41.06.2-.51-.19.23C24.19,26.54,24,26.84,23.83,27Z" fill="currentColor"/><polygon points="23.77 29.98 23.3 30.46 24.05 29.89 23.77 29.98" fill="currentColor"/><polygon points="24.09 30.3 23.68 30.75 23.99 30.57 24.09 30.3" fill="currentColor"/><path d="M48.21,41.27l.18-.05A.35.35,0,0,0,48.21,41.27Z" fill="currentColor"/><path d="M47.72,40.71l-.2.2C47.65,40.81,47.73,40.74,47.72,40.71Z" fill="currentColor"/><path d="M31.75,38.4c-.38.67-1,1.66-.43,1l.54-.7C31.67,38.71,31.67,38.59,31.75,38.4Z" fill="currentColor"/><path d="M41,39.29l.11-.19-.53.46Z" fill="currentColor"/><path d="M43,37.08l-.16.5A2.09,2.09,0,0,0,43,37.08Z" fill="currentColor"/><path d="M51.4,43.74l.44-.33C51.72,43.27,51.59,43.55,51.4,43.74Z" fill="currentColor"/><path d="M27.2,33.78a1.13,1.13,0,0,0-.12.63C27.29,33.92,27.68,33.28,27.2,33.78Z" fill="currentColor"/><path d="M43.72,46.07a.82.82,0,0,0,.32-.23A.64.64,0,0,0,43.72,46.07Z" fill="currentColor"/><path d="M27.33,34.69c0-.09.05-.14.08-.21-.15,0-.29.06-.33-.07C26.92,34.77,26.86,35,27.33,34.69Z" fill="currentColor"/><path d="M61.06,55v0S61.08,55,61.06,55Z" fill="currentColor"/><path d="M63.11,59.13,63,59A.61.61,0,0,0,63.11,59.13Z" fill="currentColor"/><path d="M25,32.05c-.09,0-.06.05,0,0Z" fill="currentColor"/><path d="M26.58,29.46a1.25,1.25,0,0,0,.26-.24A1.51,1.51,0,0,1,26.58,29.46Z" fill="currentColor"/><path d="M31.51,31.26h0C31.6,31.12,31.58,31.15,31.51,31.26Z" fill="currentColor"/><path d="M25.11,31.68A1.08,1.08,0,0,0,25,32,1,1,0,0,0,25.11,31.68Z" fill="currentColor"/><path d="M24.89,32v-.12C24.8,31.92,24.76,32,24.89,32Z" fill="currentColor"/><path d="M25.09,32.13A.23.23,0,0,1,25,32a.21.21,0,0,1-.06.1Z" fill="currentColor"/><path d="M55.05,49.92v0C55.22,49.91,55.17,49.9,55.05,49.92Z" fill="currentColor"/><path d="M39.54,33.1l0,0v0Z" fill="currentColor"/><path d="M40.19,32.88c-.78.69-.76.53-.69.28L38,35.1Z" fill="currentColor"/><path d="M49.56,42.41l.18-.58c.76-.45.7,0,1-.79-1.21,1.37-.74-.57-2,.84l.15-.42s.1,0,.12,0c.37-.92-1.06.88-1.17.39a.69.69,0,0,1,.33-.59l-.53.14c0-.09.2-.34.24-.24L47.48,41l0,0c-.25.18-.67.44-.85.55.09-.3.18-.12.31-.33l-.5.18c.26-.47.74-.7.82-.51,1.12-1.68-.48.23-.09-1h.34c.63-1,.23-.81.5-1.57-.2.34-.78,1.79-1.31,2,0-.17,0-.3-.36-.1.47-.55.25-.52.09-.62l.64-.73c-.32.07-.63.45-1,.7-.1-.23.36-.84.74-1.37-.15-.38-.62,1.11-1,.94,0-.5-.37-.34-1-.14.08-.41.43-.44.56-.71l-.66.48c0-.05.16-.23.24-.32-.31.13-.66.76-1,.8-.78.82.7-1.6-.35-.84.14-.28.44-.46.68-.78a6.11,6.11,0,0,0-1.65.86l.24-.73A4.83,4.83,0,0,1,41,39.29c-.19.35-.36.65-.43.8l-.68.2a3.26,3.26,0,0,1,.69-.73l-.22.15A3.93,3.93,0,0,1,41.4,38.5l-.33.6a11.83,11.83,0,0,0,1.42-1.41.58.58,0,0,1-.28.13,1.79,1.79,0,0,0,.31-.31c.06-.1-.12.05-.34.22l.72-1-.33.35.14-.94c-1,.67-2.46,1.85-3.24,1.88a15.87,15.87,0,0,0,1.73-2c-.64,1,.63-.06.68.34,0-.2.33-.57.48-.68l-1,.41c.59-.67.36-.59.51-1-1.09,1.43-1,.62-1.57.89.39-.48.83-.91.92-.61.69-1.25-1.65,1.36-1.1.27.06,0,0,.13.24-.09-.46.31-.44-.28,0-.63l.05,0c-.15-.47-.89-1-2,.27.14-.17,1.33-1.47,1.56-1.71l-4.18,3.74c1-1,3-3.84,3.8-4.2.06-.23.13-.51-.35-.27a9.83,9.83,0,0,1-1.39,1.74,16.26,16.26,0,0,0,1.1-2.05c-.13.31-1.7,2-1.77,1.81.24-.25,1.47-1.74,1.66-1.88L37,33.92a12,12,0,0,0,1.62-2c-.26.37-.22-.28-.45-.19l-.22.53c-.11-.59-2.44,2.16-2.71,1.77a12,12,0,0,0,2-2.54c-.85.83-4.08,4.06-5,4.51l.39-.57-.74.39c1.32-1.25,4.2-3.79,5.37-4.71.22-.52.49-.64.26-.77.35-.55.73-.64.81-.62L38.2,29c-.89,1.08-1.26.77-2,1.67L37.63,30c-.88,1.07-2.86,2.77-3,2.31a29,29,0,0,1,2-2.21c-.35.33-.9.44-.71.15l.63-.45c.16-.55-1.51,1.16-.86,0,0-.13.94-1.55.39-.93a75.47,75.47,0,0,1-4.94,5.91,17.42,17.42,0,0,1,1-2.16c.68-1,2.11-2.09,2.69-3a5.33,5.33,0,0,1-.75.67c.13-.31.8-.86.51-.87-.94,1-.28-.37-.85.84-.43.16,0-.37-.24-.48a10.75,10.75,0,0,1-2.58,2.32,6.53,6.53,0,0,0,.62-.81c-.27-.38-.05-1-.37-1.27a3.4,3.4,0,0,1,.71-1.08c-.2.14-.53.45-.66.4.55-1,.35,0,1.09-1.12a3.73,3.73,0,0,1-1.41.85c-.72.92.18.44.64.18a9.24,9.24,0,0,1-3.21,2.6c-.51.06.56-.89.37-.76-.3-.65-2.17,1.69-1.81.43a14.18,14.18,0,0,1,1.67-2c.45-.1-.08.76.08.86l.13-.51c.28-.19.59-.26.48,0,.44-.8-.72-.86-.6-1.77a2.12,2.12,0,0,0-.79.65H28c-.39.68-.9.59-1,1-.5.26-1.18.69-1.12.15l.63-.82c-.19.23-.26.61,0,.43-.38.25.56-1.37-.39-.47l-.31.69c-.48.23-1.32.81-1.28.36-.55.83.11,0-.51,1,.82-1.21.36.62,1.19-.75-.76,1.19-.16.7-.78,1.82.22-.27.37-.58.4-.26l.23-.2v0l0,0s.05,0,0,0a2,2,0,0,1,.27-.49c.58-.51.8-.23,1.16-.46,0,.23-.3.27-.5.61l.53-.34c-.5.61-.63,1.28-1.13,1.39l.15.25c-.19.48-.17.81.15.66,0,.24.81-.44.31,0l.62-.05-.13.16c.21.43,1.53-.41.84,1.16.25-.06.53-.15.53.22l-.47.63c.3-.07-.13,1,.46.46-1.24,1.76.32,1,.32,1.54l.69-.79c.12.21.47.13,1,0l.59-.72c.68-.42,0,.92.4,1.1-.26.26-.27.12-.18-.09-1,1.91,1.74-.54,1.07.89.3-.2.29-.06.2.16l-.06,0s0,0,0,0-.15.32-.2.46A3.41,3.41,0,0,0,32,38a.77.77,0,0,0,.49-.08l-.6.78h0c-.14.35.38-.3.82-.9a3.78,3.78,0,0,0,.51-.36c-1,1.27.6-.21-.4,1.15.6-.58.9-.12,2.05-1.38-.14.17-.18.28-.24.25,0,.23,0,.45.37.16l-.75,1,1.3-1.06a4.16,4.16,0,0,1-1.3,1.63c1.27-.84.63-.21,1.83-1.06l-.51.57c.12,0,1-.59.61-.07-.69,1.25,1,1,.82,2.37,1.22-1.65-.32.9.74-.3a2.82,2.82,0,0,1-.74.91c.62-.14,0,.89,1.06,0-.27.39-.52.48-.67.72.09-.06.37-.25.22,0a1.26,1.26,0,0,1-.49.39c.38.15,1.35-.92,2.25-1.93-.26.6-.12.59.56,0-.23.38-.44.79-.73.76.06.14.26,1,.95.18-.14.23.1.18.2.11.2.23.16.32.46.42l0-.17c.89-.87.37-.06.65,0l-.08.09c-.14,1,.45-.17.23.92l.47-.59c1.08-1.19-.24,1,.4.75l.19-.39c.48-.3-1,1.92-1,2.17s-.19.13-.3.18c-.22,1,.67-.69,1.08-.66-.28.42-.9.94-.78,1.14-.17.37,1.6-.86,1.23.06a1.57,1.57,0,0,1,.7-.79c.27,0-.41,1.47.53.7a1,1,0,0,1-.15.25c.34-.13.8,0,1.3-.44-1.36,1.86,1.62-.15.26,1.44l.52.25-.14.15c.2.32.62,0,1-.26,0,.15-.19.25-.26.33.16.62.27.57,1.25.11l-.37.5c.32-.19,0,1.19.87.95a1.05,1.05,0,0,1-.22.17c.91-.17.12,2,1.63.55l.64-.15c-.29-.42.63-.62.69-1,.22,0,0,.79-.26.71l0-.1c-.75.75.25.66-.21,1.19.81.54,1.24,1.51,2,2.05l.37-.6.23.22c0,.18-.26.48-.43.33-.15.36.53,0,.63-.14.18.47-.66.5-.56.59l.19.07,0-.08c.3-.13.5-.34.7-.15,0,.2-.19.36-.15.41s0,.07.07.08l.3.27.19-.48c.31-.08.29.25.51-.29-.35.82,1,1.12,1,1.41a.77.77,0,0,1,.83.27c0-.12.27-.51.44-.3-.71.68.1.61-.16,1.25.13-.45.69.34.84-.29.13.18-.21.26-.2.52.64.05.81.82,1.42,1.09.08-.07.09-.25.29-.28l0,.57c.14,0,.45-.35.43,0,0-.08.06-.2.15-.17a5,5,0,0,0,1.52,1.19,5,5,0,0,1,1.46,1.28c-.08-.17,0-.12.13,0-.05-.07.09-.1.12-.16l.32.45c.19-.07.49.31.63.24l-.16-.08c.29,0,0-.49.19-.66-.33,0-.24-.74-.76-.78,0-.11.12,0,.13-.1-.16,0-.27-.05-.39-.26h0a6.17,6.17,0,0,1-1-1.42l-.1.2a.62.62,0,0,1-.09-.31c-.33.12.3.34,0,.49.13-.48-.8-.8-.54-1.32-.17-.19-.13.26-.3.08l.05-.17-.17.11a.43.43,0,0,1,.07-.46s.1,0,.13.08c0-.31-.43-.4-.44-.5l.09.26c-.57-.38-1-1.17-1.67-1.35l-.06.15c-.53-.14-.17-.41-.64-.7h0a.4.4,0,0,1-.43-.12c.22,0,.06-.47.32-.5-.58-.14-.35,0-1,.23l.12-.27c-.25.11-.35.21-.6.08.33,0,.17-.46.56-.54,0-.92-1-.09-.57-1-.76.48,0,.71-.19.75-.09.3-.57.34-.65.16s.51-1.07.18-1.4c0,0,.08,0,.11,0,0-.3-.45,0-.34-.44-.45.35-.17-.23-.67.31l.41.17c-.29,0-1,.47-1-.11a1.24,1.24,0,0,1,.46-.2c.06-.24-.25,0-.19-.29.51-.55.47.23,1,0,.12-.33-.68.06-.07-.46-.8.65-.22-.44-1,0l.31-.34c-.08,0-.29.11-.34,0l.5-.34c-.51.21,0-.71-.38-.67.35.36-.3.52-.37.94-.86,0,.56-1.21-.06-1.56.11,0,0,.49-.2.55a1.37,1.37,0,0,1,.1-.71c-.38-.26-.29.45-.63.54.3-.59-.31,0-.59,0l.34-.4c-.15-.64-.81.74-.88.09l.62-.42-.3,0,.43-.43c-.47.15-.46,0-.53-.32-.2.33-.67.73-.85.58.11-.37.41-.34.13-.52.28-.21.62-.48.38,0,.13-.12.28-.21.41-.33.12-.42-.24-.39-.33-.47a.24.24,0,0,1,0,.19l-.84.25a.74.74,0,0,1,.39-.39c-.11,0-.33.13-.46.06.33-.33.64-.7.92-.72L52,44.8c.11-.18.21-.61.36-.7,0-.41-1,.25-1-.28a.39.39,0,0,1-.25.1c-.15-.31.07-1-.64-.74l.45-.85c-.33-.06-.55,1.09-1.12,1s.43-.7.51-1c-.42.23-1.26.76-1-.06C49.48,42.23,49.44,42.39,49.56,42.41Zm-2.82-2.25c.14-.07.54-.32.31,0C46.46,40.76,46.67,40.42,46.74,40.16Zm-5.15-2.41c.21-.17.18,0,0,.28C41.54,38,41.51,38,41.59,37.75Zm-15.5-5.38,0,0C26,32.72,26.06,32.57,26.09,32.37Zm0-.54a.89.89,0,0,0-.25.26c.16-.15.21-.1.23,0C26.24,31.91,26.31,31.76,26.13,31.83Zm27.78,21,0-.12C54.13,52.7,54,52.76,53.91,52.83Z" fill="currentColor"/><path d="M42.75,37.34a3.49,3.49,0,0,1-.26.35A.72.72,0,0,0,42.75,37.34Z" fill="currentColor"/><path d="M51.32,43.8v0l.08-.08Z" fill="currentColor"/><path d="M35,29.12a1.61,1.61,0,0,1-.24.47C35,29.4,35.08,29.23,35,29.12Z" fill="currentColor"/><path d="M24.15,31.5l.26,0c-.09-.06,0-.22.06-.36C24.35,31.3,24.2,31.54,24.15,31.5Z" fill="currentColor"/><path d="M26,26.61c-.08.05-.06,0-.14,0l-.2.26C25.73,27,26,26.8,26,26.61Z" fill="currentColor"/><path d="M25.73,29.35c.41-.51.18-.43,0-.45,0,0,0,0,0,0C25.13,29.58,25.43,29.47,25.73,29.35Z" fill="currentColor"/><path d="M25.69,28.89c-.05,0-.09,0-.1-.08C25.35,29.07,25.58,28.91,25.69,28.89Z" fill="currentColor"/><path d="M25.55,31.87c.08-.2-.62.65-.45.4C24.46,32.9,26.1,31.81,25.55,31.87Z" fill="currentColor"/><polygon points="27.05 27.63 26.56 28.28 27.05 27.84 27.05 27.63" fill="currentColor"/><path d="M27.51,28.86l0-.34a.53.53,0,0,1-.23.18C27.34,28.82,27.35,29.05,27.51,28.86Z" fill="currentColor"/><path d="M27.26,28.7c-.05-.06-.11-.1-.23,0A.26.26,0,0,0,27.26,28.7Z" fill="currentColor"/><polygon points="27.45 27.65 27.39 27.82 27.47 27.98 27.45 27.65" fill="currentColor"/><path d="M29.24,30.67l.37,0c.23-.23.31-.43.15-.39A1.34,1.34,0,0,0,29.24,30.67Z" fill="currentColor"/><path d="M30.32,28.22a3.41,3.41,0,0,1-.37.61l.76-.87Z" fill="currentColor"/><path d="M31.09,28.46c.23-.23.91-.5.6-.63C31.46,28.06,31.08,28.12,31.09,28.46Z" fill="currentColor"/><polygon points="33.06 32.04 33 32.01 31.64 33.62 33.06 32.04" fill="currentColor"/><path d="M38.87,30.42c.11-.6-.89.93-.68.26-.38.33-.17.55-.51.82C38.16,31.23,38,31.52,38.87,30.42Z" fill="currentColor"/><path d="M37.68,31.5l-.27.18A1,1,0,0,0,37.68,31.5Z" fill="currentColor"/><polygon points="63.62 59.62 63.75 59.76 63.69 59.63 63.62 59.62" fill="currentColor"/><path d="M64,59.7l-.05.12.17,0S64.05,59.74,64,59.7Z" fill="currentColor"/><path d="M47.64,38.28l-.17.17c-.14.21-.12.26-.09.36Z" fill="currentColor"/><polygon points="48.97 40.76 48.95 40.71 48.47 41.4 48.97 40.76" fill="currentColor"/><path d="M51.11,41.63c0-.09-.22,0-.26-.14C51.07,41.54,50.49,42.39,51.11,41.63Z" fill="currentColor"/></g><g opacity="0.5"><path d="M.08,54.19c-.06-.08-.07,0-.08,0S.09,54.17.08,54.19Z" fill="currentColor"/><path d="M1.36,54.91,1.31,55l.25-.09Z" fill="currentColor"/><path d="M2.51,55.7c.07-.57-.45-.19-.6-.5v-.12l-.21.28C2,55.51,2.38,55.44,2.51,55.7Z" fill="currentColor"/><path d="M2.68,57.41c0-.27.19-.07-.11-.21v.09A.44.44,0,0,1,2.68,57.41Z" fill="currentColor"/><path d="M2.57,57.29c-.11-.1,0,.27,0,0Z" fill="currentColor"/><path d="M3.14,57.66l-.23.08c0,.18.1.35,0,.41C3.12,58.18,3.14,58,3.14,57.66Z" fill="currentColor"/><path d="M3.45,57.29l-.11,0C3.33,57.4,3.34,57.45,3.45,57.29Z" fill="currentColor"/><path d="M3.1,57.39l.24-.06c0-.13.09-.34-.1,0C3.32,57.15,3.22,57.32,3.1,57.39Z" fill="currentColor"/><path d="M3,57.21c0-.21-.12-.39.11-.48C2.82,56.58,2.72,57,3,57.21Z" fill="currentColor"/><path d="M2.76,55.2,2.69,55l-.17.12C2.6,55,2.71,55.36,2.76,55.2Z" fill="currentColor"/><path d="M3.94,58.9c.07-.16.1-.49.16-.7l-.18.09A1.21,1.21,0,0,1,3.94,58.9Z" fill="currentColor"/><path d="M4.1,58.2l.27-.15C4.23,57.9,4.16,58,4.1,58.2Z" fill="currentColor"/><path d="M3.74,56.56c-.16.11-.31.22-.46.31a5.36,5.36,0,0,0,.52-.28Z" fill="currentColor"/><polygon points="4.57 59.5 4.33 59.83 4.71 59.35 4.57 59.5" fill="currentColor"/><path d="M5,59.8c-.2.29-.12.7-.27.85.13.05.34-.17.53-.38C5.13,60.34,5,60.21,5,59.8Z" fill="currentColor"/><path d="M5.58,60a1.67,1.67,0,0,0-.3.3A1.17,1.17,0,0,0,5.58,60Z" fill="currentColor"/><path d="M4.64,58.36a1.32,1.32,0,0,0,0,.61l.1-.55Z" fill="currentColor"/><path d="M4.71,58.4v0l.14.14Z" fill="currentColor"/><path d="M4.62,58.34l0,0S4.65,58.29,4.62,58.34Z" fill="currentColor"/><path d="M4.08,57.26c.18-.17.5-.32.42-.83C4.32,56.69,4.36,57,4.08,57.26Z" fill="currentColor"/><path d="M4.75,57.68l-.15-.24a1.08,1.08,0,0,1-.17.43Z" fill="currentColor"/><polygon points="4.89 57.58 4.75 57.68 4.8 57.77 4.89 57.58" fill="currentColor"/><path d="M5.44,59.21a.29.29,0,0,1,.37-.11.86.86,0,0,0-.26-.39C5.47,58.87,5.32,59.14,5.44,59.21Z" fill="currentColor"/><path d="M5.1,58.77l0,0S5.13,58.68,5.1,58.77Z" fill="currentColor"/><path d="M6.8,59.77l0-.12,0,.1Z" fill="currentColor"/><path d="M5.57,58.6c-.05-.16-.14-.06-.25.07a.37.37,0,0,1,.23,0C5.58,58.64,5.6,58.59,5.57,58.6Z" fill="currentColor"/><path d="M5.94,59.9a2.63,2.63,0,0,0,0-.41C5.89,59.7,5.87,60,5.94,59.9Z" fill="currentColor"/><path d="M5.11,58.91l0,0C5.07,59.06,5.09,59,5.11,58.91Z" fill="currentColor"/><path d="M5.11,58.91a1.33,1.33,0,0,0,.21-.24.43.43,0,0,0-.19.08A1,1,0,0,1,5.11,58.91Z" fill="currentColor"/><path d="M8.5,56c-.22.58-.64,1-.63.33a11.11,11.11,0,0,0-1,3.35A1.34,1.34,0,0,1,7.3,59c0-.36-.18-1,.16-1.37.37-.18.15.29.17.66.14-.76.7-.9,1-2l-.37.29C8.33,56.38,8.51,56.14,8.5,56Z" fill="currentColor"/><path d="M6.49,59.36l-.1,0a2.94,2.94,0,0,1,0,.93,1.27,1.27,0,0,0,.39-.56l-.35-.33Z" fill="currentColor"/><path d="M6,59.15c.26-.53.54-.67.64-1.36-.25-.08-.33.39-.56.56.42.08-.21.25-.06.73a.32.32,0,0,1-.25,0,2,2,0,0,1,.1.39v0h0c0-.08,0-.13,0-.07H6L6,59.15c.06.19,0,.17-.09.21l0,.08h0l.48-.07C6.34,59.24,6.24,59.2,6,59.15Z" fill="currentColor"/><path d="M5.05,55.54a.42.42,0,0,1,0,.12C5.07,55.61,5.09,55.57,5.05,55.54Z" fill="currentColor"/><path d="M5.11,55.89c-.05.06-.14.23-.21.14s.07-.22.12-.37a.48.48,0,0,0-.21.55l.05-.05a2.23,2.23,0,0,1,0,1A9.06,9.06,0,0,0,5.11,55.89Z" fill="currentColor"/><path d="M5.67,57.29l.41-.1v-.54L6,56.93C5.84,56.74,5.77,57.09,5.67,57.29Z" fill="currentColor"/><polygon points="6.73 60.1 6.46 60.72 6.96 59.92 6.73 60.1" fill="currentColor"/><polygon points="7.15 60.28 6.93 60.86 7.16 60.58 7.15 60.28" fill="currentColor"/><path d="M34,61.87l.14-.1A.36.36,0,0,0,34,61.87Z" fill="currentColor"/><path d="M33.3,61.53l-.11.26C33.28,61.65,33.33,61.55,33.3,61.53Z" fill="currentColor"/><path d="M17.38,65.11c-.1.76-.32,1.91,0,1l.25-.86C17.43,65.43,17.39,65.31,17.38,65.11Z" fill="currentColor"/><path d="M26.41,62.64l0-.23-.33.63Z" fill="currentColor"/><path d="M27.5,59.84l0,.52A1.83,1.83,0,0,0,27.5,59.84Z" fill="currentColor"/><path d="M37.91,63.05l.29-.47C38,62.49,38,62.79,37.91,63.05Z" fill="currentColor"/><path d="M11.37,62.42a1.08,1.08,0,0,0,.13.63C11.52,62.52,11.64,61.79,11.37,62.42Z" fill="currentColor"/><path d="M31.53,68a.72.72,0,0,0,.21-.33A.65.65,0,0,0,31.53,68Z" fill="currentColor"/><path d="M11.84,63.23V63c-.13.1-.26.16-.34,0C11.48,63.45,11.53,63.73,11.84,63.23Z" fill="currentColor"/><path d="M51.19,70.06l0,0S51.21,70.07,51.19,70.06Z" fill="currentColor"/><path d="M54.67,73.23l-.18,0Z" fill="currentColor"/><path d="M8.64,61.61c-.1,0,0,.07,0,0Z" fill="currentColor"/><path d="M9.18,58.61a1.33,1.33,0,0,0,.16-.32A1.49,1.49,0,0,1,9.18,58.61Z" fill="currentColor"/><path d="M14.5,58.53h0C14.54,58.36,14.53,58.39,14.5,58.53Z" fill="currentColor"/><path d="M8.63,61.21a1.06,1.06,0,0,0,0,.27A1.8,1.8,0,0,0,8.63,61.21Z" fill="currentColor"/><path d="M8.53,61.55l0-.11C8.43,61.55,8.41,61.63,8.53,61.55Z" fill="currentColor"/><path d="M8.77,61.64s-.08-.08-.11-.16a.35.35,0,0,1,0,.13Z" fill="currentColor"/><path d="M43.65,67.51v0C43.8,67.44,43.75,67.45,43.65,67.51Z" fill="currentColor"/><path d="M22.76,57.36l0,0v0Z" fill="currentColor"/><path d="M23.29,56.91c-.48.93-.52.78-.55.52L22,59.79Z" fill="currentColor"/><path d="M35.67,62.46l-.05-.6c.56-.7.65-.31.69-1.12-.64,1.73-.92-.26-1.57,1.5V61.8s.07-.07.11,0c0-1-.66,1.2-1,.78a.68.68,0,0,1,.09-.68l-.45.33c-.07-.07.06-.38.13-.31l-.49,0,0-.05a9.27,9.27,0,0,1-.6.82c0-.32.13-.18.18-.42l-.41.35c.07-.53.44-.92.59-.77.42-2-.37.38-.48-.94l.31-.13c.23-1.15-.08-.84-.1-1.65-.07.39-.08,2-.51,2.31,0-.18-.1-.29-.37,0,.23-.68,0-.58-.15-.62l.33-.91c-.28.18-.43.65-.68,1-.18-.18,0-.92.19-1.55-.29-.3-.17,1.26-.63,1.25-.16-.48-.49-.19-1,.24-.08-.41.24-.57.26-.87l-.44.68s.06-.26.11-.38c-.25.24-.34,1-.67,1.12-.43,1,.07-1.75-.64-.66a6.86,6.86,0,0,1,.35-1,6.06,6.06,0,0,0-1.24,1.39l-.05-.77a4.69,4.69,0,0,1-1.11,2.28c-.06.39-.11.73-.12.9l-.56.42a3.15,3.15,0,0,1,.38-.92l-.15.22a3.64,3.64,0,0,1,.57-1.52l-.09.67a12.67,12.67,0,0,0,.81-1.82.64.64,0,0,1-.21.22,1.79,1.79,0,0,0,.17-.41c0-.11-.09.1-.24.33l.31-1.16-.17.44-.22-.93c-.73,1-1.63,2.61-2.36,2.92a15.52,15.52,0,0,0,.9-2.46c-.23,1.16.58-.28.77.07-.1-.18.1-.65.19-.8l-.83.76c.31-.85.12-.69.12-1.1-.5,1.73-.76,1-1.15,1.4.19-.59.45-1.16.64-.9.19-1.42-1.05,1.86-.93.64.06,0,.06.12.19-.17-.32.46-.52-.1-.26-.58l.07,0c-.33-.39-1.2-.58-1.8,1,.07-.2.7-1.85.84-2.15l-2.56,5c.54-1.33,1.43-4.68,2-5.3,0-.23-.06-.52-.43-.13a9.57,9.57,0,0,1-.66,2.14,17.07,17.07,0,0,0,.28-2.32,7.18,7.18,0,0,1-1,2.33c.14-.32.74-2.16.88-2.36l-1.13,2a12,12,0,0,0,.78-2.47c-.11.44-.32-.18-.5,0v.57c-.31-.51-1.49,2.89-1.89,2.63a12.1,12.1,0,0,0,1-3.11c-.49,1.09-2.34,5.27-3,6l.15-.67-.55.64c.78-1.65,2.55-5.06,3.31-6.34,0-.57.22-.77,0-.81.12-.64.45-.87.54-.87L20,54c-.43,1.34-.9,1.17-1.26,2.28l1.1-1.14c-.43,1.32-1.67,3.62-2,3.25.08-.57.9-2.33,1-2.78-.21.44-.69.74-.61.4l.42-.65c-.06-.57-1,1.63-.82.28-.07-.11.31-1.78,0-1a73.4,73.4,0,0,1-2.46,7.31,17.34,17.34,0,0,1,.16-2.39c.25-1.22,1.21-2.72,1.43-3.77a4.81,4.81,0,0,1-.46.9c0-.33.43-1.09.15-1-.49,1.31-.4-.25-.49,1.08-.34.31-.13-.34-.4-.36a10.73,10.73,0,0,1-1.57,3.1,7.72,7.72,0,0,0,.28-1c-.39-.27-.42-.93-.82-1.07A3.56,3.56,0,0,1,14,56.2c-.13.21-.34.61-.47.61.13-1.15.34-.09.6-1.44a3.52,3.52,0,0,1-1,1.3c-.33,1.12.34.35.68-.06a9.21,9.21,0,0,1-2.07,3.59c-.45.23.2-1,.07-.84-.53-.5-1.42,2.35-1.55,1A14.08,14.08,0,0,1,11,57.89c.39-.25.21.75.4.78l-.07-.53c.19-.27.46-.45.46-.14.12-.9-1-.54-1.22-1.44a2,2,0,0,0-.5.9l.19-.07c-.11.77-.62.87-.55,1.28-.37.42-.86,1.07-1,.54l.29-1c-.1.29,0,.66.16.4-.26.37,0-1.48-.54-.29l0,.75c-.36.39-.94,1.23-1.08.79-.21,1,.1-.07-.11,1.11.32-1.44.58.44.84-1.14-.27,1.39.11.72-.05,2,.1-.33.14-.67.28-.38a2,2,0,0,1,.14-.26v0s0,0,0,0a2.2,2.2,0,0,1,.07-.56c.36-.69.68-.5.93-.84.06.22-.19.35-.25.75L9.76,60c-.25.76-.12,1.43-.56,1.71l.24.18c0,.51.14.81.38.56.06.24.61-.69.29-.14l.57-.27-.07.2c.36.33,1.3-.94,1.23.78.21-.14.44-.33.58,0l-.21.75c.26-.17.26,1,.6.27-.51,2.09.69.84.88,1.33l.36-1c.19.15.49,0,.9-.34l.29-.89c.49-.64.38.85.78.89-.14.33-.2.21-.2,0-.25,2.15,1.44-1.13,1.35.44.21-.29.24-.16.24.08,0,0,0,0,0,0s0,0,0,0c0,.17,0,.36,0,.51a2.2,2.2,0,0,0,.05-.5.75.75,0,0,0,.43-.26l-.27,1s0,0,0,0c0,.38.25-.41.43-1.13a3.34,3.34,0,0,0,.35-.52c-.43,1.53.49-.42.06,1.21.35-.75.8-.43,1.42-2-.07.21-.07.32-.14.31.07.22.14.44.41,0l-.35,1.17.83-1.46a4,4,0,0,1-.62,2c.89-1.24.52-.42,1.33-1.64l-.27.71c.14,0,.68-.9.55-.28-.19,1.41,1.34.56,1.66,1.92.54-2,0,1,.59-.55a2.84,2.84,0,0,1-.36,1.12c.53-.36.32.83,1-.34-.11.45-.31.63-.36.91.06-.09.25-.37.2-.09a1.25,1.25,0,0,1-.32.54c.42,0,.93-1.35,1.4-2.61,0,.66.11.59.54-.19-.08.43-.12.89-.41,1,.11.1.61.81,1-.17,0,.26.16.13.24,0,.27.15.27.24.59.24l0-.18c.53-1.14.33-.19.62-.26l-.05.12c.24,1,.37-.32.57.77l.21-.71c.58-1.5.16,1,.67.55l0-.43c.35-.46-.24,2.16-.13,2.39s-.13.19-.21.27c.14,1,.37-.89.77-1-.1.49-.5,1.2-.31,1.35,0,.4,1.19-1.38,1.17-.39a1.65,1.65,0,0,1,.37-1c.28-.06.17,1.52.77.46a1.36,1.36,0,0,1-.06.29c.28-.24.75-.32,1.07-.87-.6,2.22,1.47-.73.78,1.25l.59,0-.08.19c.31.22.59-.21.87-.63,0,.16-.08.32-.12.41.38.52.47.44,1.22-.34l-.17.6c.24-.3.44,1.11,1.18.57a1.23,1.23,0,0,1-.14.24c.79-.49.85,1.83,1.74-.07l.54-.37c-.43-.29.36-.81.28-1.19.22,0,.28.74,0,.76v-.11c-.43,1,.48.53.24,1.18,1,.22,1.74,1,2.64,1.21l.12-.69.3.13c0,.17-.07.53-.28.45,0,.39.48-.22.54-.35.35.37-.43.7-.31.75H43l0-.09c.24-.22.35-.49.61-.39s-.05.41,0,.45,0,.07.1,0l.38.14v-.51c.25-.19.36.13.36-.46,0,.9,1.37.69,1.45,1a.81.81,0,0,1,.88,0c0-.1.07-.57.31-.43-.42.89.33.53.32,1.22-.05-.47.77.08.68-.57.19.12-.1.32,0,.56.62-.19,1.07.47,1.75.51,0-.09,0-.27.17-.37l.18.54c.14,0,.29-.48.42-.12,0-.08,0-.21.08-.21a5.15,5.15,0,0,0,1.87.56,5,5,0,0,1,1.85.68c-.14-.14,0-.12.11-.09-.07,0,0-.12,0-.19l.48.3c.15-.14.58.12.68,0l-.18,0c.28-.09-.18-.46-.07-.68-.31.12-.5-.61-1-.45-.06-.1.11-.06.09-.15-.14.08-.27,0-.47-.1l0,0a6.08,6.08,0,0,1-1.49-.95l0,.22a.6.6,0,0,1-.2-.26c-.27.23.41.21.14.47-.05-.5-1.05-.46-1-1-.23-.12,0,.29-.25.18v-.17l-.13.16A.44.44,0,0,1,51,70s.11,0,.15,0c-.13-.28-.56-.21-.6-.3l.18.2c-.67-.14-1.34-.75-2.07-.66v.17c-.55.06-.31-.33-.86-.43l0,0a.4.4,0,0,1-.45,0c.19-.12-.12-.46.12-.59-.61.08-.33.13-.87.59l0-.3c-.2.19-.26.32-.54.29.29-.15,0-.49.33-.71-.31-.87-1,.29-.93-.76-.53.72.3.66.11.78,0,.3-.42.52-.56.37s.08-1.18-.35-1.37c0,0,.07,0,.11,0-.08-.3-.42.16-.49-.3-.29.49-.24-.15-.51.53h.45c-.29.08-.78.81-1,.27a1.53,1.53,0,0,1,.37-.35c0-.25-.26.06-.29-.21.28-.7.53,0,1-.36,0-.35-.62.29-.24-.41-.51.89-.37-.33-.92.3l.17-.43c-.07,0-.24.21-.32.16l.35-.5c-.4.38-.29-.65-.61-.49.47.21-.08.59,0,1-.79.35.08-1.33-.63-1.44.11,0,.23.44,0,.59A1.32,1.32,0,0,1,42,65c-.46-.12-.1.51-.39.72.06-.65-.29.14-.54.24l.17-.49c-.38-.54-.49,1-.8.4l.43-.61-.29.07.24-.55c-.39.31-.43.16-.62-.12-.07.39-.36.93-.58.85,0-.38.26-.46-.08-.52.19-.3.41-.68.37-.13.07-.17.18-.3.26-.46,0-.44-.37-.28-.48-.33a.3.3,0,0,1,.07.19l-.7.53a.78.78,0,0,1,.23-.51c-.11,0-.26.24-.41.23.19-.43.34-.89.6-1l-.59.29c0-.21,0-.64.08-.78-.14-.39-.88.6-1.06.09a.37.37,0,0,1-.2.19c-.26-.24-.31-.95-.88-.46l.11-1c-.34.06-.12,1.22-.68,1.34s.14-.81.11-1.11c-.31.37-.91,1.17-1,.3C35.53,62.32,35.56,62.49,35.67,62.46Zm-3.5-1.09c.12-.11.4-.49.31-.07C32.14,62,32.21,61.64,32.17,61.37ZM26.42,61c.14-.24.17-.08.15.24C26.49,61.25,26.43,61.2,26.42,61ZM9.81,61.5l0,0C9.86,61.86,9.85,61.71,9.81,61.5ZM9.64,61a.89.89,0,0,0-.14.33c.1-.2.17-.18.22-.08C9.78,61,9.79,60.85,9.64,61Zm34,9.66,0-.13C43.81,70.44,43.74,70.54,43.66,70.65Z" fill="currentColor"/><path d="M27.37,60.16a4,4,0,0,1-.12.43A.86.86,0,0,0,27.37,60.16Z" fill="currentColor"/><path d="M37.85,63.13h0l0-.09Z" fill="currentColor"/><path d="M17,55.25a1.91,1.91,0,0,1,0,.52C17.07,55.54,17.11,55.34,17,55.25Z" fill="currentColor"/><path d="M7.65,61.38l.25-.07c-.1,0-.07-.2-.07-.35C7.77,61.13,7.71,61.41,7.65,61.38Z" fill="currentColor"/><path d="M7.54,56.17c-.06.07-.07,0-.13.06l-.09.31C7.44,56.56,7.62,56.34,7.54,56.17Z" fill="currentColor"/><path d="M8.34,58.82c.2-.63,0-.48-.16-.43h0C7.86,59.24,8.1,59,8.34,58.82Z" fill="currentColor"/><path d="M8.14,58.4a.11.11,0,0,1-.13,0C7.88,58.68,8,58.45,8.14,58.4Z" fill="currentColor"/><path d="M9.11,61.23c0-.21-.34.83-.27.54C8.47,62.59,9.61,61,9.11,61.23Z" fill="currentColor"/><polygon points="8.94 56.73 8.73 57.51 9.02 56.92 8.94 56.73" fill="currentColor"/><path d="M9.84,57.71l-.15-.31a.46.46,0,0,1-.15.25C9.67,57.73,9.76,58,9.84,57.71Z" fill="currentColor"/><path d="M9.54,57.65c-.07,0-.14,0-.22.07A.29.29,0,0,0,9.54,57.65Z" fill="currentColor"/><polygon points="9.33 56.6 9.34 56.79 9.48 56.9 9.33 56.6" fill="currentColor"/><path d="M12.15,58.78l.33-.17c.13-.3.13-.51,0-.42A1.2,1.2,0,0,0,12.15,58.78Z" fill="currentColor"/><path d="M12.25,56.11a3.29,3.29,0,0,1-.12.7l.39-1.09Z" fill="currentColor"/><path d="M13.07,56.05c.13-.3.67-.79.33-.8C13.27,55.55,12.93,55.74,13.07,56.05Z" fill="currentColor"/><polygon points="16.25 58.69 16.18 58.69 15.5 60.68 16.25 58.69" fill="currentColor"/><path d="M21.13,55.09c-.12-.6-.5,1.19-.55.49-.23.44,0,.57-.16,1C20.76,56.1,20.75,56.42,21.13,55.09Z" fill="currentColor"/><path d="M20.42,56.53a2.71,2.71,0,0,0-.2.27A1.67,1.67,0,0,0,20.42,56.53Z" fill="currentColor"/><polygon points="55.34 73.5 55.52 73.58 55.41 73.49 55.34 73.5" fill="currentColor"/><path d="M55.76,73.42v.14l.16-.09A.22.22,0,0,1,55.76,73.42Z" fill="currentColor"/><path d="M32.32,59.29l-.09.22c0,.25,0,.29.05.36Z" fill="currentColor"/><polygon points="34.5 61.13 34.46 61.09 34.27 61.91 34.5 61.13" fill="currentColor"/><path d="M36.84,61.18c-.07-.08-.22,0-.29,0C36.77,61.1,36.55,62.1,36.84,61.18Z" fill="currentColor"/></g></svg>