<svg id="Layer_1" data-name="Layer 1" xmlns="http://www.w3.org/2000/svg" viewBox="0 0 74.33 79.27"><title>title-right</title><g opacity="0.5"><path d="M28.93.08c.09,0,0-.07,0-.08S29,.09,28.93.08Z" fill="currentColor"/><path d="M28,1,28,.92a2.17,2.17,0,0,0,0,.25Z" fill="currentColor"/><path d="M27,1.76c.53.23.26-.34.59-.37l.11,0-.22-.26C27.33,1.34,27.31,1.73,27,1.76Z" fill="currentColor"/><path d="M25.39,1.41c.25.12,0,.19.22,0l-.08,0A.34.34,0,0,1,25.39,1.41Z" fill="currentColor"/><path d="M25.53,1.36c.12-.07-.25-.07,0,0Z" fill="currentColor"/><path d="M25.08,1.75l0-.22c-.16-.07-.34,0-.38-.11C24.59,1.58,24.77,1.66,25.08,1.75Z" fill="currentColor"/><path d="M25.36,2.13V2C25.28,2,25.24,2,25.36,2.13Z" fill="currentColor"/><path d="M25.34,1.79V2c.12,0,.3.17,0-.09C25.52,2.05,25.38,1.92,25.34,1.79Z" fill="currentColor"/><path d="M25.51,1.79c.21,0,.39,0,.43.23C26.15,1.78,25.74,1.56,25.51,1.79Z" fill="currentColor"/><path d="M27.47,2.13h.22l-.08-.18C27.65,2,27.32,2,27.47,2.13Z" fill="currentColor"/><path d="M23.76,2.1c.13.1.44.22.63.34l-.05-.18A1.5,1.5,0,0,1,23.76,2.1Z" fill="currentColor"/><path d="M24.39,2.44l.08.27C24.64,2.63,24.55,2.54,24.39,2.44Z" fill="currentColor"/><path d="M26,2.59a5.32,5.32,0,0,1-.21-.5c.05.18.1.36.17.55Z" fill="currentColor"/><polygon points="23.06 2.46 22.79 2.16 23.17 2.63 23.06 2.46" fill="currentColor"/><path d="M22.69,2.77c-.24-.26-.64-.31-.76-.49-.07.11.11.35.27.58C22.15,2.71,22.3,2.67,22.69,2.77Z" fill="currentColor"/><path d="M22.43,3.21a2.05,2.05,0,0,0-.23-.35A1,1,0,0,0,22.43,3.21Z" fill="currentColor"/><path d="M24.12,2.85a1.7,1.7,0,0,0-.57-.21l.5.25Z" fill="currentColor"/><path d="M24.07,2.9h0L23.9,3Z" fill="currentColor"/><path d="M24.14,2.84h0C24.17,2.88,24.19,2.88,24.14,2.84Z" fill="currentColor"/><path d="M25.28,2.69c.12.21.2.53.69.6C25.76,3.06,25.48,3,25.28,2.69Z" fill="currentColor"/><path d="M24.75,3.14,25,3.08a1.23,1.23,0,0,1-.37-.26Z" fill="currentColor"/><polygon points="24.81 3.3 24.75 3.15 24.66 3.17 24.81 3.3" fill="currentColor"/><path d="M23.17,3.31c.14.19.08.26,0,.35a.78.78,0,0,0,.42-.12C23.48,3.43,23.26,3.22,23.17,3.31Z" fill="currentColor"/><path d="M23.65,3.14v0C23.71,3.19,23.73,3.19,23.65,3.14Z" fill="currentColor"/><path d="M22.37,4.33l.11,0-.08-.06Z" fill="currentColor"/><path d="M23.72,3.59c.16,0,.08-.1,0-.23a.3.3,0,0,1-.08.18C23.68,3.59,23.72,3.62,23.72,3.59Z" fill="currentColor"/><path d="M22.42,3.54l.39.09C22.62,3.55,22.3,3.44,22.42,3.54Z" fill="currentColor"/><path d="M23.51,3.1a0,0,0,0,0,0,0C23.38,3,23.43,3.06,23.51,3.1Z" fill="currentColor"/><path d="M23.51,3.1a1.2,1.2,0,0,0,.19.26.46.46,0,0,0,0-.19Z" fill="currentColor"/><path d="M25.64,6.9c-.5-.35-.83-.84-.19-.64a12.47,12.47,0,0,0-3-1.88,1.45,1.45,0,0,1,.57.62c.33.14.93.12,1.26.54.1.37-.31,0-.65,0,.69.34.71.87,1.69,1.47l-.2-.41C25.29,6.64,25.48,6.87,25.64,6.9Z" fill="currentColor"/><path d="M22.82,4.17V4.08A2.82,2.82,0,0,1,22,3.82a1.48,1.48,0,0,0,.45.5l.37-.21Z" fill="currentColor"/><path d="M23.11,3.85c.45.37.53.66,1.16.95.13-.2-.31-.41-.42-.65-.15.34-.19-.26-.68-.27a.26.26,0,0,1,0-.22,1.8,1.8,0,0,1-.39,0l0,0h0c.07,0,.11.06.06,0v0l.17.13c-.19,0-.14-.07-.17-.13l-.07-.06h0l0,.43C23,4.08,23,4,23.11,3.85Z" fill="currentColor"/><path d="M26.7,4l-.1,0S26.67,4.05,26.7,4Z" fill="currentColor"/><path d="M26.37,4c-.05-.06-.2-.19-.1-.23s.2.13.33.22a.55.55,0,0,0-.47-.35l0,.06a2.43,2.43,0,0,1-.94-.25A10,10,0,0,0,26.37,4Z" fill="currentColor"/><path d="M24.94,4.06v.38l.51.16-.24-.16C25.43,4.37,25.11,4.2,24.94,4.06Z" fill="currentColor"/><polygon points="22.08 4.17 21.54 3.76 22.2 4.42 22.08 4.17" fill="currentColor"/><polygon points="21.82 4.49 21.32 4.13 21.55 4.41 21.82 4.49" fill="currentColor"/><path d="M15.2,27.42l.07.16A.34.34,0,0,0,15.2,27.42Z" fill="currentColor"/><path d="M15.65,26.93l-.22-.17C15.54,26.87,15.63,26.94,15.65,26.93Z" fill="currentColor"/><path d="M15.31,12c-.7-.31-1.74-.84-1-.34l.76.46C15,12,15.12,12,15.31,12Z" fill="currentColor"/><path d="M15.93,20.6l.2.09-.53-.46Z" fill="currentColor"/><path d="M18.36,22.35l-.5-.12A2.15,2.15,0,0,0,18.36,22.35Z" fill="currentColor"/><path d="M13.34,30.5l.39.39C13.84,30.77,13.56,30.66,13.34,30.5Z" fill="currentColor"/><path d="M19,7.55a1.08,1.08,0,0,0-.62-.07C18.88,7.65,19.55,8,19,7.55Z" fill="currentColor"/><path d="M9.9,23.53a.9.9,0,0,0,.27.28A.66.66,0,0,0,9.9,23.53Z" fill="currentColor"/><path d="M18.15,7.73l.21.06c-.06-.14-.1-.27,0-.31C18,7.35,17.74,7.31,18.15,7.73Z" fill="currentColor"/><path d="M4.17,40.06h0S4.16,40.08,4.17,40.06Z" fill="currentColor"/><path d="M.52,42.19A.93.93,0,0,1,.59,42,.52.52,0,0,0,.52,42.19Z" fill="currentColor"/><path d="M20.3,5.41c0-.09-.06-.06,0,0Z" fill="currentColor"/><path d="M23,6.74a1.45,1.45,0,0,0,.27.23A2.06,2.06,0,0,1,23,6.74Z" fill="currentColor"/><path d="M22.08,11.4h0C22.23,11.48,22.2,11.47,22.08,11.4Z" fill="currentColor"/><path d="M20.67,5.51a1,1,0,0,0-.26,0A1.08,1.08,0,0,0,20.67,5.51Z" fill="currentColor"/><path d="M20.37,5.33l.12,0C20.39,5.24,20.32,5.2,20.37,5.33Z" fill="currentColor"/><path d="M20.24,5.51s.09,0,.17,0-.1,0-.11,0Z" fill="currentColor"/><path d="M8,34.23H8C8.07,34.38,8.07,34.34,8,34.23Z" fill="currentColor"/><path d="M21.61,18.94l0,0h0Z" fill="currentColor"/><path d="M21.92,19.53c-.78-.69-.63-.67-.37-.62l-2.1-1.29Z" fill="currentColor"/><path d="M14.32,28.73l.58.13c.55.68.17.65.92.92-1.5-1.06.43-.73-1.11-1.8l.42.11s0,.09,0,.11c.94.3-1-.92-.56-1.05a.74.74,0,0,1,.63.27L15,26.93c.08,0,.35.17.27.21l.13-.42,0,0c-.22-.22-.53-.6-.66-.76.3.07.14.16.36.27l-.25-.45c.49.21.78.65.62.73,1.78.94-.3-.43,1-.14l.07.31c1,.53.81.17,1.57.38-.35-.17-1.82-.63-2.08-1.11.17,0,.3,0,0-.33.6.4.54.2.61,0l.8.55c-.11-.29-.53-.56-.83-.88.21-.11.86.29,1.43.61.34-.16-1.16-.51-1.07-.91.49,0,.28-.37,0-1,.4.05.48.37.77.48L17.19,24s.24.13.34.21c-.17-.29-.83-.58-.92-.91-.9-.68,1.64.57.74-.37a9,9,0,0,1,.86.59,6.47,6.47,0,0,0-1.09-1.48l.74.18a5.32,5.32,0,0,1-1.93-1.63l-.83-.36-.3-.61a3.56,3.56,0,0,1,.8.6l-.18-.2a4.2,4.2,0,0,1,1.33.93l-.62-.27a14,14,0,0,0,1.57,1.24.61.61,0,0,1-.17-.26,1.74,1.74,0,0,0,.35.27c.1.06-.07-.1-.27-.3l1.05.61L18.27,22l.92.08c-.8-.93-2.15-2.18-2.31-2.9A19.22,19.22,0,0,0,19,20.64c-1.05-.54.15.58-.22.65.19,0,.6.27.72.4L19,20.75c.73.51.62.3,1,.41-1.54-.93-.76-.93-1.1-1.4.51.34,1,.72.73.82,1.3.57-1.56-1.45-.44-1,0,.05-.12,0,.13.22-.37-.42.19-.43.6-.06l0,.05c.43-.17.77-.87-.57-1.85.18.12,1.62,1.15,1.87,1.36L17,15.63c1.16.85,4.15,2.59,4.62,3.28.23.05.5.1.2-.33a12,12,0,0,1-1.89-1.19,18.17,18.17,0,0,0,2.14.9,8,8,0,0,1-2-1.54c.27.21,1.9,1.26,2.06,1.44l-1.66-1.56A13.77,13.77,0,0,0,22.6,18c-.39-.22.23-.22.1-.42l-.53-.18c.54-.13-2.45-2.14-2.12-2.41a13.8,13.8,0,0,0,2.74,1.75,52,52,0,0,1-5.09-4.38l.61.33-.5-.67c1.4,1.16,4.29,3.68,5.35,4.72.54.17.69.41.78.19.58.3.73.65.72.72l.66-.2c-1.18-.76-.93-1.12-1.91-1.76L24.28,17c-1.17-.76-3.1-2.49-2.69-2.67A29.41,29.41,0,0,1,24,16c-.37-.31-.56-.82-.26-.65l.53.55c.56.12-1.35-1.33-.1-.79.12,0,1.62.78.95.3-1.39-.76-5.5-3.5-6.44-4.24a18.62,18.62,0,0,1,2.23.82c1.11.58,2.34,1.84,3.29,2.33a6.28,6.28,0,0,1-.77-.65c.32.1,1,.68.92.42-1.15-.82.3-.29-.94-.75-.22-.39.35,0,.42-.24a12.23,12.23,0,0,1-2.63-2.26,8.91,8.91,0,0,0,.87.52c.33-.26,1-.1,1.16-.41a4.22,4.22,0,0,1,1.14.6c-.17-.17-.51-.47-.48-.58,1.06.44,0,.32,1.24.94a3.91,3.91,0,0,1-1-1.26c-1-.61-.39.2-.07.61a10.28,10.28,0,0,1-3-2.84c-.13-.46.94.48.78.31.58-.32-1.95-1.92-.7-1.66a15.9,15.9,0,0,1,2.22,1.44c.17.41-.74,0-.81.12l.51.1c.23.24.34.53.05.44.83.36.7-.72,1.59-.66a2.28,2.28,0,0,0-.75-.69l0,.19c-.71-.32-.7-.79-1.1-.85-.32-.44-.85-1-.32-1l.88.54c-.25-.16-.62-.21-.41,0-.3-.34,1.4.44.38-.39l-.7-.25c-.3-.43-1-1.18-.55-1.17-.88-.46.06.1-1-.42,1.29.7-.53.38.91,1.07-1.26-.64-.7-.11-1.86-.62.3.19.61.31.32.35l.22.2h0l0,0s0,0,0,0a3.14,3.14,0,0,1,.51.22c.59.52.35.74.62,1-.22,0-.3-.26-.66-.43l.41.48c-.66-.43-1.32-.52-1.5-1L19.89,6c-.49-.15-.8-.11-.6.17-.24,0,.54.73.07.29l.15.57L19.34,7c-.38.21.63,1.39-1,.84.09.22.23.48-.13.5l-.67-.4c.11.28-1-.06-.36.45-1.88-1-.93.36-1.43.38l.87.6c-.18.12-.05.45.15.89l.78.51c.51.6-.87.08-1,.42-.28-.22-.15-.24.06-.17-2-.84.79,1.58-.67,1,.23.27.1.27-.13.19,0,0,0,0,0,0l0,0L15.31,12a3.61,3.61,0,0,0,.47.18.71.71,0,0,0,.16.45l-.85-.51s0,0,0,0c-.35-.11.35.33,1,.7a4.29,4.29,0,0,0,.43.46c-1.36-.82.3.54-1.16-.31.65.53.26.82,1.64,1.82-.19-.12-.29-.15-.27-.21-.22,0-.44,0-.1.35l-1-.63,1.22,1.13a4.51,4.51,0,0,1-1.77-1.11c1,1.14.31.58,1.3,1.64l-.62-.44c0,.12.72.84.17.55-1.31-.56-.79,1-2.14.9,1.78,1-.91-.25.4.67a3.08,3.08,0,0,1-1-.64c.24.57-.85,0,.13,1-.41-.23-.54-.45-.79-.57.07.08.29.32,0,.2a1.55,1.55,0,0,1-.45-.43c-.08.36,1.1,1.19,2.2,2-.61-.21-.58-.08.08.52-.39-.19-.82-.36-.84-.63-.12.06-.88.29,0,.88-.24-.11-.15.11-.07.2-.19.2-.28.17-.33.45l.17,0c1,.78.11.34.13.61l-.11-.08c-1-.07.24.41-.84.27l.64.4c1.3.93-1-.17-.65.42l.4.15c.37.43-2-.84-2.23-.81s-.15-.16-.21-.26c-1-.16.76.58.79,1-.45-.23-1-.79-1.21-.66-.38-.13,1.07,1.43.14,1.14a1.88,1.88,0,0,1,.87.6c0,.26-1.47-.29-.59.54a2.1,2.1,0,0,1-.26-.13c.17.31.16.74.62,1.18-2-1.16.4,1.49-1.33.32l-.16.5-.16-.13c-.27.21.08.58.42.94-.15,0-.28-.16-.36-.22-.57.18-.51.28.09,1.16l-.54-.32c.24.29-1.13.06-.76.87a1.88,1.88,0,0,1-.2-.2c.31.83-1.89.22-.27,1.54l.25.58c.36-.29.69.55,1.07.58,0,.21-.75,0-.72-.2l.1,0c-.83-.65-.59.26-1.16-.14-.39.79-1.24,1.24-1.64,1.95l.62.31-.17.23c-.17,0-.49-.21-.38-.38-.37-.12.11.49.23.57-.42.2-.58-.58-.65-.48l0,.18h.09c.16.27.4.44.25.64S5,33.17,5,33.21s-.07,0-.06.08l-.21.29.48.15c.13.28-.18.28.37.45-.84-.27-.91,1-1.2,1a.64.64,0,0,1-.12.78c.11,0,.53.22.36.39-.77-.62-.57.13-1.22-.08.45.1-.22.66.41.77-.16.13-.28-.18-.53-.17.06.6-.65.8-.81,1.39.08.06.25.06.31.25H2.19c0,.13.4.4,0,.4.08,0,.2.05.19.13a3.68,3.68,0,0,0-.89,1.47,3.94,3.94,0,0,1-1,1.42c.15-.09.12,0,.07.12.05,0,.1.08.16.1a3.8,3.8,0,0,0-.37.33c.1.17-.22.47-.13.59l0-.15c0,.27.47,0,.66.14-.06-.31.67-.27.62-.75.1,0,0,.11.12.11s0-.25.19-.37v0a5.11,5.11,0,0,1,1.19-1L2.88,41a.46.46,0,0,1,.28-.1c-.16-.31-.27.29-.46,0,.47.1.63-.78,1.17-.58.15-.16-.28-.1-.13-.27l.17,0-.13-.15a.45.45,0,0,1,.45,0s0,.1-.06.13c.29,0,.31-.42.41-.44l-.23.1c.26-.54,1-.95,1-1.61l-.15,0c0-.5.36-.18.56-.63l0,0a.35.35,0,0,1,0-.4c.08.2.46,0,.54.27,0-.55-.06-.32-.39-.93l.28.11c-.15-.23-.26-.32-.18-.56.09.3.48.13.61.5.89,0-.08-1,.9-.59-.58-.68-.68.07-.75-.14-.3-.06-.42-.51-.25-.59s1.1.41,1.36.09c0,0,0,.07,0,.1.3,0-.07-.41.37-.34-.4-.4.19-.17-.4-.6l-.09.39c0-.27-.62-.92-.06-1a1.14,1.14,0,0,1,.25.42c.25,0,0-.24.26-.2.61.45-.15.45.16.94.34.09-.16-.63.43-.09-.74-.7.38-.23-.1-.89l.37.27c0-.08-.15-.27-.09-.32l.4.44c-.28-.45.67-.06.58-.38-.29.34-.54-.25-.95-.3-.18-.79,1.24.46,1.48-.13,0,.1-.46.07-.56-.16a1.43,1.43,0,0,1,.69.05c.19-.37-.47-.24-.61-.55.6.24-.07-.29-.13-.54l.44.29c.58-.17-.83-.71-.23-.81l.5.55v-.28l.47.38c-.21-.44-.07-.43.23-.51-.36-.18-.81-.58-.69-.76.36.08.39.36.51.09.25.25.56.55.05.36.14.11.25.24.38.35.42.1.34-.24.4-.32a.21.21,0,0,1-.18,0L11.44,31a.75.75,0,0,1,.44.34c0-.1-.17-.3-.13-.42.36.28.77.55.83.81l-.16-.6c.19.09.61.16.72.3.4,0-.4-.94.11-1a.52.52,0,0,1-.14-.22c.28-.16,1,0,.61-.64l.89.38c0-.32-1.13-.46-1.14-1s.74.36,1,.42c-.29-.37-.93-1.13-.11-.91C14.48,28.64,14.32,28.62,14.32,28.73ZM16,26c.08.13.39.49,0,.29C15.4,25.77,15.75,25.94,16,26Zm1.48-4.9c.2.19,0,.17-.26.06C17.22,21.07,17.28,21,17.5,21.09ZM20.17,6.45l0,0C19.82,6.39,20,6.43,20.17,6.45Zm.52,0a1.27,1.27,0,0,0-.29-.21c.17.14.13.19,0,.21C20.63,6.57,20.79,6.62,20.69,6.45ZM5.06,33.33h.12C5.23,33.52,5.15,33.43,5.06,33.33Z" fill="currentColor"/><path d="M18.08,22.15l-.38-.22A1,1,0,0,0,18.08,22.15Z" fill="currentColor"/><path d="M13.27,30.43h0l.09.07Z" fill="currentColor"/><path d="M24.69,14.55a1.84,1.84,0,0,1-.48-.19C24.41,14.5,24.59,14.59,24.69,14.55Z" fill="currentColor"/><path d="M20.69,4.61l0,.24c0-.09.21,0,.35,0C20.9,4.78,20.65,4.65,20.69,4.61Z" fill="currentColor"/><path d="M25.64,6c-.06-.07,0,0,0-.12l-.28-.18C25.28,5.82,25.46,6,25.64,6Z" fill="currentColor"/><path d="M23,6c.56.36.45.14.44,0h0C22.68,5.41,22.83,5.68,23,6Z" fill="currentColor"/><path d="M23.42,5.89a.1.1,0,0,1,.06-.1C23.2,5.58,23.39,5.79,23.42,5.89Z" fill="currentColor"/><path d="M20.56,5.93c.2.06-.72-.54-.45-.4C19.41,5,20.7,6.43,20.56,5.93Z" fill="currentColor"/><polygon points="24.84 7.07 24.14 6.66 24.64 7.08 24.84 7.07" fill="currentColor"/><path d="M23.74,7.57l.32,0a.58.58,0,0,1-.21-.2C23.76,7.42,23.53,7.43,23.74,7.57Z" fill="currentColor"/><path d="M23.85,7.33c.06,0,.08-.11,0-.21A.22.22,0,0,0,23.85,7.33Z" fill="currentColor"/><polygon points="24.89 7.45 24.71 7.4 24.58 7.49 24.89 7.45" fill="currentColor"/><path d="M22.29,9.27l.1.34c.26.2.46.27.4.12A1.61,1.61,0,0,0,22.29,9.27Z" fill="currentColor"/><path d="M24.8,10.14a3.61,3.61,0,0,1-.64-.31l.95.65Z" fill="currentColor"/><path d="M24.69,10.87c.26.2.63.81.7.52C25.13,11.18,25,10.83,24.69,10.87Z" fill="currentColor"/><polygon points="21.59 12.88 21.61 12.82 19.86 11.65 21.59 12.88" fill="currentColor"/><path d="M24.06,18.17c.59.07-1-.77-.36-.61-.37-.33-.55-.13-.86-.43C23.17,17.56,22.87,17.46,24.06,18.17Z" fill="currentColor"/><path d="M22.84,17.13l-.22-.24A1.33,1.33,0,0,0,22.84,17.13Z" fill="currentColor"/><polygon points="0.14 42.69 0.03 42.82 0.13 42.76 0.14 42.69" fill="currentColor"/><path d="M.13,43.08,0,43l.05.17S.09,43.09.13,43.08Z" fill="currentColor"/><path d="M18,26.72l-.19-.14c-.23-.12-.27-.1-.36-.06Z" fill="currentColor"/><polygon points="15.8 28.09 15.85 28.07 15.11 27.66 15.8 28.09" fill="currentColor"/><path d="M15.31,30.12c.09,0,0-.21.09-.25C15.39,30.08,14.49,29.59,15.31,30.12Z" fill="currentColor"/></g><g opacity="0.5"><path d="M64.42,34.53c.11,0,0-.07,0-.08C64.3,34.44,64.44,34.55,64.42,34.53Z" fill="currentColor"/><path d="M63,34.86v-.08a2.6,2.6,0,0,0-.13.24Z" fill="currentColor"/><path d="M61.58,35.06c.34.47.47-.17.79,0l.08.09,0-.34C62.13,34.83,61.85,35.16,61.58,35.06Z" fill="currentColor"/><path d="M60.3,33.91c.15.23-.09.18.22.08l-.06-.06Z" fill="currentColor"/><path d="M60.46,33.93c.15,0-.18-.2,0,0Z" fill="currentColor"/><path d="M59.79,34l.11-.22c-.1-.14-.31-.19-.28-.29C59.45,33.64,59.56,33.8,59.79,34Z" fill="currentColor"/><path d="M59.8,34.52l.06-.1C59.81,34.36,59.78,34.33,59.8,34.52Z" fill="currentColor"/><path d="M60,34.21l-.14.21c.07.1.16.31.07-.08C60,34.53,60,34.34,60,34.21Z" fill="currentColor"/><path d="M60.16,34.3c.17.13.35.21.24.43C60.75,34.62,60.52,34.22,60.16,34.3Z" fill="currentColor"/><path d="M61.73,35.6l.2.11,0-.2C62,35.61,61.66,35.44,61.73,35.6Z" fill="currentColor"/><path d="M58.35,33.66a5.93,5.93,0,0,0,.35.63l.07-.19A1.19,1.19,0,0,1,58.35,33.66Z" fill="currentColor"/><path d="M58.7,34.29l-.11.29C58.8,34.6,58.78,34.46,58.7,34.29Z" fill="currentColor"/><path d="M60.07,35.26c0-.19.09-.38.14-.55-.07.18-.14.37-.2.56Z" fill="currentColor"/><polygon points="57.47 33.64 57.42 33.24 57.46 33.85 57.47 33.64" fill="currentColor"/><path d="M56.93,33.73c-.06-.35-.39-.6-.38-.82-.13.06-.13.36-.13.65C56.48,33.4,56.63,33.44,56.93,33.73Z" fill="currentColor"/><path d="M56.4,34a2.43,2.43,0,0,0,0-.42A.86.86,0,0,0,56.4,34Z" fill="currentColor"/><path d="M58.19,34.53a1.59,1.59,0,0,0-.39-.47l.3.47Z" fill="currentColor"/><path d="M58.11,34.55v0h-.2Z" fill="currentColor"/><path d="M58.21,34.53h0S58.23,34.59,58.21,34.53Z" fill="currentColor"/><path d="M59.35,35c0,.25-.16.58.24.89C59.55,35.55,59.32,35.36,59.35,35Z" fill="currentColor"/><path d="M58.56,35.11l.28.07a1,1,0,0,1-.17-.42Z" fill="currentColor"/><polygon points="58.52 35.28 58.56 35.11 58.46 35.09 58.52 35.28" fill="currentColor"/><path d="M57,34.45c0,.24-.1.28-.21.33a.81.81,0,0,0,.46.11C57.21,34.72,57.14,34.42,57,34.45Z" fill="currentColor"/><path d="M57.56,34.55v0S57.6,34.63,57.56,34.55Z" fill="currentColor"/><path d="M55.61,35l.06.11,0-.1Z" fill="currentColor"/><path d="M57.33,35c.14.09.14,0,.13-.21a.34.34,0,0,1-.2.12C57.29,35,57.31,35,57.33,35Z" fill="currentColor"/><path d="M56.16,34.27a4,4,0,0,0,.31.29C56.34,34.39,56.12,34.13,56.16,34.27Z" fill="currentColor"/><path d="M57.46,34.44v0C57.39,34.31,57.41,34.37,57.46,34.44Z" fill="currentColor"/><path d="M57.46,34.44a1.21,1.21,0,0,0,0,.33.38.38,0,0,0,.09-.19Z" fill="currentColor"/><path d="M56.9,38.91c-.22-.57-.2-1.17.25-.67a10.91,10.91,0,0,0-1.48-3.18,1.22,1.22,0,0,1,.11.83c.21.3.78.59.81,1.13-.16.37-.31-.12-.58-.38.41.66.09,1.14.59,2.17l.08-.47C56.75,38.5,56.78,38.79,56.9,38.91Z" fill="currentColor"/><path d="M56.12,35.05l.06-.08a3,3,0,0,1-.63-.69,1.43,1.43,0,0,0,.08.68h.49Z" fill="currentColor"/><path d="M56.6,34.9c.16.56,0,.86.44,1.44.24-.11,0-.52,0-.79-.37.22,0-.33-.45-.59a.3.3,0,0,1,.17-.18,2.1,2.1,0,0,1-.33-.22l0,0h0c0,.07.07.11,0,.07h0a1,1,0,0,1,.06.22c-.17-.1-.08-.15-.06-.22l0-.08h0l-.31.38C56.31,35,56.42,35,56.6,34.9Z" fill="currentColor"/><path d="M59.78,36.89a.53.53,0,0,1-.06-.1C59.72,36.86,59.73,36.9,59.78,36.89Z" fill="currentColor"/><path d="M59.5,36.68c0-.08,0-.27.06-.25s.09.21.16.36a.48.48,0,0,0-.21-.55v.07a2.29,2.29,0,0,1-.7-.7A9.78,9.78,0,0,0,59.5,36.68Z" fill="currentColor"/><path d="M58.13,36l-.24.35.37.4-.12-.27C58.38,36.55,58.2,36.23,58.13,36Z" fill="currentColor"/><polygon points="55.44 34.66 55.22 34.02 55.39 34.95 55.44 34.66" fill="currentColor"/><polygon points="55 34.81 54.77 34.24 54.79 34.6 55 34.81" fill="currentColor"/><path d="M33.78,51.79l0,.18A.39.39,0,0,0,33.78,51.79Z" fill="currentColor"/><path d="M34.52,51.59l-.09-.26C34.45,51.48,34.48,51.59,34.52,51.59Z" fill="currentColor"/><path d="M44.05,38.17c-.44-.63-1-1.63-.67-.8l.39.8C43.8,38,43.91,38,44.05,38.17Z" fill="currentColor"/><path d="M39,46.11l.12.18-.17-.68Z" fill="currentColor"/><path d="M40,48.91l-.37-.36A2.11,2.11,0,0,0,40,48.91Z" fill="currentColor"/><path d="M30,53.59l.09.54C30.32,54.08,30.13,53.84,30,53.59Z" fill="currentColor"/><path d="M50.38,36.09c-.26-.27-.41-.37-.52-.38C50.21,36.12,50.61,36.74,50.38,36.09Z" fill="currentColor"/><path d="M31.48,45.63a.9.9,0,0,0,.07.39A.55.55,0,0,0,31.48,45.63Z" fill="currentColor"/><path d="M49.49,35.81l.15.17c0-.16.08-.29.22-.27C49.6,35.41,49.38,35.23,49.49,35.81Z" fill="currentColor"/><path d="M15.32,57.4l-.05,0S15.3,57.41,15.32,57.4Z" fill="currentColor"/><path d="M10.56,57.41l.16-.09A.55.55,0,0,0,10.56,57.41Z" fill="currentColor"/><path d="M53,34.84c.08-.06,0-.08,0,0Z" fill="currentColor"/><path d="M54.6,37.42a1.32,1.32,0,0,0,.1.34A1.78,1.78,0,0,1,54.6,37.42Z" fill="currentColor"/><path d="M50.67,41.09h0C50.75,41.23,50.74,41.2,50.67,41.09Z" fill="currentColor"/><path d="M53.27,35.13a1.09,1.09,0,0,0-.22-.18A1.17,1.17,0,0,0,53.27,35.13Z" fill="currentColor"/><path d="M53.11,34.81l.11,0C53.19,34.74,53.15,34.67,53.11,34.81Z" fill="currentColor"/><path d="M52.86,34.91a.24.24,0,0,1,.19,0,.28.28,0,0,1-.07-.11Z" fill="currentColor"/><path d="M22.7,54.17l0,0C22.64,54.33,22.67,54.3,22.7,54.17Z" fill="currentColor"/><path d="M45.25,47.54v0l0,0Z" fill="currentColor"/><path d="M45.16,48.22c-.27-1-.14-.92.06-.74l-1.07-2.22Z" fill="currentColor"/><path d="M32.11,52.51l.44.41c.05.89-.28.67.24,1.29-.68-1.71.87-.43.17-2.17l.31.32c-.05,0,0,.1-.07.1.66.74-.31-1.34.18-1.22a.65.65,0,0,1,.4.55l.11-.54c.11,0,.22.32.12.32l.4-.3,0,.06a8.72,8.72,0,0,1-.11-1c.23.22,0,.22.15.43l.07-.53c.3.44.29,1,.08,1,1,1.75,0-.54,1,.37l-.14.31c.6,1,.63.56,1.19,1.14-.22-.33-1.26-1.49-1.18-2,.14.11.27.14.26-.28.29.66.36.45.53.35l.37.9c.09-.32-.12-.77-.18-1.22.26,0,.6.7.91,1.28.41,0-.73-1.05-.38-1.35.44.25.49-.19.61-.87.34.25.2.58.39.82l-.13-.8s.13.24.17.35c0-.34-.38-.93-.25-1.27-.38-1.07,1.13,1.34.93.05a7,7,0,0,1,.39,1,5.84,5.84,0,0,0,0-1.87l.56.54a4.69,4.69,0,0,1-.7-2.44c-.23-.33-.42-.61-.53-.74l.14-.7a3.45,3.45,0,0,1,.34.94l0-.26a3.59,3.59,0,0,1,.61,1.5l-.4-.56a11.14,11.14,0,0,0,.63,1.9.53.53,0,0,1,0-.31,1.7,1.7,0,0,0,.14.42c.06.1,0-.13,0-.41L40.36,49l-.16-.45.79.54c-.12-1.23-.54-3-.21-3.75a17.05,17.05,0,0,0,1,2.43c-.6-1-.24.59-.62.47.2.06.36.54.39.72l.12-1.13c.34.83.37.59.65.89-.8-1.61-.08-1.22-.08-1.8.25.56.44,1.15.13,1.09.82,1.18-.47-2.08.26-1.11-.06,0-.13,0,0,.26-.07-.56.46-.28.59.25l-.06,0c.5.07,1.28-.39.7-1.93.08.19.72,1.84.82,2.15l-1.46-5.42c.5,1.35,2.09,4.42,2.07,5.28.17.16.39.34.4-.19a9.94,9.94,0,0,1-.94-2,16.57,16.57,0,0,0,1.36,1.9,7,7,0,0,1-.82-2.4c.11.33.9,2.09.94,2.33l-.5-2.23a11.6,11.6,0,0,0,1.08,2.35c-.21-.4.36-.08.38-.32l-.38-.44c.58.17-.83-3.14-.35-3.22a11.88,11.88,0,0,0,1.36,3c-.36-1.13-1.8-5.47-1.78-6.49l.34.6v-.85c.52,1.74,1.5,5.46,1.79,6.92.37.44.36.73.58.57.34.56.25.95.19,1l.74.16c-.58-1.28-.12-1.47-.6-2.54L49,47.18c-.57-1.27-1.19-3.8-.69-3.75.32.47.89,2.33,1.09,2.76-.14-.47,0-1,.19-.71l.12.76c.43.39-.36-1.87.43-.76.12,0,1,1.53.66.76a71.84,71.84,0,0,1-3.09-7.06,18.06,18.06,0,0,1,1.5,1.88c.63,1.07.93,2.82,1.47,3.74a5.11,5.11,0,0,1-.26-1c.22.25.41,1.1.55.84-.51-1.31.47-.1-.36-1.14,0-.46.33.17.54,0a11.07,11.07,0,0,1-.92-3.34,6.89,6.89,0,0,0,.46.91c.47-.07.94.4,1.33.23a3.27,3.27,0,0,1,.65,1.11c0-.24-.16-.68,0-.77.67.94-.2.3.51,1.48A3.74,3.74,0,0,1,53,41.49c-.51-1.05-.48,0-.47.5a9.17,9.17,0,0,1-.87-4.05c.19-.48.55.9.52.67.73,0-.53-2.7.45-1.82a13.85,13.85,0,0,1,1.09,2.41c-.12.45-.66-.41-.83-.31l.41.35c0,.33,0,.64-.25.41.52.75,1.12-.27,1.9.24a2,2,0,0,0-.24-1l-.1.18c-.44-.64-.12-1.07-.45-1.32,0-.56-.08-1.37.39-1.08l.45.93c-.12-.27-.43-.5-.39-.19-.05-.45,1,1.12.6-.14l-.48-.58c0-.54-.12-1.55.28-1.32-.51-.86,0,.12-.66-.89.72,1.27-.74.06.13,1.4-.73-1.21-.57-.45-1.3-1.49.14.31.35.58,0,.47a2,2,0,0,1,.07.29l0,0,0,0c0,.05,0,.06,0,0a2.09,2.09,0,0,1,.33.46c.19.75-.17.82-.13,1.25-.2-.12-.1-.39-.32-.72l.07.63c-.33-.72-.88-1.14-.74-1.64l-.31,0c-.34-.38-.65-.5-.66-.15-.21-.14,0,.92-.12.29l-.24.59-.09-.19c-.49,0-.34,1.56-1.45.25-.06.24-.11.54-.45.38l-.35-.7c-.08.3-.87-.56-.63.21-1-1.89-1.09-.16-1.56-.39l.4,1c-.25,0-.34.38-.45.87l.38.85c.07.8-.86-.37-1.18-.13-.12-.34,0-.29.16-.12-1.26-1.76-.32,1.81-1.31.59,0,.35-.08.28-.23.1a.11.11,0,0,0,0-.06h0l-.33-.39a2.54,2.54,0,0,0,.31.4.75.75,0,0,0-.16.49l-.43-.89,0,0c-.25-.28.1.47.45,1.13a3.19,3.19,0,0,0,.09.62c-.71-1.42-.08.63-.87-.86.25.79-.3.86.31,2.46-.09-.21-.17-.29-.11-.33-.2-.12-.4-.23-.32.26l-.53-1.09L43.14,42a4.07,4.07,0,0,1-.89-1.89c.17,1.52-.1.67.11,2.12l-.28-.71c-.1.09.1,1.12-.21.58-.82-1.17-1.39.49-2.55-.3.94,1.83-.67-.68-.07.8a2.79,2.79,0,0,1-.49-1.07c-.15.63-.8-.39-.52.94-.23-.41-.2-.68-.35-.91,0,.11.06.44-.09.2a1.28,1.28,0,0,1-.13-.62c-.31.29.21,1.63.71,2.88-.42-.5-.48-.37-.27.5-.23-.37-.51-.73-.35-1-.15,0-1-.19-.61.78-.14-.23-.2,0-.19.14-.3.08-.36,0-.6.23l.14.11c.37,1.19-.12.36-.29.6l0-.11c-.85-.57-.06.48-1-.19l.32.67c.58,1.5-.82-.66-.87,0l.27.34c.05.57-1.29-1.76-1.52-1.85s0-.23,0-.35c-.77-.63.32.91.1,1.27-.26-.44-.44-1.24-.68-1.21-.26-.32,0,1.82-.62,1.08a1.59,1.59,0,0,1,.39,1c-.17.23-1.15-1-.88.18a1.17,1.17,0,0,1-.16-.25c-.05.36-.35.74-.21,1.36-1.05-2-.62,1.53-1.43-.4l-.48.37-.06-.2c-.39.05-.31.56-.24,1.06-.13-.09-.15-.29-.18-.39-.64-.13-.65,0-.68,1.08L28,48.34c0,.38-1.07-.52-1.27.38a1,1,0,0,1-.05-.27c-.27.89-1.88-.78-1.27,1.23l-.15.64c.52-.08.27.84.59,1.06-.13.19-.71-.35-.52-.54l.07.07c-.33-1-.71-.06-1-.71-.88.5-2,.46-2.8.89l.37.59-.31.11c-.14-.1-.31-.43-.09-.52-.26-.3-.22.49-.17.62-.51,0-.15-.81-.28-.76l-.15.14.07,0c0,.33.07.6-.19.7s-.24-.33-.31-.32-.05-.05-.1,0l-.39.15.35.38c-.07.32-.36.16,0,.59-.59-.67-1.49.42-1.75.26a.81.81,0,0,1-.62.64c.1,0,.33.47.06.53-.29-.95-.61-.18-1.06-.69.34.31-.64.47-.13.88-.23,0-.14-.3-.38-.41-.34.56-1.12.37-1.66.81,0,.09.19.18.12.38l-.5-.28c-.09.12.11.56-.23.38.06.06.15.14.09.21a5.17,5.17,0,0,0-1.79.85,5.05,5.05,0,0,1-1.85.75c.19,0,.1.08,0,.15.08,0,0,.11.09.17l-.56.1c0,.2-.52.3-.51.46l.14-.11c-.14.25.45.22.51.46.16-.3.8.11,1.07-.35.11,0,0,.12,0,.16.06-.15.17-.22.43-.23l0,0a6.23,6.23,0,0,1,1.77-.3l-.14-.18a.55.55,0,0,1,.32.06c.06-.36-.45.12-.42-.25.38.33,1.1-.37,1.46.09.25-.07-.18-.24.06-.31l.13.12,0-.2a.45.45,0,0,1,.39.26s-.1.07-.13.09c.28.12.56-.22.66-.19l-.28,0c.6-.35,1.52-.36,2-.92l-.11-.13c.38-.42.46,0,.94-.27v.05a.4.4,0,0,1,.3-.34c-.06.22.4.26.31.51.4-.47.16-.31.26-1l.19.24c0-.29,0-.42.2-.59-.12.31.35.36.23.75.83.44.57-.9,1.21-.07-.08-.89-.67-.28-.6-.5-.22-.21,0-.66.17-.65s.74.93,1.18.77c0,0,0,.08-.07.09.27.16.21-.4.57-.11-.11-.56.28-.06,0-.74l-.35.29c.16-.24,0-1.12.58-.88a1.17,1.17,0,0,1,0,.5c.2.17.16-.21.36,0,.27.71-.43.32-.46.92.24.25.26-.64.45.14-.22-1,.5,0,.49-.85l.16.43c0-.08,0-.31.13-.33l.08.61c0-.56.66.28.79,0-.5.16-.34-.5-.69-.75.36-.8.84,1,1.45.63-.07.09-.47-.17-.41-.42a1.29,1.29,0,0,1,.6.4c.42-.23-.27-.46-.2-.8.4.52.13-.3.25-.55l.2.48c.65.15-.29-1.06.33-.84l.1.75.17-.26.18.58c.09-.49.22-.42.55-.33-.21-.34-.36-.93-.14-1,.29.26.12.52.41.34.07.35.16.77-.18.34.05.18.06.35.11.51.32.3.47,0,.58-.08a.26.26,0,0,1-.18-.08L28,53a.72.72,0,0,1,.17.52c.07-.08,0-.35.16-.44.14.45.34.89.23,1.15l.25-.61c.11.18.45.45.46.63.37.2.25-1,.73-.79a.37.37,0,0,1,0-.27c.35,0,.87.5,1-.25l.57.78c.21-.28-.74-1-.4-1.45s.44.69.66.89c0-.48-.1-1.48.51-.86C32.31,52.52,32.18,52.41,32.11,52.51ZM35.47,51c0,.16,0,.63-.18.26C35.05,50.43,35.26,50.77,35.47,51Zm4.6-3.6c0,.27-.08.17-.29-.08C39.82,47.18,39.91,47.19,40.07,47.35ZM52.18,35.71v0C51.9,35.48,52,35.59,52.18,35.71Zm.48.27a1.09,1.09,0,0,0-.13-.34c.06.21,0,.24-.11.2C52.53,36.05,52.63,36.18,52.66,36ZM20.58,51.87l.1.07C20.6,52.12,20.59,52,20.58,51.87Z" fill="currentColor"/><path d="M39.9,48.59a3.73,3.73,0,0,1-.2-.4A.76.76,0,0,0,39.9,48.59Z" fill="currentColor"/><path d="M30,53.49h0l0,.11Z" fill="currentColor"/><path d="M51,45.22a1.78,1.78,0,0,1-.32-.42C50.75,45,50.86,45.2,51,45.22Z" fill="currentColor"/><path d="M53.88,34.34l-.14.22c.09-.05.19.1.3.21C54,34.6,53.81,34.36,53.88,34.34Z" fill="currentColor"/><path d="M57.49,38.11c0-.09.06,0,0-.12l-.13-.3A.26.26,0,0,0,57.49,38.11Z" fill="currentColor"/><path d="M55.1,36.71c.27.6.31.35.41.2,0,0,0,0,0,0C55.17,36.07,55.13,36.38,55.1,36.71Z" fill="currentColor"/><path d="M55.53,36.88a.11.11,0,0,1,.13-.06C55.53,36.49,55.57,36.77,55.53,36.88Z" fill="currentColor"/><path d="M52.89,35.44c.14.16-.31-.84-.16-.58C52.45,34,52.69,36,52.89,35.44Z" fill="currentColor"/><polygon points="56.05 38.65 55.69 37.93 55.87 38.56 56.05 38.65" fill="currentColor"/><path d="M54.72,38.53l.32.13a.51.51,0,0,1-.06-.29C54.83,38.4,54.62,38.3,54.72,38.53Z" fill="currentColor"/><path d="M55,38.37c.08,0,.14,0,.13-.19A.27.27,0,0,0,55,38.37Z" fill="currentColor"/><polygon points="55.85 39.01 55.72 38.88 55.54 38.89 55.85 39.01" fill="currentColor"/><path d="M52.26,39.3l-.13.35c.1.31.25.47.28.31A1.33,1.33,0,0,0,52.26,39.3Z" fill="currentColor"/><path d="M54,41.35a3.15,3.15,0,0,1-.38-.6l.44,1.07Z" fill="currentColor"/><path d="M53.42,41.94c.1.32,0,1.05.29.82C53.61,42.45,53.73,42.08,53.42,41.94Z" fill="currentColor"/><polygon points="49.24 42.15 49.29 42.11 48.46 40.17 49.24 42.15" fill="currentColor"/><path d="M48,48.11c.49.36-.44-1.22.07-.73-.13-.48-.42-.4-.52-.82C47.6,47.11,47.4,46.87,48,48.11Z" fill="currentColor"/><path d="M47.57,46.56a2.23,2.23,0,0,0,0-.32A2.17,2.17,0,0,0,47.57,46.56Z" fill="currentColor"/><polygon points="9.88 57.66 9.69 57.72 9.83 57.72 9.88 57.66" fill="currentColor"/><path d="M9.61,58l-.09-.1-.06.17S9.57,58,9.61,58Z" fill="currentColor"/><path d="M36.77,52.58l-.08-.22c-.13-.22-.18-.23-.29-.24Z" fill="currentColor"/><polygon points="33.89 52.7 33.94 52.7 33.53 51.96 33.89 52.7" fill="currentColor"/><path d="M32.1,54.25c.1,0,.14-.18.24-.17C32.2,54.26,31.69,53.36,32.1,54.25Z" fill="currentColor"/></g><g opacity="0.5"><path d="M74.26,72c.09.05,0,0,.07-.06C74.18,71.83,74.26,72,74.26,72Z" fill="currentColor"/><path d="M72.77,71.75l0-.08-.21.17Z" fill="currentColor"/><path d="M71.37,71.42c.15.56.51,0,.76.25l0,.12.11-.34C72,71.41,71.59,71.61,71.37,71.42Z" fill="currentColor"/><path d="M70.59,69.88c0,.27-.16.14.18.16l0-.08A.55.55,0,0,1,70.59,69.88Z" fill="currentColor"/><path d="M70.73,70c.15.06-.1-.25,0,0Z" fill="currentColor"/><path d="M70.05,69.82l.19-.16c0-.17-.22-.29-.16-.37C69.89,69.33,69.93,69.51,70.05,69.82Z" fill="currentColor"/><path d="M69.89,70.27,70,70.2C70,70.13,69.94,70.09,69.89,70.27Z" fill="currentColor"/><path d="M70.19,70.06,70,70.2c0,.12,0,.35.1,0C70.07,70.35,70.1,70.17,70.19,70.06Z" fill="currentColor"/><path d="M70.31,70.2c.12.19.26.32.07.49C70.75,70.71,70.68,70.26,70.31,70.2Z" fill="currentColor"/><path d="M71.32,72l.15.17.12-.16C71.53,72.07,71.31,71.81,71.32,72Z" fill="currentColor"/><path d="M68.83,69c0,.17.08.49.1.71l.14-.15A1.21,1.21,0,0,1,68.83,69Z" fill="currentColor"/><path d="M68.93,69.66l-.21.24C68.92,70,69,69.85,68.93,69.66Z" fill="currentColor"/><path d="M69.87,71.06l.34-.46c-.13.14-.27.29-.4.45Z" fill="currentColor"/><polygon points="68.01 68.61 68.12 68.22 67.92 68.8 68.01 68.61" fill="currentColor"/><path d="M67.47,68.49c.07-.34-.15-.69-.06-.89-.15,0-.26.29-.37.55C67.16,68,67.29,68.12,67.47,68.49Z" fill="currentColor"/><path d="M66.87,68.54a2.6,2.6,0,0,0,.17-.39A.9.9,0,0,0,66.87,68.54Z" fill="currentColor"/><path d="M68.36,69.7a1.4,1.4,0,0,0-.19-.58l.1.55Z" fill="currentColor"/><path d="M68.28,69.69v0l-.18-.08Z" fill="currentColor"/><path d="M68.38,69.71h0S68.37,69.77,68.38,69.71Z" fill="currentColor"/><path d="M69.3,70.53c-.12.23-.37.48-.1.92C69.28,71.14,69.12,70.88,69.3,70.53Z" fill="currentColor"/><path d="M68.5,70.38l.23.16a1,1,0,0,1,0-.45Z" fill="currentColor"/><polygon points="68.4 70.52 68.5 70.38 68.42 70.32 68.4 70.52" fill="currentColor"/><path d="M67.27,69.2c-.09.22-.19.22-.31.23a.81.81,0,0,0,.39.27C67.37,69.52,67.41,69.22,67.27,69.2Z" fill="currentColor"/><path d="M67.76,69.49l0,0S67.77,69.58,67.76,69.49Z" fill="currentColor"/><path d="M65.76,69.16l0,.12v-.11Z" fill="currentColor"/><path d="M67.38,69.81c.1.13.15,0,.2-.15a.43.43,0,0,1-.23,0C67.35,69.78,67.35,69.83,67.38,69.81Z" fill="currentColor"/><path d="M66.54,68.73c.06.14.12.26.18.37C66.67,68.9,66.56,68.57,66.54,68.73Z" fill="currentColor"/><path d="M67.7,69.35l0,0C67.68,69.2,67.69,69.26,67.7,69.35Z" fill="currentColor"/><path d="M67.7,69.35a2,2,0,0,0-.12.31.38.38,0,0,0,.16-.15S67.71,69.41,67.7,69.35Z" fill="currentColor"/><path d="M65.53,73.32c0-.62.24-1.17.48-.54a10.51,10.51,0,0,0-.23-3.5,1.23,1.23,0,0,1-.2.82c.09.34.52.82.35,1.34-.29.29-.25-.23-.41-.56.15.76-.34,1.09-.24,2.23l.25-.41C65.54,72.88,65.45,73.16,65.53,73.32Z" fill="currentColor"/><path d="M66.21,69.43l.09-.05a3,3,0,0,1-.34-.87,1.27,1.27,0,0,0-.17.66l.45.18Z" fill="currentColor"/><path d="M66.72,69.46c0,.59-.27.83-.11,1.51.27,0,.17-.49.33-.72-.44.07.11-.31-.22-.72a.38.38,0,0,1,.24-.1,2.36,2.36,0,0,1-.24-.33v0h0c0,.08,0,.13,0,.08h0a1.55,1.55,0,0,1,0,.22c-.13-.15,0-.16,0-.22v-.09h0l-.43.24C66.4,69.48,66.52,69.49,66.72,69.46Z" fill="currentColor"/><path d="M69,72.48a.27.27,0,0,1,0-.12C69,72.42,68.94,72.46,69,72.48Z" fill="currentColor"/><path d="M68.81,72.18c0-.07,0-.27.15-.21s0,.23,0,.39a.49.49,0,0,0,0-.59l0,.07a2.17,2.17,0,0,1-.39-.91A7.48,7.48,0,0,0,68.81,72.18Z" fill="currentColor"/><path d="M67.76,71.07l-.36.24.2.51,0-.3C67.79,71.65,67.74,71.29,67.76,71.07Z" fill="currentColor"/><polygon points="65.71 68.82 65.74 68.15 65.56 69.07 65.71 68.82" fill="currentColor"/><polygon points="65.24 68.8 65.24 68.19 65.12 68.54 65.24 68.8" fill="currentColor"/><path d="M38.9,76.93l-.1.16A.39.39,0,0,0,38.9,76.93Z" fill="currentColor"/><path d="M39.67,77l0-.29C39.65,76.89,39.64,77,39.67,77Z" fill="currentColor"/><path d="M53.64,68c-.17-.75-.38-1.91-.34-1l.08.89C53.48,67.69,53.57,67.78,53.64,68Z" fill="currentColor"/><path d="M45.89,73.51l0,.22L46,73Z" fill="currentColor"/><path d="M45.87,76.51,45.65,76A1.82,1.82,0,0,0,45.87,76.51Z" fill="currentColor"/><path d="M34.7,77.25l-.11.54C34.79,77.81,34.69,77.52,34.7,77.25Z" fill="currentColor"/><path d="M60.4,68.32a1.1,1.1,0,0,0-.35-.54C60.23,68.28,60.38,69,60.4,68.32Z" fill="currentColor"/><path d="M39,70.36a.64.64,0,0,0-.08.38A.67.67,0,0,0,39,70.36Z" fill="currentColor"/><path d="M59.66,67.74c0,.09.05.13.08.21.09-.14.19-.24.31-.17C59.92,67.4,59.77,67.16,59.66,67.74Z" fill="currentColor"/><path d="M19.37,75.46l0,0S19.35,75.46,19.37,75.46Z" fill="currentColor"/><path d="M14.87,73.75l.18,0A.35.35,0,0,0,14.87,73.75Z" fill="currentColor"/><path d="M63.32,68.1c.1,0,0-.08,0,0Z" fill="currentColor"/><path d="M63.9,71.09a1.6,1.6,0,0,0,0,.36A1.43,1.43,0,0,1,63.9,71.09Z" fill="currentColor"/><path d="M58.83,73.08h0C58.85,73.25,58.85,73.22,58.83,73.08Z" fill="currentColor"/><path d="M63.48,68.47a.89.89,0,0,0-.13-.24A1,1,0,0,0,63.48,68.47Z" fill="currentColor"/><path d="M63.45,68.12l.09.08C63.55,68.08,63.54,68,63.45,68.12Z" fill="currentColor"/><path d="M63.18,68.12a.22.22,0,0,1,.17.11.45.45,0,0,1,0-.13A.41.41,0,0,1,63.18,68.12Z" fill="currentColor"/><path d="M27.54,75.14l0,0C27.43,75.26,27.47,75.24,27.54,75.14Z" fill="currentColor"/><path d="M51.32,77.13v0Z" fill="currentColor"/><path d="M51,77.73c.12-1,.21-.9.34-.67l-.2-2.45Z" fill="currentColor"/><path d="M37.06,77l.27.55c-.28.85-.51.52-.25,1.29,0-1.84,1-.09,1-2l.18.41c-.05,0-.05.08-.1.06.35.94.2-1.35.62-1.07a.67.67,0,0,1,.17.66l.31-.46c.1,0,.08.38,0,.34l.49-.13v0c.06-.3.2-.77.27-1,.14.29-.05.21,0,.46l.25-.48c.13.53-.08,1-.27.94.32,2,.21-.5.8.7l-.25.24c.2,1.15.39.75.7,1.5-.08-.39-.64-1.85-.36-2.34.09.16.2.24.35-.17,0,.73.18.56.37.53l0,1c.2-.27.17-.76.28-1.2.24.11.31.87.38,1.52.39.18-.29-1.24.15-1.4.32.39.53,0,.89-.58.23.35,0,.61.07.9l.17-.79s0,.26,0,.39c.16-.31,0-1,.24-1.28,0-1.13.57,1.66.85.39a5.67,5.67,0,0,1,0,1,5.85,5.85,0,0,0,.68-1.75l.33.71a4.58,4.58,0,0,1,.24-2.53c-.09-.39-.17-.72-.22-.88l.38-.6a3.16,3.16,0,0,1,0,1l.07-.26a3.64,3.64,0,0,1,0,1.62l-.16-.66a11.34,11.34,0,0,0-.11,2,.6.6,0,0,1,.12-.29,1.66,1.66,0,0,0,0,.44c0,.12.05-.12.1-.39l.13,1.2v-.48l.55.8c.34-1.2.61-3,1.19-3.58a15.51,15.51,0,0,0,0,2.62c-.2-1.16-.45.47-.77.21.17.13.15.65.11.82l.53-1c0,.9.13.68.29,1.07-.16-1.79.37-1.17.58-1.71,0,.61,0,1.23-.28,1.06.35,1.4.33-2.11.66-.93-.07,0-.11-.09-.12.22.14-.54.53-.09.46.45h-.07c.45.25,1.36.11,1.37-1.54,0,.21,0,2,0,2.31l.62-5.58c0,1.43.35,4.87,0,5.66.11.21.25.47.46,0a10.16,10.16,0,0,1-.15-2.23,16.5,16.5,0,0,0,.59,2.27,6.78,6.78,0,0,1,.11-2.54c0,.34.08,2.28,0,2.51l.36-2.26a11.41,11.41,0,0,0,.16,2.58c-.06-.44.36.06.47-.16l-.2-.54c.5.36.38-3.24.86-3.13a11.8,11.8,0,0,0,.2,3.25c.07-1.19.31-5.75.71-6.7l.1.68.3-.79c-.15,1.82-.6,5.63-.86,7.1.19.54.07.81.34.75.11.64-.12,1-.2,1l.64.42c-.07-1.4.44-1.41.38-2.58L55,78.15c-.07-1.39.28-4,.73-3.74a26.63,26.63,0,0,1,0,3c.05-.48.39-.94.45-.6l-.17.76c.26.52.35-1.87.68-.55.11.08.36,1.77.36,1a72.46,72.46,0,0,1-.33-7.7,16.56,16.56,0,0,1,.73,2.29c.2,1.23-.17,3,0,4a5.07,5.07,0,0,1,.11-1c.12.31,0,1.17.22,1,0-1.4.48.09.07-1.19.22-.41.25.27.52.19a10.8,10.8,0,0,1,.36-3.45,7.8,7.8,0,0,0,.1,1c.47.11.74.71,1.18.7a3.49,3.49,0,0,1,.2,1.28c0-.25.1-.7.23-.74.29,1.12-.3.2-.06,1.56a3.59,3.59,0,0,1,.5-1.58c-.1-1.17-.45-.2-.63.3a8.92,8.92,0,0,1,.67-4.09c.35-.38.19,1,.24.81.69.28.5-2.71,1.1-1.54a13.3,13.3,0,0,1,.14,2.64c-.28.38-.47-.62-.67-.58l.26.47c-.08.33-.27.59-.39.3.22.88,1.16.14,1.71.9a2,2,0,0,0,.14-1l-.16.14c-.17-.76.28-1,.06-1.4.21-.52.44-1.3.76-.86l.09,1c0-.3-.22-.62-.3-.32.12-.43.53,1.4.63.09l-.24-.72c.21-.49.45-1.49.74-1.13-.15-1-.06.11-.29-1.07.21,1.45-.72-.21-.4,1.36-.24-1.39-.37-.63-.67-1.87,0,.35.11.68-.13.46a2.19,2.19,0,0,1,0,.3l0,0,0,0s0,.07,0,0a2.84,2.84,0,0,1,.14.54c-.09.78-.47.71-.58,1.13-.15-.19,0-.41,0-.79l-.17.61c0-.79-.41-1.38-.1-1.79l-.29-.09c-.19-.47-.44-.7-.57-.38-.15-.21-.33.86-.23.23l-.44.46,0-.21c-.46-.18-.89,1.34-1.46-.29-.15.2-.3.47-.56.19l-.08-.78c-.19.25-.61-.84-.67,0-.28-2.14-1-.54-1.33-.93l0,1c-.25-.07-.46.22-.75.65l.05.93c-.23.77-.68-.66-1.08-.55,0-.36.13-.27.2,0-.54-2.1-1,1.57-1.45.07-.1.34-.18.23-.26,0a.08.08,0,0,0,0-.06s0,0,0,0c-.05-.16-.11-.34-.17-.48a3.56,3.56,0,0,0,.15.48c-.09,0-.21.15-.33.4l-.08-1,0,0c-.13-.35-.08.48,0,1.22a3.7,3.7,0,0,0-.14.61c-.15-1.58-.31.56-.5-1.12-.06.83-.61.69-.62,2.4,0-.22-.05-.32,0-.34-.14-.19-.28-.36-.39.12l-.1-1.21-.25,1.66a3.82,3.82,0,0,1-.14-2.08c-.4,1.48-.35.58-.68,2V70.4c-.14,0-.32,1.08-.42.46-.34-1.39-1.49,0-2.3-1.2.21,2-.39-.88-.37.72a2.76,2.76,0,0,1-.06-1.17c-.38.53-.61-.66-.84.68-.06-.46.06-.7,0-1,0,.11-.11.43-.16.16a1.12,1.12,0,0,1,.1-.62c-.4.15-.4,1.59-.38,2.94-.23-.62-.33-.52-.45.37-.08-.43-.21-.87,0-1.06-.14,0-.87-.53-.86.51-.05-.26-.19-.06-.23.06-.32,0-.35-.13-.65,0l.09.17c-.09,1.24-.25.29-.5.45v-.12c-.6-.84-.24.43-.83-.52l.05.74c0,1.61-.53-.91-.84-.27l.13.41c-.16.54-.56-2.11-.75-2.28s.06-.22.11-.33c-.5-.87,0,1-.37,1.21-.08-.5,0-1.3-.2-1.37-.13-.39-.63,1.71-1,.78a1.67,1.67,0,0,1,0,1.06c-.25.15-.72-1.36-.91-.16a.74.74,0,0,1,0-.29c-.19.33-.61.57-.7,1.2-.25-2.29-1.16,1.2-1.22-.89l-.58.17V71c-.38-.1-.5.41-.61.9a.65.65,0,0,1,0-.43c-.56-.35-.61-.24-1,.76l-.07-.62c-.12.36-.82-.88-1.34-.11a1,1,0,0,1,0-.28c-.58.74-1.49-1.4-1.65.69l-.38.54c.52.12-.05.89.17,1.21-.2.12-.54-.58-.3-.7l0,.1c.06-1.06-.65-.32-.66-1-1,.14-2-.28-3-.18l.13.68h-.33c-.09-.16-.13-.53.11-.53-.14-.37-.39.38-.39.52-.47-.22.15-.81,0-.81l-.19.08.05.07c-.15.3-.16.58-.44.58s-.11-.39-.18-.41,0-.06-.11,0h-.42l.19.48c-.18.27-.4,0-.19.56-.31-.84-1.57-.15-1.75-.39a.82.82,0,0,1-.82.37c.08.08.14.56-.14.51.08-1-.51-.38-.75-1,.21.42-.77.21-.45.78-.23,0,0-.33-.2-.52-.53.4-1.2-.06-1.87.15,0,.1.11.24,0,.41l-.37-.44c-.13.06-.11.55-.36.26,0,.08.09.19,0,.23a5.27,5.27,0,0,0-2,.14,5.33,5.33,0,0,1-2,0c.19.08.07.11-.07.13.09,0,0,.13,0,.19l-.56-.11c-.1.18-.6.1-.66.24L14,74c-.23.18.34.36.31.61.26-.22.71.39,1.14.06.1.07-.08.09,0,.17.11-.12.24-.15.49-.07l0,0a6.86,6.86,0,0,1,1.78.36L17.63,75a.61.61,0,0,1,.28.17c.18-.31-.47-.05-.3-.39.23.44,1.18,0,1.34.61.26,0-.08-.28.18-.26l.07.16.06-.2a.44.44,0,0,1,.27.39s-.12,0-.16,0c.22.21.62,0,.69.07l-.25-.13c.7-.1,1.57.22,2.23-.13L22,75.12c.51-.26.42.19,1,.09l0,0a.43.43,0,0,1,.42-.2c-.14.18.28.39.1.59.55-.29.27-.23.62-.86l.09.29c.12-.26.13-.39.41-.47-.23.25.19.46-.06.78.62.71.87-.63,1.17.38.25-.86-.53-.5-.38-.68-.14-.28.21-.64.4-.56s.35,1.14.83,1.16c-.05,0-.05.06-.09,0,.18.25.34-.3.57.1.11-.56.29.05.3-.68l-.44.15c.25-.17.46-1,.88-.61a1.42,1.42,0,0,1-.23.46c.13.22.23-.14.36.09,0,.75-.53.14-.78.68.14.32.49-.5.38.3.16-1,.48.17.78-.61v.46c.05-.07.15-.28.25-.27l-.16.59c.25-.49.52.51.77.25-.53,0-.14-.59-.37-.95.63-.61.41,1.28,1.13,1.12-.09.06-.38-.33-.23-.55a1.38,1.38,0,0,1,.42.59c.48-.06-.09-.52.11-.81.18.62.23-.24.44-.43v.52c.56.38.12-1.08.62-.65l-.18.72.25-.17,0,.6c.27-.43.36-.31.64-.11-.07-.39,0-1,.25-1,.18.33-.08.52.27.46-.07.35-.14.77-.31.25,0,.18-.06.34-.07.52.19.39.45.13.57.13a.27.27,0,0,1-.14-.14L33,76a.69.69,0,0,1,0,.55c.1,0,.16-.31.31-.35,0,.46,0,.95-.2,1.15l.46-.48c0,.21.26.59.2.76.28.32.63-.87,1-.47a.42.42,0,0,1,.12-.25c.33.14.64.79,1,.12l.25.94c.3-.19-.33-1.19.17-1.5s.15.8.29,1.07c.16-.45.45-1.41.8-.62C37.25,77.08,37.16,76.93,37.06,77Zm3.76-.23c-.07.15-.2.6-.27.18C40.61,76.12,40.68,76.52,40.82,76.76Zm5.67-1.69c-.05.27-.13.14-.24-.17C46.32,74.83,46.4,74.86,46.49,75.07Zm15.75-6.45v0C62.06,68.3,62.12,68.44,62.24,68.62Zm.35.42a.86.86,0,0,0,0-.36c0,.22-.09.22-.18.15C62.45,69.06,62.5,69.22,62.59,69Zm-36.2,3.18.07.1C26.31,72.46,26.35,72.34,26.39,72.22Z" fill="currentColor"/><path d="M45.87,76.17c0-.14,0-.29,0-.44A.76.76,0,0,0,45.87,76.17Z" fill="currentColor"/><path d="M34.72,77.15s0,0,0,0a.41.41,0,0,0,0,.11Z" fill="currentColor"/><path d="M57.6,77.05a1.8,1.8,0,0,1-.15-.51C57.45,76.79,57.49,77,57.6,77.05Z" fill="currentColor"/><path d="M64.35,68l-.21.15c.1,0,.15.17.2.31C64.33,68.23,64.28,68,64.35,68Z" fill="currentColor"/><path d="M66.38,72.78c0-.08.06,0,.09-.09l0-.33A.26.26,0,0,0,66.38,72.78Z" fill="currentColor"/><path d="M64.63,70.6c0,.66.17.45.32.34,0,0,0,0,0,0C64.94,70,64.78,70.32,64.63,70.6Z" fill="currentColor"/><path d="M65,70.92s.1,0,.14,0C65.13,70.56,65.06,70.84,65,70.92Z" fill="currentColor"/><path d="M63,68.63c.08.19,0-.9.07-.61C63.13,67.13,62.63,69,63,68.63Z" fill="currentColor"/><polygon points="64.82 72.77 64.74 71.96 64.68 72.61 64.82 72.77" fill="currentColor"/><path d="M63.61,72.17l.24.24a.6.6,0,0,1,.06-.29C63.76,72.09,63.59,71.92,63.61,72.17Z" fill="currentColor"/><path d="M63.91,72.12c.08,0,.15,0,.19-.14A.27.27,0,0,0,63.91,72.12Z" fill="currentColor"/><polygon points="64.5 73.02 64.42 72.85 64.25 72.8 64.5 73.02" fill="currentColor"/><path d="M61,72l-.25.27c0,.33.06.53.15.4A1.29,1.29,0,0,0,61,72Z" fill="currentColor"/><path d="M61.87,74.53a3.07,3.07,0,0,1-.14-.69l0,1.15Z" fill="currentColor"/><path d="M61.11,74.88c0,.33-.35,1,0,.87C61.11,75.42,61.36,75.12,61.11,74.88Z" fill="currentColor"/><polygon points="57.09 73.55 57.15 73.53 57.08 71.43 57.09 73.55" fill="currentColor"/><path d="M53.73,78.66c.33.52,0-1.29.34-.65,0-.5-.25-.52-.19-1C53.71,77.58,53.6,77.28,53.73,78.66Z" fill="currentColor"/><path d="M53.88,77.06a2.46,2.46,0,0,0,.09-.31A1.4,1.4,0,0,0,53.88,77.06Z" fill="currentColor"/><polygon points="14.13 73.73 13.93 73.72 14.06 73.78 14.13 73.73" fill="currentColor"/><path d="M13.75,74l-.05-.13-.12.14A.33.33,0,0,1,13.75,74Z" fill="currentColor"/><path d="M41.44,78.76v-.24c0-.26-.08-.28-.18-.33Z" fill="currentColor"/><polygon points="38.67 77.82 38.72 77.84 38.61 77 38.67 77.82" fill="currentColor"/><path d="M36.4,78.61c.1,0,.2-.11.3-.07C36.5,78.66,36.35,77.64,36.4,78.61Z" fill="currentColor"/></g></svg>