<svg id="Layer_1" preserveAspectRatio="none" data-name="Layer 1" xmlns="http://www.w3.org/2000/svg" viewBox="0 0 354.2 208.83"><title>frame</title><path d="M351.35,202.25c-.08,1.59.76,1,.91,1.26C352.08,200.85,351.13,202.32,351.35,202.25Z" fill="#f9a943"/><polygon points="349.44 176.04 349.79 176.51 348.95 172.64 349.44 176.04" fill="#f9a943"/><path d="M349.46,151.53c-1.43,2.32.23,8.88-.28,13.25l-.32.72,1.15,2C349.83,162.16,349.06,155.27,349.46,151.53Z" fill="#f9a943"/><path d="M352.55,138.46c-.56.81-.48-2.82-.17,3a5.26,5.26,0,0,1,.14-.55C352.51,140.43,352.51,139.7,352.55,138.46Z" fill="#f9a943"/><path d="M352.52,141c0,2.58.46-1.69,0,0Z" fill="#f9a943"/><path d="M352.2,129l.49,3.4c.33-.71.41-3.74.64-2.61C353.06,126.34,352.74,127.06,352.2,129Z" fill="#f9a943"/><path d="M351.16,125.82l.21,1.76A2.27,2.27,0,0,0,351.16,125.82Z" fill="#f9a943"/><path d="M351.81,131.31l-.44-3.73c-.24.49-.7.54.16,1.71C351.1,129,351.51,129.73,351.81,131.31Z" fill="#f9a943"/><path d="M351.59,133.43c-.31,1.91-.5,4.37-1,1C350.79,140.89,351.79,139.93,351.59,133.43Z" fill="#f9a943"/><path d="M348,150.28l-.41,2.55.48,2.21C347.81,153.93,348.43,150.12,348,150.28Z" fill="#f9a943"/><path d="M352.94,107.86c-.31-.21-.81,1.14-1.2,1.39l.35,2.52C352.3,110.48,352.49,108,352.94,107.86Z" fill="#f9a943"/><path d="M351.74,109.25l-.52-3.75C351.16,108.85,351.4,109.47,351.74,109.25Z" fill="#f9a943"/><polygon points="349.57 125.21 350.67 131.38 349.56 124.02 349.57 125.21" fill="#f9a943"/><polygon points="352.98 93.51 353.68 95.64 352.62 91.84 352.98 93.51" fill="#f9a943"/><path d="M352.85,84c.58,1.57,1-2.16,1.35-.5a36.71,36.71,0,0,0-1.06-6.78A25.32,25.32,0,0,1,352.85,84Z" fill="#f9a943"/><path d="M352.49,73.37c.14,1.06.39,2.15.65,3.34A20.73,20.73,0,0,0,352.49,73.37Z" fill="#f9a943"/><path d="M351.37,99.1a5.43,5.43,0,0,0,.86-3l-.85,1.48C351.38,98.07,351.37,98.58,351.37,99.1Z" fill="#f9a943"/><path d="M351.35,97.67l0,0c0-1.61,0-2.72.05-3.2C351.42,94.83,351.4,95.81,351.35,97.67Z" fill="#f9a943"/><path d="M351.36,99.47V99.1A.28.28,0,0,0,351.36,99.47Z" fill="#f9a943"/><path d="M350.34,115.36c-.47-2.21-1-6.81-1.71-2.36C349.21,114.59,349.63,112,350.34,115.36Z" fill="#f9a943"/><path d="M350.3,101.3l-.2,4c.23-.08.55-.8.79.29Z" fill="#f9a943"/><polygon points="350.02 99.35 350.3 101.31 350.37 99.83 350.02 99.35" fill="#f9a943"/><path d="M351.69,80.21a31.36,31.36,0,0,1-.47-5.74c-.16,2.28-.25,4.64-.25,6.89C351.24,81.67,351.72,82.66,351.69,80.21Z" fill="#f9a943"/><path d="M351.45,88.69l-.05-.38C351.33,88.55,351.3,88.74,351.45,88.69Z" fill="#f9a943"/><path d="M351.23,53.5l-.16.33.15.08Z" fill="#f9a943"/><path d="M350.81,81.74a9.22,9.22,0,0,0,.31,3.72c-.09-1.29-.15-2.65-.15-4.1C350.85,81.21,350.77,81.19,350.81,81.74Z" fill="#f9a943"/><path d="M352.09,67.52c-.18.9-.33,1.91-.47,3C351.89,69.62,352.31,67.84,352.09,67.52Z" fill="#f9a943"/><path d="M351.64,87.73l0,.26C351.86,87.43,351.77,87.5,351.64,87.73Z" fill="#f9a943"/><path d="M351.64,87.73a20.29,20.29,0,0,0-.52-2.27c.06,1,.15,2,.28,2.85A2.81,2.81,0,0,1,351.64,87.73Z" fill="#f9a943"/><path d="M345.74,47.14c.8.31,1.53,4.82.68,8.71.59,3.84,3.2,1.33,4.65-2-.34-.12-.66-.12-1.13-4.06-.43,1.38-1,8.75-1.73,5.42-.41-5.22.28-4.28.7-6.82-1,2.16-1.43-6.64-2.89-5.51l.52,4.59C346.31,47.53,346,45.87,345.74,47.14Z" fill="#f9a943"/><path d="M351,61.35l.1,1.62a30.07,30.07,0,0,1,1.08-5.61c-.39-2.7-.68-3.26-.95-3.45l-.11,8Z" fill="#f9a943"/><path d="M351.09,70.26c-.86-1.27-1.22-5.17-2.16-2.78.06,4.76.72,3.34,1.1,6.18-.22-7.68.48,2.21,1-3.34.14,1.51.19,2.87.22,4.15.11-1.38.24-2.72.4-4l-.06.18v0h0c-.1.33-.17.44-.11.07,0,0,0-.12,0-.16a1,1,0,0,1-.32-.35c.18-2.23.22-.35.32.35.05,0,.09.08.13.09a0,0,0,0,0,0,0l-.47-7.7C351,64.6,351,66.64,351.09,70.26Z" fill="#f9a943"/><path d="M346.77,108.9c.08-.24.14-.23.2-.25C346.87,108.15,346.79,108,346.77,108.9Z" fill="#f9a943"/><path d="M347.29,105.73a6.63,6.63,0,0,1,.38,2.84c-.26,1.58-.41,0-.7.08.23,1.1.62,3.84,1,.4l-.12-.55c.3-3.1,1.37-7.08,1.49-6.54A10.72,10.72,0,0,0,347.29,105.73Z" fill="#f9a943"/><path d="M349,87.77l-.42-6.41-.75,3.27.45-.17C348.08,88.11,348.63,87.32,349,87.77Z" fill="#f9a943"/><polygon points="351.66 52.76 352.57 53.61 351.28 49.91 351.66 52.76" fill="#f9a943"/><polygon points="351.55 44.43 352.34 44.74 351.86 42.54 351.55 44.43" fill="#f9a943"/><path d="M10.35,98.16l.23,1.88A17.25,17.25,0,0,0,10.35,98.16Z" fill="#f9a943"/><path d="M10.41,84.52,10,84.19C10.23,84.82,10.39,85.08,10.41,84.52Z" fill="#f9a943"/><path d="M179.63,1.67c-2.74-.74-5.8-1.89-5.47-1l.84.87A19.76,19.76,0,0,1,179.63,1.67Z" fill="#f9a943"/><path d="M39.5,6.85l.8.26,1.85-.83Z" fill="#f9a943"/><path d="M37.56,10.44l-3.62-.56A29.67,29.67,0,0,0,37.56,10.44Z" fill="#f9a943"/><path d="M11.27,172.65l.89,2.2C12.15,171.41,11.71,172.92,11.27,172.65Z" fill="#f9a943"/><path d="M298.93,1.9A49.38,49.38,0,0,0,293,1.38C295.87,1.87,298.17,2.62,298.93,1.9Z" fill="#f9a943"/><path d="M1.15,92.79c.15,1.16.33,1.65.52,1.61C1.52,93.22,1.36,92.55,1.15,92.79Z" fill="#f9a943"/><path d="M286.18,1.38c.42.09.83.13,1.25.2a48.69,48.69,0,0,1,5.59-.2A16.25,16.25,0,0,0,286.18,1.38Z" fill="#f9a943"/><path d="M244.89,198.56c.2,0,.44.06.61.1S245.29,198.54,244.89,198.56Z" fill="#f9a943"/><path d="M323.6,207.32c-.78.05-2,.05-3.24.06A20.54,20.54,0,0,0,323.6,207.32Z" fill="#f9a943"/><path d="M351.93,8.47c.05,3,.09.43,0,0Z" fill="#f9a943"/><path d="M348.5,19.5c-.1-.37-.23-.66-.43-.7A1.16,1.16,0,0,1,348.5,19.5Z" fill="#f9a943"/><path d="M268.58,6.78h-.16C269,7,268.86,6.91,268.58,6.78Z" fill="#f9a943"/><path d="M351.53,13c.11-1.11.2-2.41.26-3.84C351.72,9.84,351.64,11,351.53,13Z" fill="#f9a943"/><path d="M351.94,12.39c0,.93-.06,1.67-.08,2.36.07.12.13.12.15-.1S352,13.7,351.94,12.39Z" fill="#f9a943"/><path d="M351.88,4.3c0,1.71,0,3.34-.09,4.9.06-.61.11-.88.14-.73C351.92,7.59,351.9,6.35,351.88,4.3Z" fill="#f9a943"/><path d="M100.14,200.88l.38.08C102.31,200.6,101.52,200.66,100.14,200.88Z" fill="#f9a943"/><path d="M133.64,10.68l.21,0-.27,0Z" fill="#f9a943"/><path d="M127.3,11.33a11,11,0,0,1,6.28-.72l-2.1-2.5Z" fill="#f9a943"/><path d="M10.6,130.82l.78-4.46c1.29,5.38.84,9.27,1.94,5.09-2.72-.63-.28-17.33-3-17.95l.57-2.93c0,.84.13,1,.11,1.8,1.3-5.71-2-4.24-1.58-11.6.21-2.57.6-4.36.92-2.61l-.67-5.72c.05-1.66.53-1.25.47.4l-.21-8.72.08.07c-.43-1.25-1.09-4.07-1.37-5.44.39-2.22.29,1.11.63.54l-.66-4.83c.71-2,1.39,2,1.29,5.37,2.71-4.51-.69-4,.9-13.74l.34,4.56c1.54-2.94,1-6.49,1.95-11.65-.51,1.23-2.43,10.32-3.1,5.08a18.38,18.38,0,0,0-.25-6.25c1,0,.73-2.78.68-6.24l1.28.24c-.37-3.74-1-3.44-1.6-5.64.13-4.16,1.12-5,2-6,.21-6.67-1.59,4.6-1.83-3.29.49-5.54,0-9.44-.8-16.07.44-3.88.79.68,1.15-.71l-1-3.44c0-.84.34-.57.5-.43-.4-2.78-1.28-.71-1.63-3.73-.62-.56-.3-1.87.12-2.92,1.23.27,2.41.58,3.37.71a5.92,5.92,0,0,0,1.39,0,11.89,11.89,0,0,0,2.48-.4c1.39.36-.67.78-.24,1.28,7.73-1.05,6.63-.76,13-2.18l5.41.84c-4-1,1.11-2.1,5.56-3-1.42-.46-2.62-.87-3.43-1.06l7.1-.69c.86.21.14.65-1,1.18.49-.1.94-.21,1.3-.3,2.54.47,1.23,1.21-.59,1.92-.87-.25-1.73-.52-2.56-.79-1.76.78-3.4,1.64-3,2.39a11.7,11.7,0,0,1,2.33-.34c-.46.21-.76.39-.54.52s1-.15,2.14-.47l1.61,1.42.4-.56L52.5,11c6.64-1.44,12.43-3.55,23-4.14-2.62,1-.57,1.71-.71,2.95-2.88-1.31-8.17.56-13.64.29,2.85.14,2.23.73,1.5.94l9.75-1.2c-.22,1,2.07.76,4.62,1.18-1.92-2,7.27-1.33,11.24-2,.24.68-.71,1.36-5.55,1.2,5.34,1.51,6.9-2.35,12.15-1.07-1.19,0-1.82-.09-2.29.25,2.76-.59,9.51-.12,7.92.46l-1.18,0c7.85.24,23.89,0,25.06-1.69a6.72,6.72,0,0,1-1.5,2.4l14-5.73c-1.23,1.46,3.5,4.94-3,5.77a29.8,29.8,0,0,0,8.11-.07c-1.27-.2-3.17-2.11-1.43-2.24,4.78,1.63,3.32.87,9.21,2.25-1.91-.31.21-2.6,3.23-2.53-.47.35.26,2.27-.85,2.5l7.52-2.25c-1.88.41-.33,1.91,1.35,2.55-.78-.44,6.49,0,8.5-.19l-3.19-.52c8.49.34,8.38-3.16,16.8-3-1,.46-2.52,2.86,1.76,3.14,2-1.15,8.69-5.54,16.14-6.43l1.43.66,5.71-.75a144.14,144.14,0,0,1-19,6.8c3.17.52.88.78,5.63.72,1.68.62-2.59.93-4,1l11.07.4c-.49-1.35,8.47-1.35,8-2.47l-12,1.39c-.48-1.34,7-3.81,14.8-3.57,2,.53-1.49,2.39-1.33,2.84,1-.47,7.45-.89,8.17-.56l-3.33.72c4.37.51,7.13-1.78,12.38-.5,1.81.09,5.4,1.73,5.72.94-3-1.54-3.53-6.28-1.57-7.44.64.11,9.51,1.47,11.58,2.23,3,1.2-4.47,2.87-1.94,3.9.11-.37,1.76-.82,2.45-1,1.9.32-.79,1.14,3.34,1,.69-1.36,8.41.12,2-1.15,4-.39,4.29.28,9,.22-1.51-.88,4.27-3,8.32-3.38-.24.34.67.79,1.11,1,8.29.12,12.73.74,20.46.75.72.33,4.44.73,2.86,1.32a16.67,16.67,0,0,1,4.51-.74c4.62,1.18-5.31.19-1.8,1.6.3-.79,6.17-1.09,9.56-1.58-1-1.23-7.84-.24-11.24.26,0-1.69,5.9-3.46,14-4.24,6.42-.42,2.78,1.09,3.9.85,12.06.3,10.27-2.95,20.28-1.73,4,1.08.18,2.14,1.06,2.92-5.23.4-8-.69-11.57-.64l4.37.51a25,25,0,0,1-7.06.31c1.6.47,6.38.53,11.95.57l8.63.08c2.76.06,5.33.15,7.3.34,0,.38-.06.72-.09,1.06.18.59.36,1.51.56,2.14s.39,1,.61.17l-.15-3c.43-1.79.73-.65,1,.68s.43,2.63.63.23c.16,1.18.32,2.41.49,3.68s.3,2.46.46,3.77a37.6,37.6,0,0,1,.13,7.57l-1.23,1c.36-.12.73-3.63.36-5.19.54,2.31-1.66,8.52-.06,11.06l.85-3.9c.62,4,1.92,8.87,1.53,13.79,1.22-2.24-.13-1.13,1.28-4.63-1.76,3,.08-12.61-1.78-7.73,1.65-3.59.7-6.22,2.1-10.91-.4.14-.77,1.66-.57-2.48a1.57,1.57,0,0,1-.19-.44l-.17-.8,0-.47,0,.38c-.07-.29-.08-.31,0,.15a7.82,7.82,0,0,1-.29,1.61,2.56,2.56,0,0,1-.33.81,6.46,6.46,0,0,1-.26-.78l-.11-.47c0-.19-.06-.29-.09-.61-.13-1.1-.22-2.34-.3-3.61-.16-2.54-.26-5.21-.41-7.07-.94.06-1.72.12-2.31.21-1.63-.1-1.22-.22-.54-.36s1.62-.32.79-.54l-5.24.72c0-.23-.62-.43-1.39-.62s-1.75-.37-2.32-.53-.68-.31-.45-.46a1,1,0,0,1,.26-.1,2.5,2.5,0,0,1,.58-.11c.64-.07,1.53-.13,2.75-.2l-6.43,0a38.17,38.17,0,0,0-9.87-.33c-2.46-.19-6.2,1-4.06.3l-8.16.55-.08-.22c-8-.12-16.57,1.49-25.78-.14a61.87,61.87,0,0,1-10.05.25l-.88-.77c-3.48.27-10.45-.78-11.95,0C260.8-1,247.66.63,241.54.26l-.23,1c-4.21-.06-8.25.23-13.48.63l.32.9c-4.51.74-11.59-.64-18.73-.55.49-.34,2.3-.25,3.58,0-8.52-2-18,1.47-25.71,0a13.42,13.42,0,0,1-4.67,0,3.22,3.22,0,0,0,.48,0h-.79c-.85-.16-1.73-.34-2.68-.48a16.35,16.35,0,0,0,2.25.48c-1.48,0-3.73.13-5.94.35l-.94-1-.51,0c-2.17-.36-1.74.46-.59,1.18a22.45,22.45,0,0,0-2.92.58c-1.76-1.55-5.79.52-8.19-1.13-1.49.8-11.1.6-12.28,2.31-.07-.23-.72-.33.47-.35a25.28,25.28,0,0,0-7.13.1L142.8,3l-5.37,1.65c-3.26-.75-4.62-1.18-1.38-2.12-7.82,1.45-6.35.54-13,2l.33-.79c-2.38,0-6.19,1.09-7.62.43-5.32-1.5-26.34-.2-40-1.6,2.66,2.33-6.35-1-6.89.76-.79-.55-2.7-.86-.49-1.34-7,.54-10.47-.88-15.29.65-.8-.56,1.49-.81.78-1.14a6.38,6.38,0,0,1-2.94.15c-.71-.33,1-.46,2.13-.7-7.13.09-7.85,1.79-8.36,3.38-3.61-.75-5.42-.64-8,.4-1.26-.52-3.36-1.07,1.07-1.25-2.49-.08-15.21-.77-15.47.51a12.4,12.4,0,0,0-4.13,0L12,3.94c-2,0-4.08,0-7.72,0l2.18.21A3.71,3.71,0,0,1,3.94,5C4,6,3.88,7,3.79,8.29a41.88,41.88,0,0,0-.12,4.56l-.15-.18c-.13,1.41-.22,2.55-.3,3.48s-.1,1.48-.11,2a14.09,14.09,0,0,0,.1,2.12c.11,1.08.2,2.14-.43,7.14l1-.54c2.06.93-1.22,8.87-.43,14.67l.55-2.09c.7,3.17-2.81,8.86-3.06,12-.18.69-.29-1.1-.43-2.07-1.21,8.34,1.26,1.08,1.55,7.3C1.25,57.87.2,55.25.07,59.43c-.55,2.09,2.2,12.13.9,17.84C1.5,76,2,74.76,2.41,77.65c.19,4.42-2,12-.33,16-.14.56-.28.77-.41.79.43,3.39.71,11,1.6,13-3.31,3.13,1.61,21-1.44,20.95L2,138.78l-.31-.27c-.2,6.65.53,9,1.26,11.34-.21,1.54-.49.41-.65.29-.62,9.71-.49,10.68,1,18.82l-1,.85c.58,2.21-1.55,14.05-.39,23.58-.12-.1-.31-.29-.45-1,.09.86.16,1.75.19,2.67l0,.68v3.1c0,2.84-.13,5.8-.25,8.87l9,.43,3.84.17c.9,0,1.75.07,2.57.07,3.27,0,5.87-.34,7.2-1.57l7.07-.89c-9.15-.28,1.36-1.56-2.4-2.16,3.6-.21,9.31,1.09,4.88,1.27l-.69-.18c-1.62,1.88,11.37.67,11.13,1.95,18-.09,35.56.95,52.43,1l-1.94-1.46,5.89.08c1.54.34,2.07,1.14-2.13,1.08,2.21.83,7-.69,7.16-1,8.22.59-3.21,1.71-.69,1.74l3.42-.11-.77-.17c2.78-.6,3-1.23,8.07-1.16,3.19.3,1.64.9,2.9,1,0,.1.41.15,1.92,0l7.42.13-3-1.16c3.29-.57,7,.06,3.55-1.24,5,2,27.66.72,30.74,1.35,4.61-.85,9.15-.83,14.78-.73-1.4-.24-2.24-1.54,2.61-1.38-1.77,2.68,8.89,1.16,12.82,3.09-3.51-1.28,13.8-.31,8.3-2.13,4.05.22.24,1,3.31,1.63,9.64-1,21.25.68,33.17.33.18-.35-1.81-.89.74-1.41L241,208c2.36-.17,2.17-2,6.47-.81-.61-.29-1.51-.74.06-.85,23.35,1.71,47.71-1.4,71.41,1.82-3.21-.69-1.07-.75,1.38-.78-1.59-.16,0-.87-.27-1.34l9.92,1.32c1.81-1.32,10.64-.09,11.68-1.35l-3.14.22c4.18-1.49-5.85-3.32-5.24-5.23-4.68,1.7-12.34-2.51-20-.09-1.7-.39,1.45-.61.54-1.06-1.95.82-4.3,1-8.65.63l.49-.21c-12.24.2-17.49-.61-31.23-1.14l1,.94a24.42,24.42,0,0,1-5-.66c-3.39,1.44,8.3.08,5.21,1.67-3.92-1.93-20.83,0-23.48-2.22-4.54,0,1.33,1.09-3.21,1.08l-1.2-.59-1.15.76c-3-.12-4.49-.86-4.6-1.37a27.57,27.57,0,0,0,2.83-.18c-3.86-.7-10.89.24-12.22,0l4.37.37c-12.41.55-27.55-.23-39.53,1l.91.44c-9.15.83-7.33-.49-17.38-.1l.37-.11a33.83,33.83,0,0,1-7.45.62c2.54-.52-4.77-1-1.45-1.6-9.92.89-4.9.7-11.46,2.36l-1.51-.74c-2.23.67-2.42,1-7.44,1.22,4.12-.64-3.2-1.13,1.41-2-10.53-1.62-15.63,1.64-20.46-.73-4.84,2,9.11,1.14,6.4,1.58,2.27.67-4,1.53-7.3,1.33s-5.71-2.63-14.18-2.59c.85,0,.9-.15,1.74-.14-3.16-.52-6.2.71-10.09-.14-2.17,1.24-5-.07-5.67,1.51l7.77-.36c-4.4.41-8.53,2.26-15.78,1.37a21.34,21.34,0,0,1,4.2-1c-2.12-.47-4.08.31-6.27-.17.62-1.58,9.43-.34,14.14-1.55-2.27-.67-8.92,1.15-6.55-.57-3.4,2.18-8.33-.27-14.06,1.39l.38-.95a25,25,0,0,1-4.46.58l3-1.24c-4.64,1-8.94-.91-13.39-.34,9.32,0,2.09,1.14,6,1.83-11.49,1.27-6.61-2.48-19.47-2,1.74-.14,6.54.57,3.81,1a40.05,40.05,0,0,1-7.18-1.06c-8.53.2,1.3,1-2.32,1.56-2.91-1.16-4.19.47-7.93.84l0-1c-9.71-.61-2.58,2-11.32,1.27l3.69-1.34-4.55.35.94-1.1c-5,.81-6.51.6-11.37.29,1.13.68-.63,1.75-4.93,1.78-2.94-.57,1.64-.91-4.46-.77a6.59,6.59,0,0,1,5.54-.48c.27-.31,1.36-.6,1.64-.91a25,25,0,0,0-5.43-.32l-1.37,0-.66,0-.28,0h-.09a4.41,4.41,0,0,1-.64.07,1.7,1.7,0,0,1,.73.23,21,21,0,0,1-3.75,1.16l-.17-.41c.36-1,.65-.62.94-.49-.11-.57-.55-.81-.64-2.06.79.09,1.6-.05,2,.49a3.92,3.92,0,0,1-.44-.81l-.11-.28a1.61,1.61,0,0,1-.11-.57l-.21-2.1c.34-.56.93-4.32,1.22-3.23.46-4.67-1.52-11.45-.91-17.64a7.66,7.66,0,0,1-.41-2.29c.18-5.82,1.14-11,.06-17.87l1.41-3.91c-.32-5.4-1.77,5.3-2.3-3.7-.45-6.36,1.2-2.37,1.59-4.61-.71-3.16-2.15-8.67-1-14.52C10.71,127.49,10.5,129,10.6,130.82ZM10,64.21c.2,1.29.83,3.86.26,4.81C9.13,67.55,9.66,66.41,10,64.21ZM49.3,8.71a8.79,8.79,0,0,1-4.12-.21A18.07,18.07,0,0,1,49.3,8.71ZM331.37,2l-.14,0C328.35,1.66,329.37,1.81,331.37,2Zm6,.42c.6-.14.55-.27.3-.41a9.1,9.1,0,0,1-3.29.2C334.79,2.45,335.56,2.62,337.35,2.41ZM119,207.38l-1.16-.26C120.48,206.85,119.75,207.1,119,207.38Z" fill="#f9a943"/><path d="M37.82,10a1,1,0,0,1-.55-.53C36.76,9.66,36.75,9.85,37.82,10Z" fill="#f9a943"/><path d="M11.11,172.24v.21a.51.51,0,0,0,.17.2Z" fill="#f9a943"/><path d="M244.74,10.59a9.5,9.5,0,0,1-2.38-.5C242.3,10.33,242.86,10.52,244.74,10.59Z" fill="#f9a943"/><path d="M352.36,29.2l-.25-3.83a13.78,13.78,0,0,1-.31,3.45C352,28.73,352.35,28,352.36,29.2Z" fill="#f9a943"/><path d="M346.39,62.44c.12.56,0,1.18.14,1.74L347,64C346.94,61.64,346.58,60,346.39,62.44Z" fill="#f9a943"/><path d="M349.16,32.74c-.81.31-.54,2.71-.39,5.39,0-.16,0-.31,0-.47C349.91,38.45,349.53,35.59,349.16,32.74Z" fill="#f9a943"/><path d="M348.8,38.75c0,.83.06,1.67,0,2.48C349.27,41.55,348.91,40.23,348.8,38.75Z" fill="#f9a943"/><path d="M348.75,1.87c1.86.21,2.24-1,3.16-.71l.1,0c.11.15.18,0,.21-.21a37.55,37.55,0,0,0-6.23.57C344.12,1.81,343.73,2.1,348.75,1.87Z" fill="#f9a943"/><polygon points="346.48 34.92 347.49 33.95 346.68 32.45 346.48 34.92" fill="#f9a943"/><path d="M347.22,13.67,346.94,18c.17-.06.27.48.34,1.15C347.32,16.53,347.52,13.64,347.22,13.67Z" fill="#f9a943"/><path d="M347.28,19.17a18.68,18.68,0,0,0,.17,3.45C347.44,21.88,347.41,20.27,347.28,19.17Z" fill="#f9a943"/><polygon points="346.18 29.06 346.39 27.79 346.46 24.76 346.18 29.06" fill="#f9a943"/><path d="M307.49,5.72,302.81,6c-.48.35.8.56,2.54.42C306.47,6.18,308.2,6.05,307.49,5.72Z" fill="#f9a943"/><path d="M321.63,8.46a5.23,5.23,0,0,1-2.06-.76l-.14,1.24Z" fill="#f9a943"/><path d="M308,8.75c-.46.35-6.79,1-.86.91C307.61,9.32,312.29,9,308,8.75Z" fill="#f9a943"/><polygon points="237.5 7.18 238.69 7.17 238.52 5.13 237.5 7.18" fill="#f9a943"/><path d="M175.38,12.05c5.54.49,1.32-1.25,6.33-.64,1.3-.49-4.1-.5-2.76-.92C175.6,11,173.84,10.71,175.38,12.05Z" fill="#f9a943"/><path d="M179,10.49c.53-.08,1.1-.17,1.7-.31A12.17,12.17,0,0,0,179,10.49Z" fill="#f9a943"/><polygon points="336.65 208.41 340.22 208.83 337.92 208.15 336.65 208.41" fill="#f9a943"/><path d="M343.5,206.9l.84,1.3,2.14-1.18A8.34,8.34,0,0,1,343.5,206.9Z" fill="#f9a943"/><path d="M12.6,54.31,12.28,54c-.33.56-.36,1.39-.41,3.06Z" fill="#f9a943"/><polygon points="11.62 102.65 11.65 101.82 10.48 103.37 11.62 102.65" fill="#f9a943"/><path d="M13.12,143.23c.05-1.66-.21-3.61-.16-5.27C13.17,141.57,11.66,143.67,13.12,143.23Z" fill="#f9a943"/></svg>